<?xml version="1.0" standalone="no"?>
 <!DOCTYPE svg PUBLIC "-//W3C//DTD SVG 1.1//EN" 
 "http://www.w3.org/Graphics/SVG/1.1/DTD/svg11.dtd"> 
<svg
  xmlns:svg="http://www.w3.org/2000/svg"
  xmlns="http://www.w3.org/2000/svg"
  xmlns:xlink="http://www.w3.org/1999/xlink"
  version="1.1"
  width="30.378400cm" height="10.871200cm" viewBox="0 0 119600 42800">
<title>SVG Picture created as gpk60_65o-brd.svg date 2021/09/10 10:51:46 </title>
  <desc>Picture generated by PCBNEW </desc>
<g style="fill:#000000; fill-opacity:1;stroke:#000000; stroke-opacity:1;
stroke-linecap:round; stroke-linejoin:round;"
 transform="translate(0 0) scale(1 1)">
</g>
<g style="fill:#000000; fill-opacity:0.0; 
stroke:#000000; stroke-width:-0.000393701; stroke-opacity:1; 
stroke-linecap:round; stroke-linejoin:round;">
</g>
<g style="fill:#000000; fill-opacity:0.0; 
stroke:#000000; stroke-width:59.0551; stroke-opacity:1; 
stroke-linecap:round; stroke-linejoin:round;">
<circle cx="2965" cy="39175.1" r="433.071" /> 
</g>
<g style="fill:#000000; fill-opacity:0.0; 
stroke:#000000; stroke-width:78.7402; stroke-opacity:1; 
stroke-linecap:round; stroke-linejoin:round;">
<path d="M2525.89 3264.24 A842.555 842.555 0.0 0 0 1697.49 4106.68" />
<path d="M113877 4123.11 A833.249 833.249 0.0 0 0 113078 3274" />
<path d="M1693.57 39630.3 A826.659 826.659 0.0 0 0 2504 40464" />
<path d="M1693 39630
L1697 4106
" />
</g>
<g style="fill:#000000; fill-opacity:0.0; 
stroke:#000000; stroke-width:59.0551; stroke-opacity:1; 
stroke-linecap:round; stroke-linejoin:round;">
<circle cx="2985.07" cy="4554" r="433.071" /> 
</g>
<g style="fill:#000000; fill-opacity:0.0; 
stroke:#000000; stroke-width:78.7402; stroke-opacity:1; 
stroke-linecap:round; stroke-linejoin:round;">
<path d="M113078 3272
L2525 3264
" />
<path d="M113879 4123
L113877 39630
" />
<path d="M113044 40461.6 A825.788 825.788 0.0 0 0 113877 39630.3" />
</g>
<g style="fill:#000000; fill-opacity:0.0; 
stroke:#000000; stroke-width:59.0551; stroke-opacity:1; 
stroke-linecap:round; stroke-linejoin:round;">
<path d="M113877 4123
L113879 4123
" />
<circle cx="112581" cy="39177" r="433.071" /> 
<circle cx="112592" cy="4556" r="433.071" /> 
</g>
<g style="fill:#000000; fill-opacity:0.0; 
stroke:#000000; stroke-width:78.7402; stroke-opacity:1; 
stroke-linecap:round; stroke-linejoin:round;">
<path d="M2504 40464
L113043 40461
" />
</g>
<g style="fill:#000000; fill-opacity:0.0; 
stroke:#000000; stroke-width:47.2441; stroke-opacity:1; 
stroke-linecap:round; stroke-linejoin:round;">
<path d="M72737 11537
L72737 17048
" />
<path d="M72737 17048
L78248 17048
" />
<path d="M78248 17048
L78248 11537
" />
<path d="M78248 11537
L72737 11537
" />
<path d="M48248 11537
L42737 11537
" />
<path d="M48248 17048
L48248 11537
" />
<path d="M42737 17048
L48248 17048
" />
<path d="M42737 11537
L42737 17048
" />
<path d="M100748 11537
L95237 11537
" />
<path d="M100748 17048
L100748 11537
" />
<path d="M95237 17048
L100748 17048
" />
<path d="M95237 11537
L95237 17048
" />
<path d="M65237 11537
L65237 17048
" />
<path d="M65237 17048
L70748 17048
" />
<path d="M70748 17048
L70748 11537
" />
<path d="M70748 11537
L65237 11537
" />
<path d="M85748 11537
L80237 11537
" />
<path d="M85748 17048
L85748 11537
" />
<path d="M80237 17048
L85748 17048
" />
<path d="M80237 11537
L80237 17048
" />
<path d="M18248 4037
L12737 4037
" />
<path d="M18248 9548
L18248 4037
" />
<path d="M12737 9548
L18248 9548
" />
<path d="M12737 4037
L12737 9548
" />
<path d="M20237 4037
L20237 9548
" />
<path d="M20237 9548
L25748 9548
" />
<path d="M25748 9548
L25748 4037
" />
<path d="M25748 4037
L20237 4037
" />
<path d="M27737 4037
L27737 9548
" />
<path d="M27737 9548
L33248 9548
" />
<path d="M33248 9548
L33248 4037
" />
<path d="M33248 4037
L27737 4037
" />
<path d="M35237 4037
L35237 9548
" />
<path d="M35237 9548
L40748 9548
" />
<path d="M40748 9548
L40748 4037
" />
<path d="M40748 4037
L35237 4037
" />
<path d="M42737 4037
L42737 9548
" />
<path d="M42737 9548
L48248 9548
" />
<path d="M48248 9548
L48248 4037
" />
<path d="M48248 4037
L42737 4037
" />
<path d="M50237 4037
L50237 9548
" />
<path d="M50237 9548
L55748 9548
" />
<path d="M55748 9548
L55748 4037
" />
<path d="M55748 4037
L50237 4037
" />
<path d="M63248 4037
L57737 4037
" />
<path d="M63248 9548
L63248 4037
" />
<path d="M57737 9548
L63248 9548
" />
<path d="M57737 4037
L57737 9548
" />
<path d="M70748 4037
L65237 4037
" />
<path d="M70748 9548
L70748 4037
" />
<path d="M65237 9548
L70748 9548
" />
<path d="M65237 4037
L65237 9548
" />
<path d="M78248 4037
L72737 4037
" />
<path d="M78248 9548
L78248 4037
" />
<path d="M72737 9548
L78248 9548
" />
<path d="M72737 4037
L72737 9548
" />
<path d="M80237 4037
L80237 9548
" />
<path d="M80237 9548
L85748 9548
" />
<path d="M85748 9548
L85748 4037
" />
<path d="M85748 4037
L80237 4037
" />
<path d="M87737 4037
L87737 9548
" />
<path d="M87737 9548
L93248 9548
" />
<path d="M93248 9548
L93248 4037
" />
<path d="M93248 4037
L87737 4037
" />
<path d="M95237 4037
L95237 9548
" />
<path d="M95237 9548
L100748 9548
" />
<path d="M100748 9548
L100748 4037
" />
<path d="M100748 4037
L95237 4037
" />
<path d="M102737 4037
L102737 9548
" />
<path d="M102737 9548
L108248 9548
" />
<path d="M108248 9548
L108248 4037
" />
<path d="M108248 4037
L102737 4037
" />
<path d="M12737 11537
L12737 17048
" />
<path d="M12737 17048
L18248 17048
" />
<path d="M18248 17048
L18248 11537
" />
<path d="M18248 11537
L12737 11537
" />
<path d="M20237 11537
L20237 17048
" />
<path d="M20237 17048
L25748 17048
" />
<path d="M25748 17048
L25748 11537
" />
<path d="M25748 11537
L20237 11537
" />
<path d="M33248 11537
L27737 11537
" />
<path d="M33248 17048
L33248 11537
" />
<path d="M27737 17048
L33248 17048
" />
<path d="M27737 11537
L27737 17048
" />
<path d="M35237 11537
L35237 17048
" />
<path d="M35237 17048
L40748 17048
" />
<path d="M40748 17048
L40748 11537
" />
<path d="M40748 11537
L35237 11537
" />
<path d="M55748 11537
L50237 11537
" />
<path d="M55748 17048
L55748 11537
" />
<path d="M50237 17048
L55748 17048
" />
<path d="M50237 11537
L50237 17048
" />
<path d="M63248 11537
L57737 11537
" />
<path d="M63248 17048
L63248 11537
" />
<path d="M57737 17048
L63248 17048
" />
<path d="M57737 11537
L57737 17048
" />
<path d="M87737 11537
L87737 17048
" />
<path d="M87737 17048
L93248 17048
" />
<path d="M93248 17048
L93248 11537
" />
<path d="M93248 11537
L87737 11537
" />
<path d="M102737 11537
L102737 17048
" />
<path d="M102737 17048
L108248 17048
" />
<path d="M108248 17048
L108248 11537
" />
<path d="M108248 11537
L102737 11537
" />
<path d="M18248 19037
L12737 19037
" />
<path d="M18248 24548
L18248 19037
" />
<path d="M12737 24548
L18248 24548
" />
<path d="M12737 19037
L12737 24548
" />
<path d="M20237 19037
L20237 24548
" />
<path d="M20237 24548
L25748 24548
" />
<path d="M25748 24548
L25748 19037
" />
<path d="M25748 19037
L20237 19037
" />
<path d="M33248 19037
L27737 19037
" />
<path d="M33248 24548
L33248 19037
" />
<path d="M27737 24548
L33248 24548
" />
<path d="M27737 19037
L27737 24548
" />
<path d="M35237 19037
L35237 24548
" />
<path d="M35237 24548
L40748 24548
" />
<path d="M40748 24548
L40748 19037
" />
<path d="M40748 19037
L35237 19037
" />
<path d="M42737 19037
L42737 24548
" />
<path d="M42737 24548
L48248 24548
" />
<path d="M48248 24548
L48248 19037
" />
<path d="M48248 19037
L42737 19037
" />
<path d="M55748 19037
L50237 19037
" />
<path d="M55748 24548
L55748 19037
" />
<path d="M50237 24548
L55748 24548
" />
<path d="M50237 19037
L50237 24548
" />
<path d="M57737 19037
L57737 24548
" />
<path d="M57737 24548
L63248 24548
" />
<path d="M63248 24548
L63248 19037
" />
<path d="M63248 19037
L57737 19037
" />
<path d="M70748 19037
L65237 19037
" />
<path d="M70748 24548
L70748 19037
" />
<path d="M65237 24548
L70748 24548
" />
<path d="M65237 19037
L65237 24548
" />
<path d="M78248 19037
L72737 19037
" />
<path d="M78248 24548
L78248 19037
" />
<path d="M72737 24548
L78248 24548
" />
<path d="M72737 19037
L72737 24548
" />
<path d="M85748 19037
L80237 19037
" />
<path d="M85748 24548
L85748 19037
" />
<path d="M80237 24548
L85748 24548
" />
<path d="M80237 19037
L80237 24548
" />
<path d="M87737 19037
L87737 24548
" />
<path d="M87737 24548
L93248 24548
" />
<path d="M93248 24548
L93248 19037
" />
<path d="M93248 19037
L87737 19037
" />
<path d="M95237 19037
L95237 24548
" />
<path d="M95237 24548
L100748 24548
" />
<path d="M100748 24548
L100748 19037
" />
<path d="M100748 19037
L95237 19037
" />
<path d="M102737 19037
L102737 24548
" />
<path d="M102737 24548
L108248 24548
" />
<path d="M108248 24548
L108248 19037
" />
<path d="M108248 19037
L102737 19037
" />
<path d="M18248 26537
L12737 26537
" />
<path d="M18248 32048
L18248 26537
" />
<path d="M12737 32048
L18248 32048
" />
<path d="M12737 26537
L12737 32048
" />
<path d="M25748 26537
L20237 26537
" />
<path d="M25748 32048
L25748 26537
" />
<path d="M20237 32048
L25748 32048
" />
<path d="M20237 26537
L20237 32048
" />
<path d="M27737 26537
L27737 32048
" />
<path d="M27737 32048
L33248 32048
" />
<path d="M33248 32048
L33248 26537
" />
<path d="M33248 26537
L27737 26537
" />
<path d="M40748 26537
L35237 26537
" />
<path d="M40748 32048
L40748 26537
" />
<path d="M35237 32048
L40748 32048
" />
<path d="M35237 26537
L35237 32048
" />
<path d="M42737 26537
L42737 32048
" />
<path d="M42737 32048
L48248 32048
" />
<path d="M48248 32048
L48248 26537
" />
<path d="M48248 26537
L42737 26537
" />
<path d="M55748 26537
L50237 26537
" />
<path d="M55748 32048
L55748 26537
" />
<path d="M50237 32048
L55748 32048
" />
<path d="M50237 26537
L50237 32048
" />
<path d="M63248 26537
L57737 26537
" />
<path d="M63248 32048
L63248 26537
" />
<path d="M57737 32048
L63248 32048
" />
<path d="M57737 26537
L57737 32048
" />
<path d="M65237 26537
L65237 32048
" />
<path d="M65237 32048
L70748 32048
" />
<path d="M70748 32048
L70748 26537
" />
<path d="M70748 26537
L65237 26537
" />
<path d="M72737 26537
L72737 32048
" />
<path d="M72737 32048
L78248 32048
" />
<path d="M78248 32048
L78248 26537
" />
<path d="M78248 26537
L72737 26537
" />
<path d="M85748 26537
L80237 26537
" />
<path d="M85748 32048
L85748 26537
" />
<path d="M80237 32048
L85748 32048
" />
<path d="M80237 26537
L80237 32048
" />
<path d="M93248 26537
L87737 26537
" />
<path d="M93248 32048
L93248 26537
" />
<path d="M87737 32048
L93248 32048
" />
<path d="M87737 26537
L87737 32048
" />
<path d="M95237 26537
L95237 32048
" />
<path d="M95237 32048
L100748 32048
" />
<path d="M100748 32048
L100748 26537
" />
<path d="M100748 26537
L95237 26537
" />
<path d="M102737 26537
L102737 32048
" />
<path d="M102737 32048
L108248 32048
" />
<path d="M108248 32048
L108248 26537
" />
<path d="M108248 26537
L102737 26537
" />
<path d="M18248 34037
L12737 34037
" />
<path d="M18248 39548
L18248 34037
" />
<path d="M12737 39548
L18248 39548
" />
<path d="M12737 34037
L12737 39548
" />
<path d="M25748 34037
L20237 34037
" />
<path d="M25748 39548
L25748 34037
" />
<path d="M20237 39548
L25748 39548
" />
<path d="M20237 34037
L20237 39548
" />
<path d="M33248 34037
L27737 34037
" />
<path d="M33248 39548
L33248 34037
" />
<path d="M27737 39548
L33248 39548
" />
<path d="M27737 34037
L27737 39548
" />
<path d="M40748 34037
L35237 34037
" />
<path d="M40748 39548
L40748 34037
" />
<path d="M35237 39548
L40748 39548
" />
<path d="M35237 34037
L35237 39548
" />
<path d="M48248 34037
L42737 34037
" />
<path d="M48248 39548
L48248 34037
" />
<path d="M42737 39548
L48248 39548
" />
<path d="M42737 34037
L42737 39548
" />
<path d="M55748 34037
L50237 34037
" />
<path d="M55748 39548
L55748 34037
" />
<path d="M50237 39548
L55748 39548
" />
<path d="M50237 34037
L50237 39548
" />
<path d="M63248 34037
L57737 34037
" />
<path d="M63248 39548
L63248 34037
" />
<path d="M57737 39548
L63248 39548
" />
<path d="M57737 34037
L57737 39548
" />
<path d="M65237 34037
L65237 39548
" />
<path d="M65237 39548
L70748 39548
" />
<path d="M70748 39548
L70748 34037
" />
<path d="M70748 34037
L65237 34037
" />
<path d="M78248 34037
L72737 34037
" />
<path d="M78248 39548
L78248 34037
" />
<path d="M72737 39548
L78248 39548
" />
<path d="M72737 34037
L72737 39548
" />
<path d="M80237 34037
L80237 39548
" />
<path d="M80237 39548
L85748 39548
" />
<path d="M85748 39548
L85748 34037
" />
<path d="M85748 34037
L80237 34037
" />
<path d="M93248 34037
L87737 34037
" />
<path d="M93248 39548
L93248 34037
" />
<path d="M87737 39548
L93248 39548
" />
<path d="M87737 34037
L87737 39548
" />
<path d="M100748 34037
L95237 34037
" />
<path d="M100748 39548
L100748 34037
" />
<path d="M95237 39548
L100748 39548
" />
<path d="M95237 34037
L95237 39548
" />
<path d="M102737 34037
L102737 39548
" />
<path d="M102737 39548
L108248 39548
" />
<path d="M108248 39548
L108248 34037
" />
<path d="M108248 34037
L102737 34037
" />
<g >
</g>
<g >
</g>
<g >
</g>
<g >
</g>
<g >
</g>
<g >
</g>
<g >
</g>
<g >
</g>
<g >
</g>
<g >
</g>
<g >
</g>
<g >
</g>
<g >
</g>
<g >
</g>
<g >
</g>
<g >
</g>
<g >
</g>
<g >
</g>
<g >
</g>
<g >
</g>
<g >
</g>
<g >
</g>
<g >
</g>
<g >
</g>
<g >
</g>
<g >
</g>
<g >
</g>
<g >
</g>
<g >
</g>
<g >
</g>
<g >
</g>
<g >
</g>
<g >
</g>
<g >
</g>
<g >
</g>
<g >
</g>
<g >
</g>
<g >
</g>
<g >
</g>
<g >
</g>
<g >
</g>
<g >
</g>
<g >
</g>
<g >
</g>
<g >
</g>
<g >
</g>
<g >
</g>
<g >
</g>
<g >
</g>
<g >
</g>
<g >
</g>
<g >
</g>
<g >
</g>
<g >
</g>
<g >
</g>
<g >
</g>
<g >
</g>
<g >
</g>
<g >
</g>
<g >
</g>
<g >
</g>
<g >
</g>
<g >
</g>
<g >
</g>
<g >
</g>
<g >
</g>
</g> 
</svg>
