<?xml version="1.0" standalone="no"?>
 <!DOCTYPE svg PUBLIC "-//W3C//DTD SVG 1.1//EN" 
 "http://www.w3.org/Graphics/SVG/1.1/DTD/svg11.dtd"> 
<svg
  xmlns:svg="http://www.w3.org/2000/svg"
  xmlns="http://www.w3.org/2000/svg"
  xmlns:xlink="http://www.w3.org/1999/xlink"
  version="1.1"
  width="30.378400cm" height="10.871200cm" viewBox="0 0 119600 42800">
<title>SVG Picture created as gpk60_55o-brd.svg date 2021/09/10 10:51:13 </title>
  <desc>Picture generated by PCBNEW </desc>
<g style="fill:#000000; fill-opacity:1;stroke:#000000; stroke-opacity:1;
stroke-linecap:round; stroke-linejoin:round;"
 transform="translate(0 0) scale(1 1)">
</g>
<g style="fill:#000000; fill-opacity:0.0; 
stroke:#000000; stroke-width:-0.000393701; stroke-opacity:1; 
stroke-linecap:round; stroke-linejoin:round;">
</g>
<g style="fill:#000000; fill-opacity:0.0; 
stroke:#000000; stroke-width:78.7402; stroke-opacity:1; 
stroke-linecap:round; stroke-linejoin:round;">
<path d="M3679 39095
L114218 39092
" />
</g>
<g style="fill:#000000; fill-opacity:0.0; 
stroke:#000000; stroke-width:59.0551; stroke-opacity:1; 
stroke-linecap:round; stroke-linejoin:round;">
<circle cx="113767" cy="3187" r="433.071" /> 
<circle cx="113756" cy="37808" r="433.071" /> 
<path d="M115052 2754
L115054 2754
" />
</g>
<g style="fill:#000000; fill-opacity:0.0; 
stroke:#000000; stroke-width:78.7402; stroke-opacity:1; 
stroke-linecap:round; stroke-linejoin:round;">
<path d="M114219 39092.6 A825.788 825.788 0.0 0 0 115052 38261.3" />
<path d="M115054 2754
L115052 38261
" />
<path d="M114253 1903
L3700 1895
" />
</g>
<g style="fill:#000000; fill-opacity:0.0; 
stroke:#000000; stroke-width:59.0551; stroke-opacity:1; 
stroke-linecap:round; stroke-linejoin:round;">
<circle cx="4160.07" cy="3185" r="433.071" /> 
</g>
<g style="fill:#000000; fill-opacity:0.0; 
stroke:#000000; stroke-width:78.7402; stroke-opacity:1; 
stroke-linecap:round; stroke-linejoin:round;">
<path d="M2868 38261
L2872 2737
" />
<path d="M2868.57 38261.3 A826.659 826.659 0.0 0 0 3679 39095" />
<path d="M115052 2754.11 A833.249 833.249 0.0 0 0 114253 1905" />
<path d="M3700.89 1895.24 A842.555 842.555 0.0 0 0 2872.49 2737.68" />
</g>
<g style="fill:#000000; fill-opacity:0.0; 
stroke:#000000; stroke-width:59.0551; stroke-opacity:1; 
stroke-linecap:round; stroke-linejoin:round;">
<circle cx="4140" cy="37806.1" r="433.071" /> 
</g>
<g style="fill:#000000; fill-opacity:0.0; 
stroke:#000000; stroke-width:47.2441; stroke-opacity:1; 
stroke-linecap:round; stroke-linejoin:round;">
<path d="M4892 6445
L4892 11957
" />
<path d="M4892 11957
L10403 11957
" />
<path d="M10403 11957
L10403 6445
" />
<path d="M10403 6445
L4892 6445
" />
<path d="M17903 6445
L12392 6445
" />
<path d="M17903 11957
L17903 6445
" />
<path d="M12392 11957
L17903 11957
" />
<path d="M12392 6445
L12392 11957
" />
<path d="M25403 6445
L19892 6445
" />
<path d="M25403 11957
L25403 6445
" />
<path d="M19892 11957
L25403 11957
" />
<path d="M19892 6445
L19892 11957
" />
<path d="M27392 6445
L27392 11957
" />
<path d="M27392 11957
L32903 11957
" />
<path d="M32903 11957
L32903 6445
" />
<path d="M32903 6445
L27392 6445
" />
<path d="M34892 6445
L34892 11957
" />
<path d="M34892 11957
L40403 11957
" />
<path d="M40403 11957
L40403 6445
" />
<path d="M40403 6445
L34892 6445
" />
<path d="M47904 6445
L42392 6445
" />
<path d="M47904 11957
L47904 6445
" />
<path d="M42392 11957
L47904 11957
" />
<path d="M42392 6445
L42392 11957
" />
<path d="M55404 6445
L49892 6445
" />
<path d="M55404 11957
L55404 6445
" />
<path d="M49892 11957
L55404 11957
" />
<path d="M49892 6445
L49892 11957
" />
<path d="M57392 6445
L57392 11957
" />
<path d="M57392 11957
L62904 11957
" />
<path d="M62904 11957
L62904 6445
" />
<path d="M62904 6445
L57392 6445
" />
<path d="M70404 6445
L64892 6445
" />
<path d="M70404 11957
L70404 6445
" />
<path d="M64892 11957
L70404 11957
" />
<path d="M64892 6445
L64892 11957
" />
<path d="M77904 6445
L72392 6445
" />
<path d="M77904 11957
L77904 6445
" />
<path d="M72392 11957
L77904 11957
" />
<path d="M72392 6445
L72392 11957
" />
<path d="M85404 6445
L79892 6445
" />
<path d="M85404 11957
L85404 6445
" />
<path d="M79892 11957
L85404 11957
" />
<path d="M79892 6445
L79892 11957
" />
<path d="M92904 6445
L87392 6445
" />
<path d="M92904 11957
L92904 6445
" />
<path d="M87392 11957
L92904 11957
" />
<path d="M87392 6445
L87392 11957
" />
<path d="M100404 6445
L94892 6445
" />
<path d="M100404 11957
L100404 6445
" />
<path d="M94892 11957
L100404 11957
" />
<path d="M94892 6445
L94892 11957
" />
<path d="M10403 13945
L4892 13945
" />
<path d="M10403 19457
L10403 13945
" />
<path d="M4892 19457
L10403 19457
" />
<path d="M4892 13945
L4892 19457
" />
<path d="M12392 13945
L12392 19457
" />
<path d="M12392 19457
L17903 19457
" />
<path d="M17903 19457
L17903 13945
" />
<path d="M17903 13945
L12392 13945
" />
<path d="M19892 13945
L19892 19457
" />
<path d="M19892 19457
L25403 19457
" />
<path d="M25403 19457
L25403 13945
" />
<path d="M25403 13945
L19892 13945
" />
<path d="M32903 13945
L27392 13945
" />
<path d="M32903 19457
L32903 13945
" />
<path d="M27392 19457
L32903 19457
" />
<path d="M27392 13945
L27392 19457
" />
<path d="M34892 13945
L34892 19457
" />
<path d="M34892 19457
L40403 19457
" />
<path d="M40403 19457
L40403 13945
" />
<path d="M40403 13945
L34892 13945
" />
<path d="M47904 13945
L42392 13945
" />
<path d="M47904 19457
L47904 13945
" />
<path d="M42392 19457
L47904 19457
" />
<path d="M42392 13945
L42392 19457
" />
<path d="M49892 13945
L49892 19457
" />
<path d="M49892 19457
L55404 19457
" />
<path d="M55404 19457
L55404 13945
" />
<path d="M55404 13945
L49892 13945
" />
<path d="M62904 13945
L57392 13945
" />
<path d="M62904 19457
L62904 13945
" />
<path d="M57392 19457
L62904 19457
" />
<path d="M57392 13945
L57392 19457
" />
<path d="M64892 13945
L64892 19457
" />
<path d="M64892 19457
L70404 19457
" />
<path d="M70404 19457
L70404 13945
" />
<path d="M70404 13945
L64892 13945
" />
<path d="M72392 13945
L72392 19457
" />
<path d="M72392 19457
L77904 19457
" />
<path d="M77904 19457
L77904 13945
" />
<path d="M77904 13945
L72392 13945
" />
<path d="M79892 13945
L79892 19457
" />
<path d="M79892 19457
L85404 19457
" />
<path d="M85404 19457
L85404 13945
" />
<path d="M85404 13945
L79892 13945
" />
<path d="M87392 13945
L87392 19457
" />
<path d="M87392 19457
L92904 19457
" />
<path d="M92904 19457
L92904 13945
" />
<path d="M92904 13945
L87392 13945
" />
<path d="M94892 13945
L94892 19457
" />
<path d="M100404 13945
L94892 13945
" />
<path d="M100404 19457
L100404 13945
" />
<path d="M94892 19457
L100404 19457
" />
<path d="M10403 21445
L4892 21445
" />
<path d="M10403 26957
L10403 21445
" />
<path d="M4892 26957
L10403 26957
" />
<path d="M4892 21445
L4892 26957
" />
<path d="M12392 21445
L12392 26957
" />
<path d="M12392 26957
L17903 26957
" />
<path d="M17903 26957
L17903 21445
" />
<path d="M17903 21445
L12392 21445
" />
<path d="M19892 21445
L19892 26957
" />
<path d="M19892 26957
L25403 26957
" />
<path d="M25403 26957
L25403 21445
" />
<path d="M25403 21445
L19892 21445
" />
<path d="M27392 21445
L27392 26957
" />
<path d="M27392 26957
L32903 26957
" />
<path d="M32903 26957
L32903 21445
" />
<path d="M32903 21445
L27392 21445
" />
<path d="M34892 21445
L34892 26957
" />
<path d="M34892 26957
L40403 26957
" />
<path d="M40403 26957
L40403 21445
" />
<path d="M40403 21445
L34892 21445
" />
<path d="M47904 21445
L42392 21445
" />
<path d="M47904 26957
L47904 21445
" />
<path d="M42392 26957
L47904 26957
" />
<path d="M42392 21445
L42392 26957
" />
<path d="M55404 21445
L49892 21445
" />
<path d="M55404 26957
L55404 21445
" />
<path d="M49892 26957
L55404 26957
" />
<path d="M49892 21445
L49892 26957
" />
<path d="M57392 21445
L57392 26957
" />
<path d="M57392 26957
L62904 26957
" />
<path d="M62904 26957
L62904 21445
" />
<path d="M62904 21445
L57392 21445
" />
<path d="M70404 21445
L64892 21445
" />
<path d="M70404 26957
L70404 21445
" />
<path d="M64892 26957
L70404 26957
" />
<path d="M64892 21445
L64892 26957
" />
<path d="M72392 21445
L72392 26957
" />
<path d="M72392 26957
L77904 26957
" />
<path d="M77904 26957
L77904 21445
" />
<path d="M77904 21445
L72392 21445
" />
<path d="M85404 21445
L79892 21445
" />
<path d="M85404 26957
L85404 21445
" />
<path d="M79892 26957
L85404 26957
" />
<path d="M79892 21445
L79892 26957
" />
<path d="M87392 21445
L87392 26957
" />
<path d="M87392 26957
L92904 26957
" />
<path d="M92904 26957
L92904 21445
" />
<path d="M92904 21445
L87392 21445
" />
<path d="M102788 22891
L97276 22891
" />
<path d="M102788 28403
L102788 22891
" />
<path d="M97276 28403
L102788 28403
" />
<path d="M97276 22891
L97276 28403
" />
<path d="M4892 28945
L4892 34457
" />
<path d="M4892 34457
L10403 34457
" />
<path d="M10403 34457
L10403 28945
" />
<path d="M10403 28945
L4892 28945
" />
<path d="M17903 28945
L12392 28945
" />
<path d="M17903 34457
L17903 28945
" />
<path d="M12392 34457
L17903 34457
" />
<path d="M12392 28945
L12392 34457
" />
<path d="M19892 28945
L19892 34457
" />
<path d="M19892 34457
L25403 34457
" />
<path d="M25403 34457
L25403 28945
" />
<path d="M25403 28945
L19892 28945
" />
<path d="M27392 28945
L27392 34457
" />
<path d="M27392 34457
L32903 34457
" />
<path d="M32903 34457
L32903 28945
" />
<path d="M32903 28945
L27392 28945
" />
<path d="M40403 28945
L34892 28945
" />
<path d="M40403 34457
L40403 28945
" />
<path d="M34892 34457
L40403 34457
" />
<path d="M34892 28945
L34892 34457
" />
<path d="M44267 28945
L44267 34457
" />
<path d="M44267 34457
L49779 34457
" />
<path d="M49779 34457
L49779 28945
" />
<path d="M49779 28945
L44267 28945
" />
<path d="M61029 28945
L55517 28945
" />
<path d="M61029 34457
L61029 28945
" />
<path d="M55517 34457
L61029 34457
" />
<path d="M55517 28945
L55517 34457
" />
<path d="M64892 28945
L64892 34457
" />
<path d="M64892 34457
L70404 34457
" />
<path d="M70404 34457
L70404 28945
" />
<path d="M70404 28945
L64892 28945
" />
<path d="M77904 28945
L72392 28945
" />
<path d="M77904 34457
L77904 28945
" />
<path d="M72392 34457
L77904 34457
" />
<path d="M72392 28945
L72392 34457
" />
<path d="M79892 28945
L79892 34457
" />
<path d="M79892 34457
L85404 34457
" />
<path d="M85404 34457
L85404 28945
" />
<path d="M85404 28945
L79892 28945
" />
<path d="M95288 30391
L89776 30391
" />
<path d="M95288 35903
L95288 30391
" />
<path d="M89776 35903
L95288 35903
" />
<path d="M89776 30391
L89776 35903
" />
<path d="M97276 30391
L97276 35903
" />
<path d="M97276 35903
L102788 35903
" />
<path d="M102788 35903
L102788 30391
" />
<path d="M102788 30391
L97276 30391
" />
<path d="M110288 30391
L104776 30391
" />
<path d="M110288 35903
L110288 30391
" />
<path d="M104776 35903
L110288 35903
" />
<path d="M104776 30391
L104776 35903
" />
<path d="M107537 6445
L107537 11957
" />
<path d="M107537 11957
L113048 11957
" />
<path d="M113048 11957
L113048 6445
" />
<path d="M113048 6445
L107537 6445
" />
<path d="M113048 19457
L113048 13945
" />
<path d="M107537 19457
L113048 19457
" />
<path d="M107537 13945
L107537 19457
" />
<path d="M113048 13945
L107537 13945
" />
<path d="M107537 21445
L107537 26957
" />
<path d="M107537 26957
L113048 26957
" />
<path d="M113048 26957
L113048 21445
" />
<path d="M113048 21445
L107537 21445
" />
<g >
</g>
<g >
</g>
<g >
</g>
<g >
</g>
<g >
</g>
<g >
</g>
<g >
</g>
<g >
</g>
<g >
</g>
<g >
</g>
<g >
</g>
<g >
</g>
<g >
</g>
<g >
</g>
<g >
</g>
<g >
</g>
<g >
</g>
<g >
</g>
<g >
</g>
<g >
</g>
<g >
</g>
<g >
</g>
<g >
</g>
<g >
</g>
<g >
</g>
<g >
</g>
<g >
</g>
<g >
</g>
<g >
</g>
<g >
</g>
<g >
</g>
<g >
</g>
<g >
</g>
<g >
</g>
<g >
</g>
<g >
</g>
<g >
</g>
<g >
</g>
<g >
</g>
<g >
</g>
<g >
</g>
<g >
</g>
<g >
</g>
<g >
</g>
<g >
</g>
<g >
</g>
<g >
</g>
<g >
</g>
<g >
</g>
<g >
</g>
<g >
</g>
<g >
</g>
<g >
</g>
<g >
</g>
<g >
</g>
<g >
</g>
</g> 
</svg>
