<?xml version="1.0" standalone="no"?>
 <!DOCTYPE svg PUBLIC "-//W3C//DTD SVG 1.1//EN" 
 "http://www.w3.org/Graphics/SVG/1.1/DTD/svg11.dtd"> 
<svg
  xmlns:svg="http://www.w3.org/2000/svg"
  xmlns="http://www.w3.org/2000/svg"
  xmlns:xlink="http://www.w3.org/1999/xlink"
  version="1.1"
  width="30.378400cm" height="10.871200cm" viewBox="0 0 119600 42800">
<title>SVG Picture created as gpk60_46a_top-brd.svg date 2021/09/10 10:48:30 </title>
  <desc>Picture generated by PCBNEW </desc>
<g style="fill:#000000; fill-opacity:1;stroke:#000000; stroke-opacity:1;
stroke-linecap:round; stroke-linejoin:round;"
 transform="translate(0 0) scale(1 1)">
</g>
<g style="fill:#000000; fill-opacity:0.0; 
stroke:#000000; stroke-width:-0.000393701; stroke-opacity:1; 
stroke-linecap:round; stroke-linejoin:round;">
</g>
<g style="fill:#000000; fill-opacity:0.0; 
stroke:#000000; stroke-width:59.0551; stroke-opacity:1; 
stroke-linecap:round; stroke-linejoin:round;">
<circle cx="114358" cy="3592" r="433.071" /> 
<circle cx="114337" cy="38213" r="433.071" /> 
<path d="M115643 3159
L115645 3159
" />
</g>
<g style="fill:#000000; fill-opacity:0.0; 
stroke:#000000; stroke-width:78.7402; stroke-opacity:1; 
stroke-linecap:round; stroke-linejoin:round;">
<path d="M4291.89 2300.24 A842.555 842.555 0.0 0 0 3463.49 3142.68" />
<path d="M114810 39497.6 A825.788 825.788 0.0 0 0 115643 38666.3" />
<path d="M115643 3159.11 A833.249 833.249 0.0 0 0 114844 2310" />
<path d="M115645 3159
L115643 38666
" />
<path d="M3459.57 38666.3 A826.659 826.659 0.0 0 0 4270 39500" />
<path d="M4270 39500
L114809 39497
" />
<path d="M3459 38666
L3463 3142
" />
</g>
<g style="fill:#000000; fill-opacity:0.0; 
stroke:#000000; stroke-width:59.0551; stroke-opacity:1; 
stroke-linecap:round; stroke-linejoin:round;">
<circle cx="4751.07" cy="3590" r="433.071" /> 
<circle cx="4751.07" cy="38210" r="433.071" /> 
</g>
<g style="fill:#000000; fill-opacity:0.0; 
stroke:#000000; stroke-width:78.7402; stroke-opacity:1; 
stroke-linecap:round; stroke-linejoin:round;">
<path d="M114844 2308
L4291 2300
" />
</g>
<g style="fill:#000000; fill-opacity:0.0; 
stroke:#000000; stroke-width:47.2441; stroke-opacity:1; 
stroke-linecap:round; stroke-linejoin:round;">
<path d="M13187 4637
L7675 4637
" />
<path d="M13187 10148
L13187 4637
" />
<path d="M7675 10148
L13187 10148
" />
<path d="M7675 4637
L7675 10148
" />
<path d="M22561 4637
L17050 4637
" />
<path d="M22561 10148
L22561 4637
" />
<path d="M17050 10148
L22561 10148
" />
<path d="M17050 4637
L17050 10148
" />
<path d="M26073 4643
L25306 10101
" />
<path d="M25306 10101
L30764 10868
" />
<path d="M30764 10868
L31531 5410
" />
<path d="M31531 5410
L26073 4643
" />
<path d="M33500 5687
L32733 11145
" />
<path d="M32733 11145
L38191 11912
" />
<path d="M38191 11912
L38958 6454
" />
<path d="M38958 6454
L33500 5687
" />
<path d="M40927 6731
L40160 12189
" />
<path d="M40160 12189
L45618 12956
" />
<path d="M45618 12956
L46385 7498
" />
<path d="M46385 7498
L40927 6731
" />
<path d="M53812 8541
L48354 7774
" />
<path d="M53045 14000
L53812 8541
" />
<path d="M47587 13232
L53045 14000
" />
<path d="M48354 7774
L47587 13232
" />
<path d="M13181 12137
L7669 12137
" />
<path d="M13181 17648
L13181 12137
" />
<path d="M7669 17648
L13181 17648
" />
<path d="M7669 12137
L7669 17648
" />
<path d="M23493 12137
L17982 12137
" />
<path d="M23493 17648
L23493 12137
" />
<path d="M17982 17648
L23493 17648
" />
<path d="M17982 12137
L17982 17648
" />
<path d="M31973 13046
L26515 12279
" />
<path d="M31206 18504
L31973 13046
" />
<path d="M25748 17737
L31206 18504
" />
<path d="M26515 12279
L25748 17737
" />
<path d="M39400 14089
L33942 13322
" />
<path d="M38633 19548
L39400 14089
" />
<path d="M33175 18781
L38633 19548
" />
<path d="M33942 13322
L33175 18781
" />
<path d="M46827 15133
L41369 14366
" />
<path d="M46060 20591
L46827 15133
" />
<path d="M40602 19824
L46060 20591
" />
<path d="M41369 14366
L40602 19824
" />
<path d="M48796 15410
L48029 20868
" />
<path d="M48029 20868
L53487 21635
" />
<path d="M53487 21635
L54254 16177
" />
<path d="M54254 16177
L48796 15410
" />
<path d="M7669 19637
L7669 25148
" />
<path d="M7669 25148
L13181 25148
" />
<path d="M13181 25148
L13181 19637
" />
<path d="M13181 19637
L7669 19637
" />
<path d="M23493 19637
L17982 19637
" />
<path d="M23493 25148
L23493 19637
" />
<path d="M17982 25148
L23493 25148
" />
<path d="M17982 19637
L17982 25148
" />
<path d="M26956 19914
L26189 25373
" />
<path d="M26189 25373
L31647 26140
" />
<path d="M31647 26140
L32414 20682
" />
<path d="M32414 20682
L26956 19914
" />
<path d="M34383 20958
L33616 26416
" />
<path d="M33616 26416
L39074 27183
" />
<path d="M39074 27183
L39842 21725
" />
<path d="M39842 21725
L34383 20958
" />
<path d="M41811 22002
L41043 27460
" />
<path d="M41043 27460
L46502 28227
" />
<path d="M46502 28227
L47269 22769
" />
<path d="M47269 22769
L41811 22002
" />
<path d="M54695 23813
L49237 23046
" />
<path d="M53928 29271
L54695 23813
" />
<path d="M48470 28504
L53928 29271
" />
<path d="M49237 23046
L48470 28504
" />
<path d="M7675 27137
L7675 32648
" />
<path d="M7675 32648
L13187 32648
" />
<path d="M13187 32648
L13187 27137
" />
<path d="M13187 27137
L7675 27137
" />
<path d="M30183 27942
L29416 33400
" />
<path d="M29416 33400
L34874 34167
" />
<path d="M34874 34167
L35641 28709
" />
<path d="M35641 28709
L30183 27942
" />
<path d="M40396 29377
L39628 34835
" />
<path d="M39628 34835
L45087 35602
" />
<path d="M45087 35602
L45854 30144
" />
<path d="M45854 30144
L40396 29377
" />
<path d="M49679 30681
L48912 36140
" />
<path d="M48912 36140
L54370 36907
" />
<path d="M54370 36907
L55137 31448
" />
<path d="M55137 31448
L49679 30681
" />
<path d="M59809 8516
L60576 13974
" />
<path d="M60576 13974
L66034 13207
" />
<path d="M66034 13207
L65267 7749
" />
<path d="M65267 7749
L59809 8516
" />
<path d="M72694 6705
L67236 7472
" />
<path d="M73461 12163
L72694 6705
" />
<path d="M68003 12930
L73461 12163
" />
<path d="M67236 7472
L68003 12930
" />
<path d="M74663 6428
L75430 11887
" />
<path d="M75430 11887
L80888 11119
" />
<path d="M80888 11119
L80121 5661
" />
<path d="M80121 5661
L74663 6428
" />
<path d="M82090 5384
L82857 10842
" />
<path d="M82857 10842
L88316 10075
" />
<path d="M88316 10075
L87548 4617
" />
<path d="M87548 4617
L82090 5384
" />
<path d="M95964 4211
L90452 4211
" />
<path d="M95964 9722
L95964 4211
" />
<path d="M90452 9722
L95964 9722
" />
<path d="M90452 4211
L90452 9722
" />
<path d="M103464 4633
L97952 4633
" />
<path d="M103464 10144
L103464 4633
" />
<path d="M97952 10144
L103464 10144
" />
<path d="M97952 4633
L97952 10144
" />
<path d="M110964 4633
L105452 4633
" />
<path d="M110964 10144
L110964 4633
" />
<path d="M105452 10144
L110964 10144
" />
<path d="M105452 4633
L105452 10144
" />
<path d="M67425 15019
L61967 15786
" />
<path d="M68192 20477
L67425 15019
" />
<path d="M62734 21244
L68192 20477
" />
<path d="M61967 15786
L62734 21244
" />
<path d="M69394 14743
L70161 20201
" />
<path d="M70161 20201
L75619 19434
" />
<path d="M75619 19434
L74852 13975
" />
<path d="M74852 13975
L69394 14743
" />
<path d="M82279 12932
L76821 13699
" />
<path d="M83046 18390
L82279 12932
" />
<path d="M77588 19157
L83046 18390
" />
<path d="M76821 13699
L77588 19157
" />
<path d="M89706 11888
L84248 12655
" />
<path d="M90473 17346
L89706 11888
" />
<path d="M85015 18113
L90473 17346
" />
<path d="M84248 12655
L85015 18113
" />
<path d="M98186 12140
L92674 12140
" />
<path d="M98186 17652
L98186 12140
" />
<path d="M92674 17652
L98186 17652
" />
<path d="M92674 12140
L92674 17652
" />
<path d="M100174 12140
L100174 17652
" />
<path d="M100174 17652
L105686 17652
" />
<path d="M105686 17652
L105686 12140
" />
<path d="M105686 12140
L100174 12140
" />
<path d="M113186 12140
L107674 12140
" />
<path d="M113186 17652
L113186 12140
" />
<path d="M107674 17652
L113186 17652
" />
<path d="M107674 12140
L107674 17652
" />
<path d="M71069 22081
L65610 22848
" />
<path d="M71836 27539
L71069 22081
" />
<path d="M66377 28306
L71836 27539
" />
<path d="M65610 22848
L66377 28306
" />
<path d="M73037 21804
L73804 27263
" />
<path d="M73804 27263
L79262 26495
" />
<path d="M79262 26495
L78495 21037
" />
<path d="M78495 21037
L73037 21804
" />
<path d="M85922 19993
L80464 20760
" />
<path d="M86690 25451
L85922 19993
" />
<path d="M81231 26218
L86690 25451
" />
<path d="M80464 20760
L81231 26218
" />
<path d="M94725 19648
L89214 19648
" />
<path d="M94725 25160
L94725 19648
" />
<path d="M89214 25160
L94725 25160
" />
<path d="M89214 19648
L89214 25160
" />
<path d="M96714 19648
L96714 25160
" />
<path d="M96714 25160
L102225 25160
" />
<path d="M102225 25160
L102225 19648
" />
<path d="M102225 19648
L96714 19648
" />
<path d="M105151 19648
L105151 25160
" />
<path d="M105151 25160
L110663 25160
" />
<path d="M110663 25160
L110663 19648
" />
<path d="M110663 19648
L105151 19648
" />
<path d="M69141 29925
L63683 30693
" />
<path d="M69908 35384
L69141 29925
" />
<path d="M64450 36151
L69908 35384
" />
<path d="M63683 30693
L64450 36151
" />
<path d="M72037 29518
L72804 34976
" />
<path d="M72804 34976
L78262 34209
" />
<path d="M78262 34209
L77495 28751
" />
<path d="M77495 28751
L72037 29518
" />
<path d="M81315 28217
L82082 33675
" />
<path d="M82082 33675
L87540 32908
" />
<path d="M87540 32908
L86773 27450
" />
<path d="M86773 27450
L81315 28217
" />
<path d="M102339 27148
L102339 32660
" />
<path d="M102339 32660
L107851 32660
" />
<path d="M107851 32660
L107851 27148
" />
<path d="M107851 27148
L102339 27148
" />
<g >
</g>
<g >
</g>
<g >
</g>
<g >
</g>
<g >
</g>
<g >
</g>
<g >
</g>
<g >
</g>
<g >
</g>
<g >
</g>
<g >
</g>
<g >
</g>
<g >
</g>
<g >
</g>
<g >
</g>
<g >
</g>
<g >
</g>
<g >
</g>
<g >
</g>
<g >
</g>
<g >
</g>
<g >
</g>
<g >
</g>
<g >
</g>
<g >
</g>
<g >
</g>
<g >
</g>
<g >
</g>
<g >
</g>
<g >
</g>
<g >
</g>
<g >
</g>
<g >
</g>
<g >
</g>
<g >
</g>
<g >
</g>
<g >
</g>
<g >
</g>
<g >
</g>
<g >
</g>
<g >
</g>
<g >
</g>
<g >
</g>
<g >
</g>
<g >
</g>
<g >
</g>
<g >
</g>
</g> 
</svg>
