<?xml version="1.0" standalone="no"?>
 <!DOCTYPE svg PUBLIC "-//W3C//DTD SVG 1.1//EN" 
 "http://www.w3.org/Graphics/SVG/1.1/DTD/svg11.dtd"> 
<svg
  xmlns:svg="http://www.w3.org/2000/svg"
  xmlns="http://www.w3.org/2000/svg"
  xmlns:xlink="http://www.w3.org/1999/xlink"
  version="1.1"
  width="30.378400cm" height="10.871200cm" viewBox="0 0 119600 42800">
<title>SVG Picture created as gpk60_51o-brd.svg date 2021/09/10 10:49:57 </title>
  <desc>Picture generated by PCBNEW </desc>
<g style="fill:#000000; fill-opacity:1;stroke:#000000; stroke-opacity:1;
stroke-linecap:round; stroke-linejoin:round;"
 transform="translate(0 0) scale(1 1)">
</g>
<g style="fill:#000000; fill-opacity:0.0; 
stroke:#000000; stroke-width:-0.000393701; stroke-opacity:1; 
stroke-linecap:round; stroke-linejoin:round;">
</g>
<g style="fill:#000000; fill-opacity:0.0; 
stroke:#000000; stroke-width:78.7402; stroke-opacity:1; 
stroke-linecap:round; stroke-linejoin:round;">
<path d="M3730 39235
L114269 39232
" />
</g>
<g style="fill:#000000; fill-opacity:0.0; 
stroke:#000000; stroke-width:59.0551; stroke-opacity:1; 
stroke-linecap:round; stroke-linejoin:round;">
<circle cx="113818" cy="3327" r="433.071" /> 
<circle cx="113807" cy="37948" r="433.071" /> 
<circle cx="4211.07" cy="3325" r="433.071" /> 
</g>
<g style="fill:#000000; fill-opacity:0.0; 
stroke:#000000; stroke-width:78.7402; stroke-opacity:1; 
stroke-linecap:round; stroke-linejoin:round;">
<path d="M2919.57 38401.3 A826.659 826.659 0.0 0 0 3730 39235" />
</g>
<g style="fill:#000000; fill-opacity:0.0; 
stroke:#000000; stroke-width:59.0551; stroke-opacity:1; 
stroke-linecap:round; stroke-linejoin:round;">
<circle cx="4191" cy="37946.1" r="433.071" /> 
</g>
<g style="fill:#000000; fill-opacity:0.0; 
stroke:#000000; stroke-width:39.3701; stroke-opacity:1; 
stroke-linecap:round; stroke-linejoin:round;">
<path d="M59123 29955
L59123 29175
" />
<path d="M59123 34687
L59123 34392
" />
<path d="M64634 34687
L59123 34687
" />
<path d="M64634 34392
L64634 34687
" />
<path d="M58541 35095
L58537 35135
" />
<path d="M58537 35135
L58521 35180
" />
<path d="M58521 35180
L58496 35220
" />
<path d="M58496 35220
L58462 35253
" />
<path d="M58462 35253
L58420 35276
" />
<path d="M58420 35276
L58374 35290
" />
<path d="M58374 35290
L58344 35292
" />
<path d="M58541 29380
L58541 29955
" />
<path d="M58442 29282
L58485 29292
" />
<path d="M58485 29292
L58518 29318
" />
<path d="M58518 29318
L58538 29356
" />
<path d="M58538 29356
L58541 29380
" />
<path d="M55857 35292
L55818 35288
" />
<path d="M55818 35288
L55772 35272
" />
<path d="M55772 35272
L55732 35247
" />
<path d="M55732 35247
L55700 35213
" />
<path d="M55700 35213
L55676 35172
" />
<path d="M55676 35172
L55663 35125
" />
<path d="M55663 35125
L55661 35095
" />
<path d="M58344 35292
L55857 35292
" />
<path d="M68092 29380
L68092 30904
" />
<path d="M65208 29380
L65218 29338
" />
<path d="M65218 29338
L65244 29305
" />
<path d="M65244 29305
L65282 29285
" />
<path d="M65282 29285
L65307 29282
" />
<path d="M55332 32829
L55332 30904
" />
<path d="M55661 32829
L55332 32829
" />
<path d="M55661 35095
L55661 32829
" />
<path d="M58541 34392
L58541 35095
" />
<path d="M59123 34392
L58541 34392
" />
<path d="M65208 29955
L65208 29380
" />
<path d="M64634 29955
L65208 29955
" />
<path d="M59123 29175
L64634 29175
" />
<path d="M64634 29175
L64634 29955
" />
<path d="M68092 32829
L68092 35095
" />
<path d="M68421 32829
L68092 32829
" />
<path d="M68421 30904
L68421 32829
" />
<path d="M68092 30904
L68421 30904
" />
<path d="M65208 34392
L64634 34392
" />
<path d="M55661 30904
L55661 29380
" />
<path d="M55332 30904
L55661 30904
" />
<path d="M68092 35095
L68088 35135
" />
<path d="M68088 35135
L68073 35180
" />
<path d="M68073 35180
L68047 35220
" />
<path d="M68047 35220
L68013 35253
" />
<path d="M68013 35253
L67972 35276
" />
<path d="M67972 35276
L67925 35290
" />
<path d="M67925 35290
L67895 35292
" />
<path d="M65208 35095
L65208 34392
" />
<path d="M65405 35292
L65366 35288
" />
<path d="M65366 35288
L65320 35272
" />
<path d="M65320 35272
L65280 35247
" />
<path d="M65280 35247
L65248 35213
" />
<path d="M65248 35213
L65224 35172
" />
<path d="M65224 35172
L65211 35125
" />
<path d="M65211 35125
L65208 35095
" />
<path d="M67895 35292
L65405 35292
" />
<path d="M55759 29282
L58442 29282
" />
<path d="M55661 29380
L55670 29338
" />
<path d="M55670 29338
L55696 29305
" />
<path d="M55696 29305
L55734 29285
" />
<path d="M55734 29285
L55759 29282
" />
<path d="M65307 29282
L67994 29282
" />
<path d="M67994 29282
L68037 29292
" />
<path d="M68037 29292
L68070 29318
" />
<path d="M68070 29318
L68089 29356
" />
<path d="M68089 29356
L68092 29380
" />
<path d="M58541 29955
L59123 29955
" />
</g>
<g style="fill:#000000; fill-opacity:0.0; 
stroke:#000000; stroke-width:59.0551; stroke-opacity:1; 
stroke-linecap:round; stroke-linejoin:round;">
<path d="M115102 2894
L115104 2894
" />
</g>
<g style="fill:#000000; fill-opacity:0.0; 
stroke:#000000; stroke-width:78.7402; stroke-opacity:1; 
stroke-linecap:round; stroke-linejoin:round;">
<path d="M114269 39232.6 A825.788 825.788 0.0 0 0 115102 38401.3" />
<path d="M115104 2894
L115102 38401
" />
<path d="M114303 2043
L3750 2035
" />
<path d="M2918 38401
L2922 2877
" />
<path d="M115102 2894.11 A833.249 833.249 0.0 0 0 114303 2045" />
<path d="M3750.89 2035.24 A842.555 842.555 0.0 0 0 2922.49 2877.68" />
</g>
<g style="fill:#000000; fill-opacity:0.0; 
stroke:#000000; stroke-width:47.2441; stroke-opacity:1; 
stroke-linecap:round; stroke-linejoin:round;">
<path d="M12743 6676
L7232 6676
" />
<path d="M12743 12187
L12743 6676
" />
<path d="M7232 12187
L12743 12187
" />
<path d="M7232 6676
L7232 12187
" />
<path d="M17882 6676
L17882 12187
" />
<path d="M17882 12187
L23393 12187
" />
<path d="M23393 12187
L23393 6676
" />
<path d="M23393 6676
L17882 6676
" />
<path d="M25382 6676
L25382 12187
" />
<path d="M25382 12187
L30893 12187
" />
<path d="M30893 12187
L30893 6676
" />
<path d="M30893 6676
L25382 6676
" />
<path d="M38393 6676
L32882 6676
" />
<path d="M38393 12187
L38393 6676
" />
<path d="M32882 12187
L38393 12187
" />
<path d="M32882 6676
L32882 12187
" />
<path d="M40382 6676
L40382 12187
" />
<path d="M40382 12187
L45893 12187
" />
<path d="M45893 12187
L45893 6676
" />
<path d="M45893 6676
L40382 6676
" />
<path d="M53393 6676
L47882 6676
" />
<path d="M53393 12187
L53393 6676
" />
<path d="M47882 12187
L53393 12187
" />
<path d="M47882 6676
L47882 12187
" />
<path d="M55382 6676
L55382 12187
" />
<path d="M55382 12187
L60893 12187
" />
<path d="M60893 12187
L60893 6676
" />
<path d="M60893 6676
L55382 6676
" />
<path d="M68393 6676
L62882 6676
" />
<path d="M68393 12187
L68393 6676
" />
<path d="M62882 12187
L68393 12187
" />
<path d="M62882 6676
L62882 12187
" />
<path d="M70382 6676
L70382 12187
" />
<path d="M70382 12187
L75893 12187
" />
<path d="M75893 12187
L75893 6676
" />
<path d="M75893 6676
L70382 6676
" />
<path d="M83393 6676
L77882 6676
" />
<path d="M83393 12187
L83393 6676
" />
<path d="M77882 12187
L83393 12187
" />
<path d="M77882 6676
L77882 12187
" />
<path d="M85382 6676
L85382 12187
" />
<path d="M85382 12187
L90893 12187
" />
<path d="M90893 12187
L90893 6676
" />
<path d="M90893 6676
L85382 6676
" />
<path d="M98393 6676
L92882 6676
" />
<path d="M98393 12187
L98393 6676
" />
<path d="M92882 12187
L98393 12187
" />
<path d="M92882 6676
L92882 12187
" />
<path d="M100382 6676
L100382 12187
" />
<path d="M100382 12187
L105893 12187
" />
<path d="M105893 12187
L105893 6676
" />
<path d="M105893 6676
L100382 6676
" />
<path d="M12743 14176
L7232 14176
" />
<path d="M12743 19687
L12743 14176
" />
<path d="M7232 19687
L12743 19687
" />
<path d="M7232 14176
L7232 19687
" />
<path d="M23393 14176
L17882 14176
" />
<path d="M23393 19687
L23393 14176
" />
<path d="M17882 19687
L23393 19687
" />
<path d="M17882 14176
L17882 19687
" />
<path d="M25382 14176
L25382 19687
" />
<path d="M25382 19687
L30893 19687
" />
<path d="M30893 19687
L30893 14176
" />
<path d="M30893 14176
L25382 14176
" />
<path d="M38393 14176
L32882 14176
" />
<path d="M38393 19687
L38393 14176
" />
<path d="M32882 19687
L38393 19687
" />
<path d="M32882 14176
L32882 19687
" />
<path d="M40382 14176
L40382 19687
" />
<path d="M40382 19687
L45893 19687
" />
<path d="M45893 19687
L45893 14176
" />
<path d="M45893 14176
L40382 14176
" />
<path d="M47882 14176
L47882 19687
" />
<path d="M47882 19687
L53393 19687
" />
<path d="M53393 19687
L53393 14176
" />
<path d="M53393 14176
L47882 14176
" />
<path d="M55382 14176
L55382 19687
" />
<path d="M55382 19687
L60893 19687
" />
<path d="M60893 19687
L60893 14176
" />
<path d="M60893 14176
L55382 14176
" />
<path d="M68393 14176
L62882 14176
" />
<path d="M68393 19687
L68393 14176
" />
<path d="M62882 19687
L68393 19687
" />
<path d="M62882 14176
L62882 19687
" />
<path d="M70382 14176
L70382 19687
" />
<path d="M70382 19687
L75893 19687
" />
<path d="M75893 19687
L75893 14176
" />
<path d="M75893 14176
L70382 14176
" />
<path d="M83393 14176
L77882 14176
" />
<path d="M83393 19687
L83393 14176
" />
<path d="M77882 19687
L83393 19687
" />
<path d="M77882 14176
L77882 19687
" />
<path d="M85382 14176
L85382 19687
" />
<path d="M85382 19687
L90893 19687
" />
<path d="M90893 19687
L90893 14176
" />
<path d="M90893 14176
L85382 14176
" />
<path d="M98393 14176
L92882 14176
" />
<path d="M98393 19687
L98393 14176
" />
<path d="M92882 19687
L98393 19687
" />
<path d="M92882 14176
L92882 19687
" />
<path d="M100382 14176
L100382 19687
" />
<path d="M100382 19687
L105893 19687
" />
<path d="M105893 19687
L105893 14176
" />
<path d="M105893 14176
L100382 14176
" />
<path d="M12743 21676
L7232 21676
" />
<path d="M12743 27187
L12743 21676
" />
<path d="M7232 27187
L12743 27187
" />
<path d="M7232 21676
L7232 27187
" />
<path d="M17882 21676
L17882 27187
" />
<path d="M17882 27187
L23393 27187
" />
<path d="M23393 27187
L23393 21676
" />
<path d="M23393 21676
L17882 21676
" />
<path d="M25382 21676
L25382 27187
" />
<path d="M25382 27187
L30893 27187
" />
<path d="M30893 27187
L30893 21676
" />
<path d="M30893 21676
L25382 21676
" />
<path d="M38393 21676
L32882 21676
" />
<path d="M38393 27187
L38393 21676
" />
<path d="M32882 27187
L38393 27187
" />
<path d="M32882 21676
L32882 27187
" />
<path d="M45893 21676
L40382 21676
" />
<path d="M45893 27187
L45893 21676
" />
<path d="M40382 27187
L45893 27187
" />
<path d="M40382 21676
L40382 27187
" />
<path d="M53393 21676
L47882 21676
" />
<path d="M53393 27187
L53393 21676
" />
<path d="M47882 27187
L53393 27187
" />
<path d="M47882 21676
L47882 27187
" />
<path d="M60893 21676
L55382 21676
" />
<path d="M60893 27187
L60893 21676
" />
<path d="M55382 27187
L60893 27187
" />
<path d="M55382 21676
L55382 27187
" />
<path d="M62882 21676
L62882 27187
" />
<path d="M62882 27187
L68393 27187
" />
<path d="M68393 27187
L68393 21676
" />
<path d="M68393 21676
L62882 21676
" />
<path d="M75893 21676
L70382 21676
" />
<path d="M75893 27187
L75893 21676
" />
<path d="M70382 27187
L75893 27187
" />
<path d="M70382 21676
L70382 27187
" />
<path d="M77882 21676
L77882 27187
" />
<path d="M77882 27187
L83393 27187
" />
<path d="M83393 27187
L83393 21676
" />
<path d="M83393 21676
L77882 21676
" />
<path d="M90893 21676
L85382 21676
" />
<path d="M90893 27187
L90893 21676
" />
<path d="M85382 27187
L90893 27187
" />
<path d="M85382 21676
L85382 27187
" />
<path d="M98393 21676
L92882 21676
" />
<path d="M98393 27187
L98393 21676
" />
<path d="M92882 27187
L98393 27187
" />
<path d="M92882 21676
L92882 27187
" />
<path d="M105893 21676
L100382 21676
" />
<path d="M105893 27187
L105893 21676
" />
<path d="M100382 27187
L105893 27187
" />
<path d="M100382 21676
L100382 27187
" />
<path d="M7232 29176
L7232 34687
" />
<path d="M7232 34687
L12743 34687
" />
<path d="M12743 34687
L12743 29176
" />
<path d="M12743 29176
L7232 29176
" />
<path d="M23393 29176
L17882 29176
" />
<path d="M23393 34687
L23393 29176
" />
<path d="M17882 34687
L23393 34687
" />
<path d="M17882 29176
L17882 34687
" />
<path d="M25382 29176
L25382 34687
" />
<path d="M25382 34687
L30893 34687
" />
<path d="M30893 34687
L30893 29176
" />
<path d="M30893 29176
L25382 29176
" />
<path d="M32882 29176
L32882 34687
" />
<path d="M32882 34687
L38393 34687
" />
<path d="M38393 34687
L38393 29176
" />
<path d="M38393 29176
L32882 29176
" />
<path d="M45893 29176
L40382 29176
" />
<path d="M45893 34687
L45893 29176
" />
<path d="M40382 34687
L45893 34687
" />
<path d="M40382 29176
L40382 34687
" />
<path d="M47882 29176
L47882 34687
" />
<path d="M47882 34687
L53393 34687
" />
<path d="M53393 34687
L53393 29176
" />
<path d="M53393 29176
L47882 29176
" />
<path d="M70382 29176
L70382 34687
" />
<path d="M70382 34687
L75893 34687
" />
<path d="M75893 34687
L75893 29176
" />
<path d="M75893 29176
L70382 29176
" />
<path d="M83393 29176
L77882 29176
" />
<path d="M83393 34687
L83393 29176
" />
<path d="M77882 34687
L83393 34687
" />
<path d="M77882 29176
L77882 34687
" />
<path d="M85382 29176
L85382 34687
" />
<path d="M85382 34687
L90893 34687
" />
<path d="M90893 34687
L90893 29176
" />
<path d="M90893 29176
L85382 29176
" />
<path d="M92882 29176
L92882 34687
" />
<path d="M92882 34687
L98393 34687
" />
<path d="M98393 34687
L98393 29176
" />
<path d="M98393 29176
L92882 29176
" />
<path d="M100382 29176
L100382 34687
" />
<path d="M100382 34687
L105893 34687
" />
<path d="M105893 34687
L105893 29176
" />
<path d="M105893 29176
L100382 29176
" />
<g >
</g>
<g >
</g>
<g >
</g>
<g >
</g>
<g >
</g>
<g >
</g>
<g >
</g>
<g >
</g>
<g >
</g>
<g >
</g>
<g >
</g>
<g >
</g>
<g >
</g>
<g >
</g>
<g >
</g>
<g >
</g>
<g >
</g>
<g >
</g>
<g >
</g>
<g >
</g>
<g >
</g>
<g >
</g>
<g >
</g>
<g >
</g>
<g >
</g>
<g >
</g>
<g >
</g>
<g >
</g>
<g >
</g>
<g >
</g>
<g >
</g>
<g >
</g>
<g >
</g>
<g >
</g>
<g >
</g>
<g >
</g>
<g >
</g>
<g >
</g>
<g >
</g>
<g >
</g>
<g >
</g>
<g >
</g>
<g >
</g>
<g >
</g>
<g >
</g>
<g >
</g>
<g >
</g>
<g >
</g>
<g >
</g>
<g >
</g>
<g >
</g>
</g> 
</svg>
