<?xml version="1.0" standalone="no"?>
 <!DOCTYPE svg PUBLIC "-//W3C//DTD SVG 1.1//EN" 
 "http://www.w3.org/Graphics/SVG/1.1/DTD/svg11.dtd"> 
<svg
  xmlns:svg="http://www.w3.org/2000/svg"
  xmlns="http://www.w3.org/2000/svg"
  xmlns:xlink="http://www.w3.org/1999/xlink"
  version="1.1"
  width="28.514040cm" height="9.466580cm" viewBox="0 0 285140400 94665800">
<title>SVG Picture created as gpk60_44u1re-Edge_Cuts.svg date 2022/01/25 15:28:59 </title>
  <desc>Picture generated by PCBNEW </desc>
<g style="fill:#000000; fill-opacity:1.000000;stroke:#000000; stroke-opacity:1.000000;
stroke-linecap:round; stroke-linejoin:round;"
 transform="translate(0 0) scale(1 1)">
</g>
<g style="fill:#000000; fill-opacity:0.0; 
stroke:#000000; stroke-width:0.000000; stroke-opacity:1; 
stroke-linecap:round; stroke-linejoin:round;">
</g>
<g style="fill:#A0A0A0; fill-opacity:0.0; 
stroke:#A0A0A0; stroke-width:0.000000; stroke-opacity:1; 
stroke-linecap:round; stroke-linejoin:round;">
</g>
<g style="fill:#A0A0A0; fill-opacity:0.0; 
stroke:#A0A0A0; stroke-width:200000.000000; stroke-opacity:1; 
stroke-linecap:round; stroke-linejoin:round;">
<path d="M2214183.998118 99999.887981 A2140089.000000 2140089.000000 0.0 0 0 110040.000000 2239788.000000" />
<path d="M100079.966174 92469747.999705 A2099713.000000 2099713.000000 0.0 0 0 2158573.001369 94587382.930163" />
<path d="M282929953.000405 94581323.955003 A2097500.000000 2097500.000000 0.0 0 0 285046293.869150 92469848.000877" />
<path d="M285046208.283234 2281527.005629 A2121014.000000 2121014.000000 0.0 0 0 283016533.017236 120319.598274" />
<path d="M2158573 94587383
L282929953 94581324
" />
</g>
<g style="fill:#A0A0A0; fill-opacity:0.0; 
stroke:#A0A0A0; stroke-width:150000.000000; stroke-opacity:1; 
stroke-linecap:round; stroke-linejoin:round;">
<circle cx="3380493.000000" cy="3375983.000000" r="1100000.000000" /> 
</g>
<g style="fill:#A0A0A0; fill-opacity:0.0; 
stroke:#A0A0A0; stroke-width:200000.000000; stroke-opacity:1; 
stroke-linecap:round; stroke-linejoin:round;">
<path d="M283016533 120320
L2214184 100000
" />
<path d="M100080 92469748
L110040 2239788
" />
</g>
<g style="fill:#A0A0A0; fill-opacity:0.0; 
stroke:#A0A0A0; stroke-width:150000.000000; stroke-opacity:1; 
stroke-linecap:round; stroke-linejoin:round;">
<circle cx="3380493.000000" cy="91310783.000000" r="1100000.000000" /> 
<path d="M285046208 2281527
L285051374 2282414
" />
<circle cx="281728753.000000" cy="91318403.000000" r="1100000.000000" /> 
<circle cx="281782093.000000" cy="3375983.000000" r="1100000.000000" /> 
</g>
<g style="fill:#A0A0A0; fill-opacity:0.0; 
stroke:#A0A0A0; stroke-width:200000.000000; stroke-opacity:1; 
stroke-linecap:round; stroke-linejoin:round;">
<path d="M285051374 2282414
L285046294 92469848
" />
</g>
<g style="fill:#A0A0A0; fill-opacity:0.0; 
stroke:#A0A0A0; stroke-width:120000.000000; stroke-opacity:1; 
stroke-linecap:round; stroke-linejoin:round;">
<path d="M27438656 41873755
L41225965 39442680
" />
<path d="M38794890 25655371
L25007581 28086446
" />
<path d="M25007581 28086446
L27438656 41873755
" />
<path d="M41225965 39442680
L38794890 25655371
" />
<path d="M38382065 78636980
L35950990 64849671
" />
<path d="M22163681 67280746
L24594756 81068055
" />
<path d="M24594756 81068055
L38382065 78636980
" />
<path d="M35950990 64849671
L22163681 67280746
" />
<path d="M169130773 69799263
L183130773 69799263
" />
<path d="M183130773 55799263
L169130773 55799263
" />
<path d="M169130773 55799263
L169130773 69799263
" />
<path d="M183130773 69799263
L183130773 55799263
" />
<path d="M57826573 64149463
L43826573 64149463
" />
<path d="M43826573 64149463
L43826573 78149463
" />
<path d="M43826573 78149463
L57826573 78149463
" />
<path d="M57826573 78149463
L57826573 64149463
" />
<path d="M28884756 22265655
L42672065 19834580
" />
<path d="M40240990 6047271
L26453681 8478346
" />
<path d="M42672065 19834580
L40240990 6047271
" />
<path d="M26453681 8478346
L28884756 22265655
" />
<path d="M20034290 28963371
L6246981 31394446
" />
<path d="M22465365 42750680
L20034290 28963371
" />
<path d="M6246981 31394446
L8678056 45181755
" />
<path d="M8678056 45181755
L22465365 42750680
" />
<path d="M241622673 63969963
L227622673 63969963
" />
<path d="M227622673 77969963
L241622673 77969963
" />
<path d="M227622673 63969963
L227622673 77969963
" />
<path d="M241622673 77969963
L241622673 63969963
" />
<path d="M188180773 51989263
L188180773 65989263
" />
<path d="M188180773 65989263
L202180773 65989263
" />
<path d="M202180773 65989263
L202180773 51989263
" />
<path d="M202180773 51989263
L188180773 51989263
" />
<path d="M238803273 38805563
L238803273 24805563
" />
<path d="M224803273 24805563
L224803273 38805563
" />
<path d="M238803273 24805563
L224803273 24805563
" />
<path d="M224803273 38805563
L238803273 38805563
" />
<path d="M204233573 22961663
L218233573 22961663
" />
<path d="M218233573 22961663
L218233573 8961663
" />
<path d="M204233573 8961663
L204233573 22961663
" />
<path d="M218233573 8961663
L204233573 8961663
" />
<path d="M207230773 62179263
L221230773 62179263
" />
<path d="M221230773 62179263
L221230773 48179263
" />
<path d="M207230773 48179263
L207230773 62179263
" />
<path d="M221230773 48179263
L207230773 48179263
" />
<path d="M21003665 62357380
L18572590 48570071
" />
<path d="M18572590 48570071
L4785281 51001146
" />
<path d="M7216356 64788455
L21003665 62357380
" />
<path d="M4785281 51001146
L7216356 64788455
" />
<path d="M203522673 85589963
L203522673 71589963
" />
<path d="M203522673 71589963
L189522673 71589963
" />
<path d="M189522673 71589963
L189522673 85589963
" />
<path d="M189522673 85589963
L203522673 85589963
" />
<path d="M219753273 42615563
L219753273 28615563
" />
<path d="M205753273 28615563
L205753273 42615563
" />
<path d="M219753273 28615563
L205753273 28615563
" />
<path d="M205753273 42615563
L219753273 42615563
" />
<path d="M247098681 78453780
L260885990 80884855
" />
<path d="M249529756 64666471
L247098681 78453780
" />
<path d="M260885990 80884855
L263317065 67097546
" />
<path d="M263317065 67097546
L249529756 64666471
" />
<path d="M62165673 19331163
L62165673 5331163
" />
<path d="M48165673 19331163
L62165673 19331163
" />
<path d="M62165673 5331163
L48165673 5331163
" />
<path d="M48165673 5331163
L48165673 19331163
" />
<path d="M95926573 71769463
L81926573 71769463
" />
<path d="M81926573 71769463
L81926573 85769463
" />
<path d="M81926573 85769463
L95926573 85769463
" />
<path d="M95926573 85769463
L95926573 71769463
" />
<path d="M150154653 68580483
L150152113 82183963
" />
<path d="M135748533 82183963
L135751073 68580483
" />
<path d="M150154653 68580483
L135751073 68580483
" />
<path d="M135748533 82183963
L150152113 82183963
" />
<path d="M81215673 9141163
L67215673 9141163
" />
<path d="M81215673 23141163
L81215673 9141163
" />
<path d="M67215673 9141163
L67215673 23141163
" />
<path d="M67215673 23141163
L81215673 23141163
" />
<path d="M60645973 24985063
L46645973 24985063
" />
<path d="M46645973 24985063
L46645973 38985063
" />
<path d="M60645973 38985063
L60645973 24985063
" />
<path d="M46645973 38985063
L60645973 38985063
" />
<path d="M226280773 58369263
L240280773 58369263
" />
<path d="M240280773 44369263
L226280773 44369263
" />
<path d="M240280773 58369263
L240280773 44369263
" />
<path d="M226280773 44369263
L226280773 58369263
" />
<path d="M222572673 67779963
L208572673 67779963
" />
<path d="M208572673 67779963
L208572673 81779963
" />
<path d="M208572673 81779963
L222572673 81779963
" />
<path d="M222572673 81779963
L222572673 67779963
" />
<path d="M19621465 81944980
L17190390 68157671
" />
<path d="M5834156 84376055
L19621465 81944980
" />
<path d="M17190390 68157671
L3403081 70588746
" />
<path d="M3403081 70588746
L5834156 84376055
" />
<path d="M83268473 52168763
L83268473 66168763
" />
<path d="M97268473 66168763
L97268473 52168763
" />
<path d="M97268473 52168763
L83268473 52168763
" />
<path d="M83268473 66168763
L97268473 66168763
" />
<path d="M45168473 44548763
L45168473 58548763
" />
<path d="M59168473 58548763
L59168473 44548763
" />
<path d="M45168473 58548763
L59168473 58548763
" />
<path d="M59168473 44548763
L45168473 44548763
" />
<path d="M248147656 45078871
L245716581 58866180
" />
<path d="M245716581 58866180
L259503890 61297255
" />
<path d="M261934965 47509946
L248147656 45078871
" />
<path d="M259503890 61297255
L261934965 47509946
" />
<path d="M100976573 75579463
L100976573 89579463
" />
<path d="M100976573 89579463
L114976573 89579463
" />
<path d="M114976573 89579463
L114976573 75579463
" />
<path d="M114976573 75579463
L100976573 75579463
" />
<path d="M76876573 67959463
L62876573 67959463
" />
<path d="M62876573 81959463
L76876573 81959463
" />
<path d="M62876573 67959463
L62876573 81959463
" />
<path d="M76876573 81959463
L76876573 67959463
" />
<path d="M279233765 31211246
L265446456 28780171
" />
<path d="M265446456 28780171
L263015381 42567480
" />
<path d="M276802690 44998555
L279233765 31211246
" />
<path d="M263015381 42567480
L276802690 44998555
" />
<path d="M100265673 12951163
L86265673 12951163
" />
<path d="M86265673 26951163
L100265673 26951163
" />
<path d="M100265673 26951163
L100265673 12951163
" />
<path d="M86265673 12951163
L86265673 26951163
" />
<path d="M7693081 11786346
L10124156 25573655
" />
<path d="M21480390 9355271
L7693081 11786346
" />
<path d="M10124156 25573655
L23911465 23142580
" />
<path d="M23911465 23142580
L21480390 9355271
" />
<path d="M65695973 42795063
L79695973 42795063
" />
<path d="M79695973 28795063
L65695973 28795063
" />
<path d="M65695973 28795063
L65695973 42795063
" />
<path d="M79695973 42795063
L79695973 28795063
" />
<path d="M265859281 81761780
L279646590 84192855
" />
<path d="M279646590 84192855
L282077665 70405546
" />
<path d="M268290356 67974471
L265859281 81761780
" />
<path d="M282077665 70405546
L268290356 67974471
" />
<path d="M170472673 75399963
L170472673 89399963
" />
<path d="M170472673 89399963
L184472673 89399963
" />
<path d="M184472673 89399963
L184472673 75399963
" />
<path d="M184472673 75399963
L170472673 75399963
" />
<path d="M261569281 22959380
L275356590 25390455
" />
<path d="M264000356 9172071
L261569281 22959380
" />
<path d="M275356590 25390455
L277787665 11603146
" />
<path d="M277787665 11603146
L264000356 9172071
" />
<path d="M23545881 47693146
L25976956 61480455
" />
<path d="M37333190 45262071
L23545881 47693146
" />
<path d="M39764265 59049380
L37333190 45262071
" />
<path d="M25976956 61480455
L39764265 59049380
" />
<path d="M256595990 22082455
L259027065 8295146
" />
<path d="M242808681 19651380
L256595990 22082455
" />
<path d="M259027065 8295146
L245239756 5864071
" />
<path d="M245239756 5864071
L242808681 19651380
" />
<path d="M185183573 26771663
L199183573 26771663
" />
<path d="M185183573 12771663
L185183573 26771663
" />
<path d="M199183573 12771663
L185183573 12771663
" />
<path d="M199183573 26771663
L199183573 12771663
" />
<path d="M200703273 46425563
L200703273 32425563
" />
<path d="M200703273 32425563
L186703273 32425563
" />
<path d="M186703273 32425563
L186703273 46425563
" />
<path d="M186703273 46425563
L200703273 46425563
" />
<path d="M64218473 48358763
L64218473 62358763
" />
<path d="M78218473 48358763
L64218473 48358763
" />
<path d="M64218473 62358763
L78218473 62358763
" />
<path d="M78218473 62358763
L78218473 48358763
" />
<path d="M278264490 64605255
L280695565 50817946
" />
<path d="M266908256 48386871
L264477181 62174180
" />
<path d="M264477181 62174180
L278264490 64605255
" />
<path d="M280695565 50817946
L266908256 48386871
" />
<path d="M84745973 32605063
L84745973 46605063
" />
<path d="M84745973 46605063
L98745973 46605063
" />
<path d="M98745973 46605063
L98745973 32605063
" />
<path d="M98745973 32605063
L84745973 32605063
" />
<path d="M246685856 25472171
L244254781 39259480
" />
<path d="M244254781 39259480
L258042090 41690555
" />
<path d="M260473165 27903246
L246685856 25472171
" />
<path d="M258042090 41690555
L260473165 27903246
" />
<path d="M237283573 5151663
L223283573 5151663
" />
<path d="M223283573 5151663
L223283573 19151663
" />
<path d="M237283573 19151663
L237283573 5151663
" />
<path d="M223283573 19151663
L237283573 19151663
" />
<path d="M102318473 55978763
L102318473 69978763
" />
<path d="M116318473 69978763
L116318473 55978763
" />
<path d="M102318473 69978763
L116318473 69978763
" />
<path d="M116318473 55978763
L102318473 55978763
" />
<g >
</g>
<g >
</g>
<g >
</g>
<g >
</g>
<g >
</g>
<g >
</g>
<g >
</g>
<g >
</g>
<g >
</g>
<g >
</g>
<g >
</g>
<g >
</g>
<g >
</g>
<g >
</g>
<g >
</g>
<g >
</g>
<g >
</g>
<g >
</g>
<g >
</g>
<g >
</g>
<g >
</g>
<g >
</g>
<g >
</g>
<g >
</g>
<g >
</g>
<g >
</g>
<g >
</g>
<g >
</g>
<g >
</g>
<g >
</g>
<g >
</g>
<g >
</g>
<g >
</g>
<g >
</g>
<g >
</g>
<g >
</g>
<g >
</g>
<g >
</g>
<g >
</g>
<g >
</g>
<g >
</g>
<g >
</g>
<g >
</g>
<g >
</g>
<g >
</g>
<g >
</g>
<g >
</g>
<g >
</g>
</g> 
</svg>
