<?xml version="1.0" standalone="no"?>
 <!DOCTYPE svg PUBLIC "-//W3C//DTD SVG 1.1//EN" 
 "http://www.w3.org/Graphics/SVG/1.1/DTD/svg11.dtd"> 
<svg
  xmlns:svg="http://www.w3.org/2000/svg"
  xmlns="http://www.w3.org/2000/svg"
  xmlns:xlink="http://www.w3.org/1999/xlink"
  version="1.1"
  width="30.378400cm" height="10.871200cm" viewBox="0 0 119600 42800">
<title>SVG Picture created as gpk60_51r-brd.svg date 2021/09/25 12:22:49 </title>
  <desc>Picture generated by PCBNEW </desc>
<g style="fill:#000000; fill-opacity:1;stroke:#000000; stroke-opacity:1;
stroke-linecap:round; stroke-linejoin:round;"
 transform="translate(0 0) scale(1 1)">
</g>
<g style="fill:#000000; fill-opacity:0.0; 
stroke:#000000; stroke-width:-0.000393701; stroke-opacity:1; 
stroke-linecap:round; stroke-linejoin:round;">
</g>
<g style="fill:#000000; fill-opacity:0.0; 
stroke:#000000; stroke-width:39.3701; stroke-opacity:1; 
stroke-linecap:round; stroke-linejoin:round;">
<path d="M49607 29147
L49650 29157
" />
<path d="M49650 29157
L49683 29183
" />
<path d="M49683 29183
L49703 29221
" />
<path d="M49703 29221
L49706 29245
" />
<path d="M49706 29245
L49706 29820
" />
<path d="M49706 34960
L49702 35000
" />
<path d="M49702 35000
L49686 35045
" />
<path d="M49686 35045
L49661 35085
" />
<path d="M49661 35085
L49627 35118
" />
<path d="M49627 35118
L49585 35141
" />
<path d="M49585 35141
L49539 35155
" />
<path d="M49539 35155
L49509 35157
" />
<path d="M55799 34257
L55799 34552
" />
<path d="M55799 34552
L50288 34552
" />
<path d="M50288 34552
L50288 34257
" />
<path d="M50288 29820
L50288 29040
" />
<path d="M59586 30769
L59586 32694
" />
<path d="M59586 32694
L59257 32694
" />
<path d="M59257 32694
L59257 34960
" />
<path d="M55799 29040
L55799 29820
" />
<path d="M50288 29040
L55799 29040
" />
<path d="M49706 29820
L50288 29820
" />
<path d="M59159 29147
L59202 29157
" />
<path d="M59202 29157
L59235 29183
" />
<path d="M59235 29183
L59254 29221
" />
<path d="M59254 29221
L59257 29245
" />
<path d="M56472 29147
L59159 29147
" />
<path d="M46826 29245
L46835 29203
" />
<path d="M46835 29203
L46861 29170
" />
<path d="M46861 29170
L46899 29150
" />
<path d="M46899 29150
L46924 29147
" />
<path d="M46924 29147
L49607 29147
" />
<path d="M59060 35157
L56570 35157
" />
<path d="M56570 35157
L56531 35153
" />
<path d="M56531 35153
L56485 35137
" />
<path d="M56485 35137
L56445 35112
" />
<path d="M56445 35112
L56413 35078
" />
<path d="M56413 35078
L56389 35037
" />
<path d="M56389 35037
L56376 34990
" />
<path d="M56376 34990
L56373 34960
" />
<path d="M56373 34960
L56373 34257
" />
<path d="M59257 34960
L59253 35000
" />
<path d="M59253 35000
L59238 35045
" />
<path d="M59238 35045
L59212 35085
" />
<path d="M59212 35085
L59178 35118
" />
<path d="M59178 35118
L59137 35141
" />
<path d="M59137 35141
L59090 35155
" />
<path d="M59090 35155
L59060 35157
" />
<path d="M46497 30769
L46826 30769
" />
<path d="M46826 30769
L46826 29245
" />
<path d="M56373 34257
L55799 34257
" />
<path d="M59257 30769
L59586 30769
" />
<path d="M46497 32694
L46497 30769
" />
<path d="M56373 29245
L56383 29203
" />
<path d="M56383 29203
L56409 29170
" />
<path d="M56409 29170
L56447 29150
" />
<path d="M56447 29150
L56472 29147
" />
<path d="M59257 29245
L59257 30769
" />
<path d="M49509 35157
L47022 35157
" />
<path d="M47022 35157
L46983 35153
" />
<path d="M46983 35153
L46937 35137
" />
<path d="M46937 35137
L46897 35112
" />
<path d="M46897 35112
L46865 35078
" />
<path d="M46865 35078
L46841 35037
" />
<path d="M46841 35037
L46828 34990
" />
<path d="M46828 34990
L46826 34960
" />
<path d="M55799 29820
L56373 29820
" />
<path d="M56373 29820
L56373 29245
" />
<path d="M50288 34257
L49706 34257
" />
<path d="M49706 34257
L49706 34960
" />
<path d="M46826 34960
L46826 32694
" />
<path d="M46826 32694
L46497 32694
" />
</g>
<g style="fill:#000000; fill-opacity:0.0; 
stroke:#000000; stroke-width:78.7402; stroke-opacity:1; 
stroke-linecap:round; stroke-linejoin:round;">
<path d="M4368 39249
L114907 39246
" />
</g>
<g style="fill:#000000; fill-opacity:0.0; 
stroke:#000000; stroke-width:59.0551; stroke-opacity:1; 
stroke-linecap:round; stroke-linejoin:round;">
<circle cx="4829" cy="37960.1" r="433.071" /> 
</g>
<g style="fill:#000000; fill-opacity:0.0; 
stroke:#000000; stroke-width:78.7402; stroke-opacity:1; 
stroke-linecap:round; stroke-linejoin:round;">
<path d="M4389.89 2049.24 A842.555 842.555 0.0 0 0 3561.49 2891.68" />
<path d="M115741 2908.11 A833.249 833.249 0.0 0 0 114942 2059" />
<path d="M3557.57 38415.3 A826.659 826.659 0.0 0 0 4368 39249" />
<path d="M3557 38415
L3561 2891
" />
</g>
<g style="fill:#000000; fill-opacity:0.0; 
stroke:#000000; stroke-width:59.0551; stroke-opacity:1; 
stroke-linecap:round; stroke-linejoin:round;">
<circle cx="4849.07" cy="3339" r="433.071" /> 
</g>
<g style="fill:#000000; fill-opacity:0.0; 
stroke:#000000; stroke-width:78.7402; stroke-opacity:1; 
stroke-linecap:round; stroke-linejoin:round;">
<path d="M114942 2057
L4389 2049
" />
<path d="M115741 2908
L115741 38415
" />
<path d="M114908 39246.6 A825.788 825.788 0.0 0 0 115741 38415.3" />
</g>
<g style="fill:#000000; fill-opacity:0.0; 
stroke:#000000; stroke-width:59.0551; stroke-opacity:1; 
stroke-linecap:round; stroke-linejoin:round;">
<circle cx="114445" cy="37962" r="433.071" /> 
<circle cx="114456" cy="3341" r="433.071" /> 
</g>
<g style="fill:#000000; fill-opacity:0.0; 
stroke:#000000; stroke-width:47.2441; stroke-opacity:1; 
stroke-linecap:round; stroke-linejoin:round;">
<path d="M4352 6542
L4352 12053
" />
<path d="M4352 12053
L9863 12053
" />
<path d="M9863 12053
L9863 6542
" />
<path d="M9863 6542
L4352 6542
" />
<path d="M17363 6542
L11852 6542
" />
<path d="M17363 12053
L17363 6542
" />
<path d="M11852 12053
L17363 12053
" />
<path d="M11852 6542
L11852 12053
" />
<path d="M24863 6542
L19352 6542
" />
<path d="M24863 12053
L24863 6542
" />
<path d="M19352 12053
L24863 12053
" />
<path d="M19352 6542
L19352 12053
" />
<path d="M26852 6542
L26852 12053
" />
<path d="M26852 12053
L32363 12053
" />
<path d="M32363 12053
L32363 6542
" />
<path d="M32363 6542
L26852 6542
" />
<path d="M34352 6542
L34352 12053
" />
<path d="M34352 12053
L39863 12053
" />
<path d="M39863 12053
L39863 6542
" />
<path d="M39863 6542
L34352 6542
" />
<path d="M47363 6542
L41851 6542
" />
<path d="M47363 12053
L47363 6542
" />
<path d="M41851 12053
L47363 12053
" />
<path d="M41851 6542
L41851 12053
" />
<path d="M49351 6542
L49351 12053
" />
<path d="M49351 12053
L54863 12053
" />
<path d="M54863 12053
L54863 6542
" />
<path d="M54863 6542
L49351 6542
" />
<path d="M62363 6542
L56851 6542
" />
<path d="M62363 12053
L62363 6542
" />
<path d="M56851 12053
L62363 12053
" />
<path d="M56851 6542
L56851 12053
" />
<path d="M69863 6542
L64351 6542
" />
<path d="M69863 12053
L69863 6542
" />
<path d="M64351 12053
L69863 12053
" />
<path d="M64351 6542
L64351 12053
" />
<path d="M71851 6542
L71851 12053
" />
<path d="M71851 12053
L77363 12053
" />
<path d="M77363 12053
L77363 6542
" />
<path d="M77363 6542
L71851 6542
" />
<path d="M84863 6542
L79351 6542
" />
<path d="M84863 12053
L84863 6542
" />
<path d="M79351 12053
L84863 12053
" />
<path d="M79351 6542
L79351 12053
" />
<path d="M86851 6542
L86851 12053
" />
<path d="M86851 12053
L92363 12053
" />
<path d="M92363 12053
L92363 6542
" />
<path d="M92363 6542
L86851 6542
" />
<path d="M94351 6542
L94351 12053
" />
<path d="M94351 12053
L99863 12053
" />
<path d="M99863 12053
L99863 6542
" />
<path d="M99863 6542
L94351 6542
" />
<path d="M107363 6542
L101851 6542
" />
<path d="M107363 12053
L107363 6542
" />
<path d="M101851 12053
L107363 12053
" />
<path d="M101851 6542
L101851 12053
" />
<path d="M10801 14042
L5289 14042
" />
<path d="M10801 19553
L10801 14042
" />
<path d="M5289 19553
L10801 19553
" />
<path d="M5289 14042
L5289 19553
" />
<path d="M13727 14042
L13727 19553
" />
<path d="M13727 19553
L19238 19553
" />
<path d="M19238 19553
L19238 14042
" />
<path d="M19238 14042
L13727 14042
" />
<path d="M26738 14042
L21227 14042
" />
<path d="M26738 19553
L26738 14042
" />
<path d="M21227 19553
L26738 19553
" />
<path d="M21227 14042
L21227 19553
" />
<path d="M28727 14042
L28727 19553
" />
<path d="M28727 19553
L34238 19553
" />
<path d="M34238 19553
L34238 14042
" />
<path d="M34238 14042
L28727 14042
" />
<path d="M41738 14042
L36227 14042
" />
<path d="M41738 19553
L41738 14042
" />
<path d="M36227 19553
L41738 19553
" />
<path d="M36227 14042
L36227 19553
" />
<path d="M43727 14042
L43727 19553
" />
<path d="M43727 19553
L49238 19553
" />
<path d="M49238 19553
L49238 14042
" />
<path d="M49238 14042
L43727 14042
" />
<path d="M56738 14042
L51227 14042
" />
<path d="M56738 19553
L56738 14042
" />
<path d="M51227 19553
L56738 19553
" />
<path d="M51227 14042
L51227 19553
" />
<path d="M58727 14042
L58727 19553
" />
<path d="M58727 19553
L64238 19553
" />
<path d="M64238 19553
L64238 14042
" />
<path d="M64238 14042
L58727 14042
" />
<path d="M71738 14042
L66227 14042
" />
<path d="M71738 19553
L71738 14042
" />
<path d="M66227 19553
L71738 19553
" />
<path d="M66227 14042
L66227 19553
" />
<path d="M79238 14042
L73727 14042
" />
<path d="M79238 19553
L79238 14042
" />
<path d="M73727 19553
L79238 19553
" />
<path d="M73727 14042
L73727 19553
" />
<path d="M86738 14042
L81227 14042
" />
<path d="M86738 19553
L86738 14042
" />
<path d="M81227 19553
L86738 19553
" />
<path d="M81227 14042
L81227 19553
" />
<path d="M94238 14042
L88727 14042
" />
<path d="M94238 19553
L94238 14042
" />
<path d="M88727 19553
L94238 19553
" />
<path d="M88727 14042
L88727 19553
" />
<path d="M99039 14042
L99039 19553
" />
<path d="M99039 19553
L104551 19553
" />
<path d="M104551 19553
L104551 14042
" />
<path d="M104551 14042
L99039 14042
" />
<path d="M7164 21542
L7164 27054
" />
<path d="M7164 27054
L12676 27054
" />
<path d="M12676 27054
L12676 21542
" />
<path d="M12676 21542
L7164 21542
" />
<path d="M17477 21542
L17477 27054
" />
<path d="M17477 27054
L22988 27054
" />
<path d="M22988 27054
L22988 21542
" />
<path d="M22988 21542
L17477 21542
" />
<path d="M24977 21542
L24977 27054
" />
<path d="M24977 27054
L30488 27054
" />
<path d="M30488 27054
L30488 21542
" />
<path d="M30488 21542
L24977 21542
" />
<path d="M37988 21542
L32477 21542
" />
<path d="M37988 27054
L37988 21542
" />
<path d="M32477 27054
L37988 27054
" />
<path d="M32477 21542
L32477 27054
" />
<path d="M45488 21542
L39977 21542
" />
<path d="M45488 27054
L45488 21542
" />
<path d="M39977 27054
L45488 27054
" />
<path d="M39977 21542
L39977 27054
" />
<path d="M47477 21542
L47477 27054
" />
<path d="M47477 27054
L52988 27054
" />
<path d="M52988 27054
L52988 21542
" />
<path d="M52988 21542
L47477 21542
" />
<path d="M54977 21542
L54977 27054
" />
<path d="M54977 27054
L60488 27054
" />
<path d="M60488 27054
L60488 21542
" />
<path d="M60488 21542
L54977 21542
" />
<path d="M67988 21542
L62477 21542
" />
<path d="M67988 27054
L67988 21542
" />
<path d="M62477 27054
L67988 27054
" />
<path d="M62477 21542
L62477 27054
" />
<path d="M69977 21542
L69977 27054
" />
<path d="M69977 27054
L75488 27054
" />
<path d="M75488 27054
L75488 21542
" />
<path d="M75488 21542
L69977 21542
" />
<path d="M82988 21542
L77477 21542
" />
<path d="M82988 27054
L82988 21542
" />
<path d="M77477 27054
L82988 27054
" />
<path d="M77477 21542
L77477 27054
" />
<path d="M84977 21542
L84977 27054
" />
<path d="M84977 27054
L90488 27054
" />
<path d="M90488 27054
L90488 21542
" />
<path d="M90488 21542
L84977 21542
" />
<path d="M98926 21542
L93414 21542
" />
<path d="M98926 27054
L98926 21542
" />
<path d="M93414 27054
L98926 27054
" />
<path d="M93414 21542
L93414 27054
" />
<path d="M101849 23427
L101849 28939
" />
<path d="M101849 28939
L107360 28939
" />
<path d="M107360 28939
L107360 23427
" />
<path d="M107360 23427
L101849 23427
" />
<path d="M10801 29042
L5289 29042
" />
<path d="M10801 34554
L10801 29042
" />
<path d="M5289 34554
L10801 34554
" />
<path d="M5289 29042
L5289 34554
" />
<path d="M14666 29042
L14666 34554
" />
<path d="M14666 34554
L20178 34554
" />
<path d="M20178 34554
L20178 29042
" />
<path d="M20178 29042
L14666 29042
" />
<path d="M24979 29042
L24979 34554
" />
<path d="M24979 34554
L30491 34554
" />
<path d="M30491 34554
L30491 29042
" />
<path d="M30491 29042
L24979 29042
" />
<path d="M40801 29042
L35289 29042
" />
<path d="M40801 34554
L40801 29042
" />
<path d="M35289 34554
L40801 34554
" />
<path d="M35289 29042
L35289 34554
" />
<path d="M70801 29042
L65289 29042
" />
<path d="M70801 34554
L70801 29042
" />
<path d="M65289 34554
L70801 34554
" />
<path d="M65289 29042
L65289 34554
" />
<path d="M74664 29042
L74664 34554
" />
<path d="M74664 34554
L80176 34554
" />
<path d="M80176 34554
L80176 29042
" />
<path d="M80176 29042
L74664 29042
" />
<path d="M89551 29042
L84039 29042
" />
<path d="M89551 34554
L89551 29042
" />
<path d="M84039 34554
L89551 34554
" />
<path d="M84039 29042
L84039 34554
" />
<path d="M94349 30927
L94349 36439
" />
<path d="M94349 36439
L99860 36439
" />
<path d="M99860 36439
L99860 30927
" />
<path d="M99860 30927
L94349 30927
" />
<path d="M107360 30927
L101849 30927
" />
<path d="M107360 36439
L107360 30927
" />
<path d="M101849 36439
L107360 36439
" />
<path d="M101849 30927
L101849 36439
" />
<path d="M109349 30927
L109349 36439
" />
<path d="M109349 36439
L114860 36439
" />
<path d="M114860 36439
L114860 30927
" />
<path d="M114860 30927
L109349 30927
" />
<g >
</g>
<g >
</g>
<g >
</g>
<g >
</g>
<g >
</g>
<g >
</g>
<g >
</g>
<g >
</g>
<g >
</g>
<g >
</g>
<g >
</g>
<g >
</g>
<g >
</g>
<g >
</g>
<g >
</g>
<g >
</g>
<g >
</g>
<g >
</g>
<g >
</g>
<g >
</g>
<g >
</g>
<g >
</g>
<g >
</g>
<g >
</g>
<g >
</g>
<g >
</g>
<g >
</g>
<g >
</g>
<g >
</g>
<g >
</g>
<g >
</g>
<g >
</g>
<g >
</g>
<g >
</g>
<g >
</g>
<g >
</g>
<g >
</g>
<g >
</g>
<g >
</g>
<g >
</g>
<g >
</g>
<g >
</g>
<g >
</g>
<g >
</g>
<g >
</g>
<g >
</g>
<g >
</g>
<g >
</g>
<g >
</g>
<g >
</g>
<g >
</g>
</g> 
</svg>
