<?xml version="1.0" standalone="no"?>
 <!DOCTYPE svg PUBLIC "-//W3C//DTD SVG 1.1//EN" 
 "http://www.w3.org/Graphics/SVG/1.1/DTD/svg11.dtd"> 
<svg
  xmlns:svg="http://www.w3.org/2000/svg"
  xmlns="http://www.w3.org/2000/svg"
  xmlns:xlink="http://www.w3.org/1999/xlink"
  version="1.1"
  width="30.378400cm" height="10.871200cm" viewBox="0 0 119600 42800">
<title>SVG Picture created as gpk60_46w-brd.svg date 2021/09/10 10:49:23 </title>
  <desc>Picture generated by PCBNEW </desc>
<g style="fill:#000000; fill-opacity:1;stroke:#000000; stroke-opacity:1;
stroke-linecap:round; stroke-linejoin:round;"
 transform="translate(0 0) scale(1 1)">
</g>
<g style="fill:#000000; fill-opacity:0.0; 
stroke:#000000; stroke-width:-0.000393701; stroke-opacity:1; 
stroke-linecap:round; stroke-linejoin:round;">
</g>
<g style="fill:#000000; fill-opacity:0.0; 
stroke:#000000; stroke-width:78.7402; stroke-opacity:1; 
stroke-linecap:round; stroke-linejoin:round;">
<path d="M2364 39244
L112903 39241
" />
</g>
<g style="fill:#000000; fill-opacity:0.0; 
stroke:#000000; stroke-width:59.0551; stroke-opacity:1; 
stroke-linecap:round; stroke-linejoin:round;">
<circle cx="2825" cy="37955.1" r="433.071" /> 
</g>
<g style="fill:#000000; fill-opacity:0.0; 
stroke:#000000; stroke-width:78.7402; stroke-opacity:1; 
stroke-linecap:round; stroke-linejoin:round;">
<path d="M2385.89 2044.24 A842.555 842.555 0.0 0 0 1557.49 2886.68" />
<path d="M113737 2903.11 A833.249 833.249 0.0 0 0 112938 2054" />
<path d="M1553.57 38410.3 A826.659 826.659 0.0 0 0 2364 39244" />
<path d="M1553 38410
L1557 2886
" />
</g>
<g style="fill:#000000; fill-opacity:0.0; 
stroke:#000000; stroke-width:59.0551; stroke-opacity:1; 
stroke-linecap:round; stroke-linejoin:round;">
<circle cx="2845.07" cy="3334" r="433.071" /> 
</g>
<g style="fill:#000000; fill-opacity:0.0; 
stroke:#000000; stroke-width:78.7402; stroke-opacity:1; 
stroke-linecap:round; stroke-linejoin:round;">
<path d="M112938 2052
L2385 2044
" />
<path d="M113739 2903
L113737 38410
" />
<path d="M112904 39241.6 A825.788 825.788 0.0 0 0 113737 38410.3" />
</g>
<g style="fill:#000000; fill-opacity:0.0; 
stroke:#000000; stroke-width:59.0551; stroke-opacity:1; 
stroke-linecap:round; stroke-linejoin:round;">
<path d="M113737 2903
L113739 2903
" />
<circle cx="112441" cy="37957" r="433.071" /> 
<circle cx="112452" cy="3336" r="433.071" /> 
</g>
<g style="fill:#000000; fill-opacity:0.0; 
stroke:#000000; stroke-width:47.2441; stroke-opacity:1; 
stroke-linecap:round; stroke-linejoin:round;">
<path d="M5561 8099
L5465 13610
" />
<path d="M5465 13610
L10976 13706
" />
<path d="M10976 13706
L11072 8195
" />
<path d="M11072 8195
L5561 8099
" />
<path d="M18528 7599
L13017 7599
" />
<path d="M18528 13110
L18528 7599
" />
<path d="M13017 13110
L18528 13110
" />
<path d="M13017 7599
L13017 13110
" />
<path d="M20575 6005
L20671 11516
" />
<path d="M20671 11516
L26182 11420
" />
<path d="M26182 11420
L26086 5909
" />
<path d="M26086 5909
L20575 6005
" />
<path d="M33527 3106
L28018 3298
" />
<path d="M33719 8615
L33527 3106
" />
<path d="M28210 8807
L33719 8615
" />
<path d="M28018 3298
L28210 8807
" />
<path d="M41117 5370
L35608 5562
" />
<path d="M41309 10879
L41117 5370
" />
<path d="M35800 11071
L41309 10879
" />
<path d="M35608 5562
L35800 11071
" />
<path d="M48990 8970
L43481 8778
" />
<path d="M48798 14479
L48990 8970
" />
<path d="M43289 14287
L48798 14479
" />
<path d="M43481 8778
L43289 14287
" />
<path d="M71697 8789
L66188 8981
" />
<path d="M71889 14298
L71697 8789
" />
<path d="M66380 14490
L71889 14298
" />
<path d="M66188 8981
L66380 14490
" />
<path d="M74061 5381
L73869 10890
" />
<path d="M73869 10890
L79378 11082
" />
<path d="M79378 11082
L79570 5573
" />
<path d="M79570 5573
L74061 5381
" />
<path d="M87160 3309
L81651 3117
" />
<path d="M86968 8818
L87160 3309
" />
<path d="M81459 8626
L86968 8818
" />
<path d="M81651 3117
L81459 8626
" />
<path d="M89092 5920
L88996 11431
" />
<path d="M88996 11431
L94507 11527
" />
<path d="M94507 11527
L94603 6016
" />
<path d="M94603 6016
L89092 5920
" />
<path d="M102161 7610
L96650 7610
" />
<path d="M102161 13121
L102161 7610
" />
<path d="M96650 13121
L102161 13121
" />
<path d="M96650 7610
L96650 13121
" />
<path d="M104106 8206
L104202 13717
" />
<path d="M104202 13717
L109713 13621
" />
<path d="M109713 13621
L109617 8110
" />
<path d="M109617 8110
L104106 8206
" />
<path d="M10753 16373
L5291 15634
" />
<path d="M10014 21835
L10753 16373
" />
<path d="M4552 21096
L10014 21835
" />
<path d="M5291 15634
L4552 21096
" />
<path d="M12911 15239
L12239 20710
" />
<path d="M12239 20710
L17710 21382
" />
<path d="M17710 21382
L18382 15911
" />
<path d="M18382 15911
L12911 15239
" />
<path d="M20592 13571
L20121 19063
" />
<path d="M20121 19063
L25613 19534
" />
<path d="M25613 19534
L26084 14042
" />
<path d="M26084 14042
L20592 13571
" />
<path d="M28219 10845
L28037 16354
" />
<path d="M28037 16354
L33546 16536
" />
<path d="M33546 16536
L33728 11027
" />
<path d="M33728 11027
L28219 10845
" />
<path d="M35778 13155
L35461 18657
" />
<path d="M35461 18657
L40963 18974
" />
<path d="M40963 18974
L41280 13472
" />
<path d="M41280 13472
L35778 13155
" />
<path d="M43256 16330
L42776 21821
" />
<path d="M42776 21821
L48267 22301
" />
<path d="M48267 22301
L48747 16810
" />
<path d="M48747 16810
L43256 16330
" />
<path d="M71922 16341
L66431 16821
" />
<path d="M72402 21832
L71922 16341
" />
<path d="M66911 22312
L72402 21832
" />
<path d="M66431 16821
L66911 22312
" />
<path d="M79400 13166
L73898 13483
" />
<path d="M79717 18668
L79400 13166
" />
<path d="M74215 18985
L79717 18668
" />
<path d="M73898 13483
L74215 18985
" />
<path d="M81450 11038
L81632 16547
" />
<path d="M81632 16547
L87141 16365
" />
<path d="M87141 16365
L86959 10856
" />
<path d="M86959 10856
L81450 11038
" />
<path d="M89094 14053
L89565 19545
" />
<path d="M89565 19545
L95057 19074
" />
<path d="M95057 19074
L94586 13582
" />
<path d="M94586 13582
L89094 14053
" />
<path d="M96796 15922
L97468 21393
" />
<path d="M97468 21393
L102939 20721
" />
<path d="M102939 20721
L102267 15250
" />
<path d="M102267 15250
L96796 15922
" />
<path d="M104425 16384
L105164 21846
" />
<path d="M105164 21846
L110626 21107
" />
<path d="M110626 21107
L109887 15645
" />
<path d="M109887 15645
L104425 16384
" />
<path d="M9481 24550
L4144 23170
" />
<path d="M8101 29887
L9481 24550
" />
<path d="M2764 28507
L8101 29887
" />
<path d="M4144 23170
L2764 28507
" />
<path d="M17318 23744
L11902 22721
" />
<path d="M16295 29160
L17318 23744
" />
<path d="M10879 28137
L16295 29160
" />
<path d="M11902 22721
L10879 28137
" />
<path d="M25254 22219
L19837 21205
" />
<path d="M24240 27636
L25254 22219
" />
<path d="M18823 26622
L24240 27636
" />
<path d="M19837 21205
L18823 26622
" />
<path d="M33300 19213
L27842 18446
" />
<path d="M32533 24671
L33300 19213
" />
<path d="M27075 23904
L32533 24671
" />
<path d="M27842 18446
L27075 23904
" />
<path d="M35242 20735
L34389 26181
" />
<path d="M34389 26181
L39835 27034
" />
<path d="M39835 27034
L40688 21588
" />
<path d="M40688 21588
L35242 20735
" />
<path d="M47903 24847
L42475 23890
" />
<path d="M46946 30275
L47903 24847
" />
<path d="M41518 29318
L46946 30275
" />
<path d="M42475 23890
L41518 29318
" />
<path d="M50209 23404
L49252 28832
" />
<path d="M49252 28832
L54680 29789
" />
<path d="M54680 29789
L55637 24361
" />
<path d="M55637 24361
L50209 23404
" />
<path d="M64969 23415
L59541 24372
" />
<path d="M65926 28843
L64969 23415
" />
<path d="M60498 29800
L65926 28843
" />
<path d="M59541 24372
L60498 29800
" />
<path d="M72703 23901
L67275 24858
" />
<path d="M73660 29329
L72703 23901
" />
<path d="M68232 30286
L73660 29329
" />
<path d="M67275 24858
L68232 30286
" />
<path d="M74490 21599
L75343 27045
" />
<path d="M75343 27045
L80789 26192
" />
<path d="M80789 26192
L79936 20746
" />
<path d="M79936 20746
L74490 21599
" />
<path d="M87336 18457
L81878 19224
" />
<path d="M88103 23915
L87336 18457
" />
<path d="M82645 24682
L88103 23915
" />
<path d="M81878 19224
L82645 24682
" />
<path d="M95341 21216
L89924 22230
" />
<path d="M96355 26633
L95341 21216
" />
<path d="M90938 27647
L96355 26633
" />
<path d="M89924 22230
L90938 27647
" />
<path d="M97860 23755
L98883 29171
" />
<path d="M98883 29171
L104299 28148
" />
<path d="M104299 28148
L103276 22732
" />
<path d="M103276 22732
L97860 23755
" />
<path d="M111034 23181
L105697 24561
" />
<path d="M112414 28518
L111034 23181
" />
<path d="M107077 29898
L112414 28518
" />
<path d="M105697 24561
L107077 29898
" />
<path d="M26682 25953
L25395 31313
" />
<path d="M25395 31313
L30755 32600
" />
<path d="M30755 32600
L32042 27240
" />
<path d="M32042 27240
L26682 25953
" />
<path d="M39314 29579
L33971 28227
" />
<path d="M37962 34922
L39314 29579
" />
<path d="M32619 33570
L37962 34922
" />
<path d="M33971 28227
L32619 33570
" />
<path d="M41067 31342
L39604 36656
" />
<path d="M39604 36656
L44918 38119
" />
<path d="M44918 38119
L46381 32805
" />
<path d="M46381 32805
L41067 31342
" />
<path d="M48961 30923
L47498 36237
" />
<path d="M47498 36237
L52812 37700
" />
<path d="M52812 37700
L54275 32386
" />
<path d="M54275 32386
L48961 30923
" />
<path d="M66217 30934
L60903 32397
" />
<path d="M67680 36248
L66217 30934
" />
<path d="M62366 37711
L67680 36248
" />
<path d="M60903 32397
L62366 37711
" />
<path d="M68797 32816
L70260 38130
" />
<path d="M70260 38130
L75574 36667
" />
<path d="M75574 36667
L74111 31353
" />
<path d="M74111 31353
L68797 32816
" />
<path d="M81207 28238
L75864 29590
" />
<path d="M82559 33581
L81207 28238
" />
<path d="M77216 34933
L82559 33581
" />
<path d="M75864 29590
L77216 34933
" />
<path d="M83136 27251
L84423 32611
" />
<path d="M84423 32611
L89783 31324
" />
<path d="M89783 31324
L88496 25964
" />
<path d="M88496 25964
L83136 27251
" />
<g >
</g>
<g >
</g>
<g >
</g>
<g >
</g>
<g >
</g>
<g >
</g>
<g >
</g>
<g >
</g>
<g >
</g>
<g >
</g>
<g >
</g>
<g >
</g>
<g >
</g>
<g >
</g>
<g >
</g>
<g >
</g>
<g >
</g>
<g >
</g>
<g >
</g>
<g >
</g>
<g >
</g>
<g >
</g>
<g >
</g>
<g >
</g>
<g >
</g>
<g >
</g>
<g >
</g>
<g >
</g>
<g >
</g>
<g >
</g>
<g >
</g>
<g >
</g>
<g >
</g>
<g >
</g>
<g >
</g>
<g >
</g>
<g >
</g>
<g >
</g>
<g >
</g>
<g >
</g>
<g >
</g>
<g >
</g>
<g >
</g>
<g >
</g>
<g >
</g>
<g >
</g>
<g >
</g>
</g> 
</svg>
