<?xml version="1.0" standalone="no"?>
 <!DOCTYPE svg PUBLIC "-//W3C//DTD SVG 1.1//EN" 
 "http://www.w3.org/Graphics/SVG/1.1/DTD/svg11.dtd"> 
<svg
  xmlns:svg="http://www.w3.org/2000/svg"
  xmlns="http://www.w3.org/2000/svg"
  xmlns:xlink="http://www.w3.org/1999/xlink"
  version="1.1"
  width="30.378400cm" height="10.871200cm" viewBox="0 0 119600 42800">
<title>SVG Picture created as gpk60_47gr1re-brd.svg date 2021/12/03 15:44:04 </title>
  <desc>Picture generated by PCBNEW </desc>
<g style="fill:#000000; fill-opacity:1;stroke:#000000; stroke-opacity:1;
stroke-linecap:round; stroke-linejoin:round;"
 transform="translate(0 0) scale(1 1)">
</g>
<g style="fill:#000000; fill-opacity:0.0; 
stroke:#000000; stroke-width:-0.000393701; stroke-opacity:1; 
stroke-linecap:round; stroke-linejoin:round;">
</g>
<g style="fill:#000000; fill-opacity:0.0; 
stroke:#000000; stroke-width:59.0551; stroke-opacity:1; 
stroke-linecap:round; stroke-linejoin:round;">
<circle cx="114411" cy="3360" r="433.071" /> 
<circle cx="114390" cy="37981" r="433.071" /> 
<path d="M115696 2927
L115698 2927
" />
</g>
<g style="fill:#000000; fill-opacity:0.0; 
stroke:#000000; stroke-width:78.7402; stroke-opacity:1; 
stroke-linecap:round; stroke-linejoin:round;">
<path d="M114863 39265.6 A825.788 825.788 0.0 0 0 115696 38434.3" />
<path d="M115698 2927
L115696 38434
" />
<path d="M4323 39268
L114862 39265
" />
<path d="M114897 2076
L4344 2068
" />
</g>
<g style="fill:#000000; fill-opacity:0.0; 
stroke:#000000; stroke-width:59.0551; stroke-opacity:1; 
stroke-linecap:round; stroke-linejoin:round;">
<circle cx="4804.07" cy="37978" r="433.071" /> 
<circle cx="4804.07" cy="3358" r="433.071" /> 
</g>
<g style="fill:#000000; fill-opacity:0.0; 
stroke:#000000; stroke-width:78.7402; stroke-opacity:1; 
stroke-linecap:round; stroke-linejoin:round;">
<path d="M3512 38434
L3516 2910
" />
<path d="M3512.57 38434.3 A826.659 826.659 0.0 0 0 4323 39268" />
<path d="M115696 2927.11 A833.249 833.249 0.0 0 0 114897 2078" />
<path d="M4344.89 2068.24 A842.555 842.555 0.0 0 0 3516.49 2910.68" />
</g>
<g style="fill:#000000; fill-opacity:0.0; 
stroke:#000000; stroke-width:47.2441; stroke-opacity:1; 
stroke-linecap:round; stroke-linejoin:round;">
<path d="M10274 4619
L4762 4619
" />
<path d="M10274 10130
L10274 4619
" />
<path d="M4762 10130
L10274 10130
" />
<path d="M4762 4619
L4762 10130
" />
<path d="M17898 4755
L12387 4658
" />
<path d="M17802 10266
L17898 4755
" />
<path d="M12291 10169
L17802 10266
" />
<path d="M12387 4658
L12291 10169
" />
<path d="M20444 4946
L19868 10427
" />
<path d="M19868 10427
L25349 11003
" />
<path d="M25349 11003
L25926 5522
" />
<path d="M25926 5522
L20444 4946
" />
<path d="M28446 5932
L27394 11343
" />
<path d="M27394 11343
L32804 12394
" />
<path d="M32804 12394
L33856 6984
" />
<path d="M33856 6984
L28446 5932
" />
<path d="M41322 8203
L35878 7341
" />
<path d="M40460 13647
L41322 8203
" />
<path d="M35016 12785
L40460 13647
" />
<path d="M35878 7341
L35016 12785
" />
<path d="M43383 8404
L42999 13902
" />
<path d="M42999 13902
L48497 14287
" />
<path d="M48497 14287
L48881 8788
" />
<path d="M48881 8788
L43383 8404
" />
<path d="M50951 8809
L51047 14320
" />
<path d="M51047 14320
L56558 14224
" />
<path d="M56558 14224
L56462 8713
" />
<path d="M56462 8713
L50951 8809
" />
<path d="M64010 7976
L58528 8552
" />
<path d="M64586 13458
L64010 7976
" />
<path d="M59104 14034
L64586 13458
" />
<path d="M58528 8552
L59104 14034
" />
<path d="M71463 6584
L66053 7636
" />
<path d="M72515 11995
L71463 6584
" />
<path d="M67104 13047
L72515 11995
" />
<path d="M66053 7636
L67104 13047
" />
<path d="M79198 5325
L73754 6187
" />
<path d="M80060 10769
L79198 5325
" />
<path d="M74616 11631
L80060 10769
" />
<path d="M73754 6187
L74616 11631
" />
<path d="M87321 4674
L81823 5059
" />
<path d="M87706 10173
L87321 4674
" />
<path d="M82207 10557
L87706 10173
" />
<path d="M81823 5059
L82207 10557
" />
<path d="M89843 4626
L89843 10137
" />
<path d="M89843 10137
L95355 10137
" />
<path d="M95355 10137
L95355 4626
" />
<path d="M95355 4626
L89843 4626
" />
<path d="M97343 4626
L97343 10137
" />
<path d="M97343 10137
L102855 10137
" />
<path d="M102855 10137
L102855 4626
" />
<path d="M102855 4626
L97343 4626
" />
<path d="M106718 4625
L106718 10136
" />
<path d="M106718 10136
L112230 10136
" />
<path d="M112230 10136
L112230 4625
" />
<path d="M112230 4625
L106718 4625
" />
<path d="M11211 12308
L5699 12308
" />
<path d="M11211 17819
L11211 12308
" />
<path d="M5699 17819
L11211 17819
" />
<path d="M5699 12308
L5699 17819
" />
<path d="M19902 12572
L14393 12380
" />
<path d="M19709 18081
L19902 12572
" />
<path d="M14201 17888
L19709 18081
" />
<path d="M14393 12380
L14201 17888
" />
<path d="M22440 12842
L21768 18313
" />
<path d="M21768 18313
L27239 18984
" />
<path d="M27239 18984
L27910 13514
" />
<path d="M27910 13514
L22440 12842
" />
<path d="M35806 15148
L30415 14002
" />
<path d="M34660 20540
L35806 15148
" />
<path d="M29269 19394
L34660 20540
" />
<path d="M30415 14002
L29269 19394
" />
<path d="M43307 16230
L37837 15558
" />
<path d="M42636 21700
L43307 16230
" />
<path d="M37165 21029
L42636 21700
" />
<path d="M37837 15558
L37165 21029
" />
<path d="M45365 16460
L45173 21969
" />
<path d="M45173 21969
L50681 22161
" />
<path d="M50681 22161
L50874 16653
" />
<path d="M50874 16653
L45365 16460
" />
<path d="M58448 16414
L52944 16702
" />
<path d="M58736 21918
L58448 16414
" />
<path d="M53232 22207
L58736 21918
" />
<path d="M52944 16702
L53232 22207
" />
<path d="M60515 16284
L61282 21742
" />
<path d="M61282 21742
L66740 20975
" />
<path d="M66740 20975
L65973 15517
" />
<path d="M65973 15517
L60515 16284
" />
<path d="M68021 15207
L69260 20577
" />
<path d="M69260 20577
L74631 19337
" />
<path d="M74631 19337
L73391 13967
" />
<path d="M73391 13967
L68021 15207
" />
<path d="M75913 13569
L76680 19027
" />
<path d="M76680 19027
L82138 18260
" />
<path d="M82138 18260
L81371 12802
" />
<path d="M81371 12802
L75913 13569
" />
<path d="M83918 12623
L84206 18128
" />
<path d="M84206 18128
L89710 17839
" />
<path d="M89710 17839
L89422 12335
" />
<path d="M89422 12335
L83918 12623
" />
<path d="M91718 12308
L91718 17819
" />
<path d="M91718 17819
L97229 17819
" />
<path d="M97229 17819
L97229 12308
" />
<path d="M97229 12308
L91718 12308
" />
<path d="M13086 20035
L7574 20035
" />
<path d="M13086 25547
L13086 20035
" />
<path d="M7574 25547
L13086 25547
" />
<path d="M7574 20035
L7574 25547
" />
<path d="M18469 20140
L17989 25631
" />
<path d="M17989 25631
L23479 26111
" />
<path d="M23479 26111
L23960 20620
" />
<path d="M23960 20620
L18469 20140
" />
<path d="M32009 22040
L26599 20989
" />
<path d="M30958 27451
L32009 22040
" />
<path d="M25547 26399
L30958 27451
" />
<path d="M26599 20989
L25547 26399
" />
<path d="M34052 22438
L32906 27830
" />
<path d="M32906 27830
L38298 28976
" />
<path d="M38298 28976
L39444 23584
" />
<path d="M39444 23584
L34052 22438
" />
<path d="M41504 23871
L41024 29362
" />
<path d="M41024 29362
L46515 29842
" />
<path d="M46515 29842
L46995 24351
" />
<path d="M46995 24351
L41504 23871
" />
<path d="M54575 24441
L49064 24441
" />
<path d="M54575 29952
L54575 24441
" />
<path d="M49064 29952
L54575 29952
" />
<path d="M49064 24441
L49064 29952
" />
<path d="M56644 24348
L57125 29838
" />
<path d="M57125 29838
L62615 29358
" />
<path d="M62615 29358
L62135 23867
" />
<path d="M62135 23867
L56644 24348
" />
<path d="M69617 22644
L64189 23602
" />
<path d="M70574 28073
L69617 22644
" />
<path d="M65146 29030
L70574 28073
" />
<path d="M64189 23602
L65146 29030
" />
<path d="M77004 21342
L71576 22299
" />
<path d="M77961 26770
L77004 21342
" />
<path d="M72533 27727
L77961 26770
" />
<path d="M71576 22299
L72533 27727
" />
<path d="M84654 20243
L79195 21010
" />
<path d="M85421 25701
L84654 20243
" />
<path d="M79963 26468
L85421 25701
" />
<path d="M79195 21010
L79963 26468
" />
<path d="M93037 20055
L87525 20055
" />
<path d="M93037 25567
L93037 20055
" />
<path d="M87525 25567
L93037 25567
" />
<path d="M87525 20055
L87525 25567
" />
<path d="M4756 27748
L4756 33260
" />
<path d="M4756 33260
L10268 33260
" />
<path d="M10268 33260
L10268 27748
" />
<path d="M10268 27748
L4756 27748
" />
<path d="M18818 27877
L13307 27781
" />
<path d="M18721 33388
L18818 27877
" />
<path d="M13210 33292
L18721 33388
" />
<path d="M13307 27781
L13210 33292
" />
<path d="M23673 28303
L22716 33731
" />
<path d="M22716 33731
L28144 34688
" />
<path d="M28144 34688
L29101 29260
" />
<path d="M29101 29260
L23673 28303
" />
<path d="M34089 30215
L32943 35607
" />
<path d="M32943 35607
L38335 36753
" />
<path d="M38335 36753
L39481 31361
" />
<path d="M39481 31361
L34089 30215
" />
<path d="M66121 31362
L67267 36753
" />
<path d="M67267 36753
L72658 35607
" />
<path d="M72658 35607
L71512 30216
" />
<path d="M71512 30216
L66121 31362
" />
<path d="M81873 28293
L76445 29250
" />
<path d="M82830 33721
L81873 28293
" />
<path d="M77402 34678
L82830 33721
" />
<path d="M76445 29250
L77402 34678
" />
<path d="M92359 27854
L86847 27854
" />
<path d="M92359 33365
L92359 27854
" />
<path d="M86847 33365
L92359 33365
" />
<path d="M86847 27854
L86847 33365
" />
<path d="M100597 12703
L103353 12703
" />
<path d="M100597 18530
L100597 12703
" />
<path d="M103353 18530
L100597 18530
" />
<path d="M103353 12703
L103353 18530
" />
<path d="M112723 12703
L109968 12703
" />
<path d="M112723 18530
L112723 12703
" />
<path d="M109968 18530
L112723 18530
" />
<path d="M109968 12703
L109968 18530
" />
</g>
<g style="fill:#000000; fill-opacity:0.0; 
stroke:#000000; stroke-width:59.0551; stroke-opacity:1; 
stroke-linecap:round; stroke-linejoin:round;">
<path d="M103885 12290
L109436 12290
" />
<path d="M109436 12290
L109436 17841
" />
<path d="M109436 17841
L103885 17841
" />
<path d="M103885 17841
L103885 12290
" />
<path d="M98755 25587
L98755 20036
" />
<path d="M104306 25587
L98755 25587
" />
<path d="M104306 20036
L104306 25587
" />
<path d="M98755 20036
L104306 20036
" />
</g>
<g style="fill:#000000; fill-opacity:0.0; 
stroke:#000000; stroke-width:47.2441; stroke-opacity:1; 
stroke-linecap:round; stroke-linejoin:round;">
<path d="M104838 20449
L104838 26276
" />
<path d="M104838 26276
L107594 26276
" />
<path d="M107594 26276
L107594 20449
" />
<path d="M107594 20449
L104838 20449
" />
<path d="M98223 20449
L98223 26276
" />
<path d="M98223 26276
L95468 26276
" />
<path d="M95468 26276
L95468 20449
" />
<path d="M95468 20449
L98223 20449
" />
</g>
<g style="fill:#000000; fill-opacity:0.0; 
stroke:#000000; stroke-width:59.0551; stroke-opacity:1; 
stroke-linecap:round; stroke-linejoin:round;">
<path d="M55574 31951
L55574 37502
" />
<path d="M50023 31951
L55574 31951
" />
<path d="M50023 37502
L50023 31951
" />
<path d="M55574 37502
L50023 37502
" />
</g>
<g style="fill:#000000; fill-opacity:0.0; 
stroke:#000000; stroke-width:47.2441; stroke-opacity:1; 
stroke-linecap:round; stroke-linejoin:round;">
<path d="M49492 37089
L49492 31262
" />
<path d="M49492 31262
L46736 31262
" />
<path d="M46736 31262
L46736 37089
" />
<path d="M46736 37089
L49492 37089
" />
<path d="M56106 37089
L56106 31262
" />
<path d="M56106 31262
L58862 31262
" />
<path d="M58862 31262
L58862 37089
" />
<path d="M58862 37089
L56106 37089
" />
<path d="M109775 20372
L109775 26043
" />
<path d="M109775 20372
L115131 20373
" />
<path d="M115131 26044
L115131 20373
" />
<path d="M115131 26044
L109775 26043
" />
<g >
</g>
<g >
</g>
<g >
</g>
<g >
</g>
<g >
</g>
<g >
</g>
<g >
</g>
<g >
</g>
<g >
</g>
<g >
</g>
<g >
</g>
<g >
</g>
<g >
</g>
<g >
</g>
<g >
</g>
<g >
</g>
<g >
</g>
<g >
</g>
<g >
</g>
<g >
</g>
<g >
</g>
<g >
</g>
<g >
</g>
<g >
</g>
<g >
</g>
<g >
</g>
<g >
</g>
<g >
</g>
<g >
</g>
<g >
</g>
<g >
</g>
<g >
</g>
<g >
</g>
<g >
</g>
<g >
</g>
<g >
</g>
<g >
</g>
<g >
</g>
<g >
</g>
<g >
</g>
<g >
</g>
<g >
</g>
<g >
</g>
<g >
</g>
<g >
</g>
<g >
</g>
<g >
</g>
<g >
</g>
<g >
</g>
</g> 
</svg>
