<?xml version="1.0" standalone="no"?>
 <!DOCTYPE svg PUBLIC "-//W3C//DTD SVG 1.1//EN" 
 "http://www.w3.org/Graphics/SVG/1.1/DTD/svg11.dtd"> 
<svg
  xmlns:svg="http://www.w3.org/2000/svg"
  xmlns="http://www.w3.org/2000/svg"
  xmlns:xlink="http://www.w3.org/1999/xlink"
  version="1.1"
  width="30.378400cm" height="10.871200cm" viewBox="0 0 119600 42800">
<title>SVG Picture created as gpk60_45c-brd.svg date 2021/09/10 10:47:32 </title>
  <desc>Picture generated by PCBNEW </desc>
<g style="fill:#000000; fill-opacity:1;stroke:#000000; stroke-opacity:1;
stroke-linecap:round; stroke-linejoin:round;"
 transform="translate(0 0) scale(1 1)">
</g>
<g style="fill:#000000; fill-opacity:0.0; 
stroke:#000000; stroke-width:-0.000393701; stroke-opacity:1; 
stroke-linecap:round; stroke-linejoin:round;">
</g>
<g style="fill:#000000; fill-opacity:0.0; 
stroke:#000000; stroke-width:78.7402; stroke-opacity:1; 
stroke-linecap:round; stroke-linejoin:round;">
<path d="M115645 3159
L115643 38666
" />
<path d="M4291.89 2300.24 A842.555 842.555 0.0 0 0 3463.49 3142.68" />
<path d="M115643 3159.11 A833.249 833.249 0.0 0 0 114844 2310" />
<path d="M114810 39497.6 A825.788 825.788 0.0 0 0 115643 38666.3" />
</g>
<g style="fill:#000000; fill-opacity:0.0; 
stroke:#000000; stroke-width:59.0551; stroke-opacity:1; 
stroke-linecap:round; stroke-linejoin:round;">
<path d="M115643 3159
L115645 3159
" />
</g>
<g style="fill:#000000; fill-opacity:0.0; 
stroke:#000000; stroke-width:78.7402; stroke-opacity:1; 
stroke-linecap:round; stroke-linejoin:round;">
<path d="M4270 39500
L114809 39497
" />
</g>
<g style="fill:#000000; fill-opacity:0.0; 
stroke:#000000; stroke-width:59.0551; stroke-opacity:1; 
stroke-linecap:round; stroke-linejoin:round;">
<circle cx="114358" cy="3592" r="433.071" /> 
</g>
<g style="fill:#000000; fill-opacity:0.0; 
stroke:#000000; stroke-width:78.7402; stroke-opacity:1; 
stroke-linecap:round; stroke-linejoin:round;">
<path d="M3459.57 38666.3 A826.659 826.659 0.0 0 0 4270 39500" />
</g>
<g style="fill:#000000; fill-opacity:0.0; 
stroke:#000000; stroke-width:59.0551; stroke-opacity:1; 
stroke-linecap:round; stroke-linejoin:round;">
<circle cx="114337" cy="38213" r="433.071" /> 
</g>
<g style="fill:#000000; fill-opacity:0.0; 
stroke:#000000; stroke-width:78.7402; stroke-opacity:1; 
stroke-linecap:round; stroke-linejoin:round;">
<path d="M3459 38666
L3463 3142
" />
</g>
<g style="fill:#000000; fill-opacity:0.0; 
stroke:#000000; stroke-width:59.0551; stroke-opacity:1; 
stroke-linecap:round; stroke-linejoin:round;">
<circle cx="4751.07" cy="3590" r="433.071" /> 
<circle cx="4751.07" cy="38210" r="433.071" /> 
</g>
<g style="fill:#000000; fill-opacity:0.0; 
stroke:#000000; stroke-width:78.7402; stroke-opacity:1; 
stroke-linecap:round; stroke-linejoin:round;">
<path d="M114844 2308
L4291 2300
" />
</g>
<g style="fill:#000000; fill-opacity:0.0; 
stroke:#000000; stroke-width:47.2441; stroke-opacity:1; 
stroke-linecap:round; stroke-linejoin:round;">
<path d="M8584 5243
L7627 10671
" />
<path d="M7627 10671
L13055 11628
" />
<path d="M13055 11628
L14012 6200
" />
<path d="M14012 6200
L8584 5243
" />
<path d="M21725 5641
L16297 4684
" />
<path d="M20768 11069
L21725 5641
" />
<path d="M15340 10112
L20768 11069
" />
<path d="M16297 4684
L15340 10112
" />
<path d="M24103 3588
L23146 9016
" />
<path d="M23146 9016
L28574 9973
" />
<path d="M28574 9973
L29531 4545
" />
<path d="M29531 4545
L24103 3588
" />
<path d="M31720 3596
L30763 9024
" />
<path d="M30763 9024
L36191 9981
" />
<path d="M36191 9981
L37149 4553
" />
<path d="M37149 4553
L31720 3596
" />
<path d="M38781 6745
L37824 12173
" />
<path d="M37824 12173
L43252 13130
" />
<path d="M43252 13130
L44209 7702
" />
<path d="M44209 7702
L38781 6745
" />
<path d="M51405 10063
L45977 9106
" />
<path d="M50448 15491
L51405 10063
" />
<path d="M45020 14534
L50448 15491
" />
<path d="M45977 9106
L45020 14534
" />
<path d="M7281 12624
L6324 18052
" />
<path d="M6324 18052
L11752 19009
" />
<path d="M11752 19009
L12709 13581
" />
<path d="M12709 13581
L7281 12624
" />
<path d="M20423 13027
L14995 12070
" />
<path d="M19466 18455
L20423 13027
" />
<path d="M14038 17498
L19466 18455
" />
<path d="M14995 12070
L14038 17498
" />
<path d="M22800 10974
L21843 16402
" />
<path d="M21843 16402
L27271 17359
" />
<path d="M27271 17359
L28228 11931
" />
<path d="M28228 11931
L22800 10974
" />
<path d="M35842 11938
L30414 10981
" />
<path d="M34885 17367
L35842 11938
" />
<path d="M29457 16409
L34885 17367
" />
<path d="M30414 10981
L29457 16409
" />
<path d="M37478 14131
L36521 19559
" />
<path d="M36521 19559
L41949 20516
" />
<path d="M41949 20516
L42906 15088
" />
<path d="M42906 15088
L37478 14131
" />
<path d="M50103 17449
L44675 16492
" />
<path d="M49146 22877
L50103 17449
" />
<path d="M43718 21920
L49146 22877
" />
<path d="M44675 16492
L43718 21920
" />
<path d="M5970 20007
L5013 25435
" />
<path d="M5013 25435
L10441 26392
" />
<path d="M10441 26392
L11398 20964
" />
<path d="M11398 20964
L5970 20007
" />
<path d="M19120 20413
L13692 19456
" />
<path d="M18163 25841
L19120 20413
" />
<path d="M12735 24884
L18163 25841
" />
<path d="M13692 19456
L12735 24884
" />
<path d="M26923 19317
L21495 18360
" />
<path d="M25966 24745
L26923 19317
" />
<path d="M20538 23788
L25966 24745
" />
<path d="M21495 18360
L20538 23788
" />
<path d="M34540 19325
L29112 18368
" />
<path d="M33583 24753
L34540 19325
" />
<path d="M28155 23796
L33583 24753
" />
<path d="M29112 18368
L28155 23796
" />
<path d="M36176 21517
L35219 26945
" />
<path d="M35219 26945
L40647 27902
" />
<path d="M40647 27902
L41604 22474
" />
<path d="M41604 22474
L36176 21517
" />
<path d="M43381 23874
L42424 29302
" />
<path d="M42424 29302
L47852 30259
" />
<path d="M47852 30259
L48809 24831
" />
<path d="M48809 24831
L43381 23874
" />
<path d="M26017 29020
L25536 34511
" />
<path d="M25536 34511
L31027 34991
" />
<path d="M31027 34991
L31508 29500
" />
<path d="M31508 29500
L26017 29020
" />
<path d="M39477 30793
L34049 29836
" />
<path d="M38520 36221
L39477 30793
" />
<path d="M33092 35264
L38520 36221
" />
<path d="M34049 29836
L33092 35264
" />
<path d="M47292 32770
L41968 31343
" />
<path d="M45865 38094
L47292 32770
" />
<path d="M40541 36667
L45865 38094
" />
<path d="M41968 31343
L40541 36667
" />
<path d="M60372 10082
L61330 15510
" />
<path d="M61330 15510
L66758 14553
" />
<path d="M66758 14553
L65800 9125
" />
<path d="M65800 9125
L60372 10082
" />
<path d="M73008 6737
L67579 7694
" />
<path d="M73965 12165
L73008 6737
" />
<path d="M68537 13122
L73965 12165
" />
<path d="M67579 7694
L68537 13122
" />
<path d="M80069 3595
L74641 4552
" />
<path d="M81026 9023
L80069 3595
" />
<path d="M75598 9980
L81026 9023
" />
<path d="M74641 4552
L75598 9980
" />
<path d="M87682 3584
L82254 4541
" />
<path d="M88639 9012
L87682 3584
" />
<path d="M83211 9969
L88639 9012
" />
<path d="M82254 4541
L83211 9969
" />
<path d="M95487 4675
L90059 5632
" />
<path d="M96445 10103
L95487 4675
" />
<path d="M91017 11060
L96445 10103
" />
<path d="M90059 5632
L91017 11060
" />
<path d="M97767 6186
L98724 11614
" />
<path d="M98724 11614
L104152 10657
" />
<path d="M104152 10657
L103195 5229
" />
<path d="M103195 5229
L97767 6186
" />
<path d="M105151 4886
L106108 10314
" />
<path d="M106108 10314
L111536 9357
" />
<path d="M111536 9357
L110579 3929
" />
<path d="M110579 3929
L105151 4886
" />
<path d="M61676 17467
L62633 22895
" />
<path d="M62633 22895
L68061 21938
" />
<path d="M68061 21938
L67104 16510
" />
<path d="M67104 16510
L61676 17467
" />
<path d="M74308 14123
L68880 15080
" />
<path d="M75265 19551
L74308 14123
" />
<path d="M69837 20508
L75265 19551
" />
<path d="M68880 15080
L69837 20508
" />
<path d="M81373 10975
L75944 11932
" />
<path d="M82330 16403
L81373 10975
" />
<path d="M76902 17360
L82330 16403
" />
<path d="M75944 11932
L76902 17360
" />
<path d="M83556 11931
L84513 17359
" />
<path d="M84513 17359
L89941 16402
" />
<path d="M89941 16402
L88984 10974
" />
<path d="M88984 10974
L83556 11931
" />
<path d="M96786 12058
L91358 13015
" />
<path d="M97743 17486
L96786 12058
" />
<path d="M92315 18443
L97743 17486
" />
<path d="M91358 13015
L92315 18443
" />
<path d="M99065 13570
L100022 18998
" />
<path d="M100022 18998
L105450 18041
" />
<path d="M105450 18041
L104493 12613
" />
<path d="M104493 12613
L99065 13570
" />
<path d="M111881 11311
L106453 12268
" />
<path d="M112838 16739
L111881 11311
" />
<path d="M107410 17696
L112838 16739
" />
<path d="M106453 12268
L107410 17696
" />
<path d="M62978 24859
L63935 30287
" />
<path d="M63935 30287
L69363 29330
" />
<path d="M69363 29330
L68406 23902
" />
<path d="M68406 23902
L62978 24859
" />
<path d="M75613 21510
L70185 22467
" />
<path d="M76571 26938
L75613 21510
" />
<path d="M71143 27895
L76571 26938
" />
<path d="M70185 22467
L71143 27895
" />
<path d="M82667 18353
L77239 19310
" />
<path d="M83625 23781
L82667 18353
" />
<path d="M78196 24738
L83625 23781
" />
<path d="M77239 19310
L78196 24738
" />
<path d="M90288 18360
L84860 19317
" />
<path d="M91245 23788
L90288 18360
" />
<path d="M85817 24745
L91245 23788
" />
<path d="M84860 19317
L85817 24745
" />
<path d="M92662 20396
L93619 25824
" />
<path d="M93619 25824
L99047 24867
" />
<path d="M99047 24867
L98090 19439
" />
<path d="M98090 19439
L92662 20396
" />
<path d="M105795 20003
L100367 20960
" />
<path d="M106752 25431
L105795 20003
" />
<path d="M101324 26388
L106752 25431
" />
<path d="M100367 20960
L101324 26388
" />
<path d="M107755 19648
L108713 25076
" />
<path d="M108713 25076
L114141 24119
" />
<path d="M114141 24119
L113184 18691
" />
<path d="M113184 18691
L107755 19648
" />
<path d="M64503 32774
L65930 38098
" />
<path d="M65930 38098
L71254 36671
" />
<path d="M71254 36671
L69827 31347
" />
<path d="M69827 31347
L64503 32774
" />
<path d="M77735 29824
L72307 30781
" />
<path d="M78692 35252
L77735 29824
" />
<path d="M73264 36210
L78692 35252
" />
<path d="M72307 30781
L73264 36210
" />
<path d="M80285 29497
L80765 34988
" />
<path d="M80765 34988
L86256 34508
" />
<path d="M86256 34508
L85776 29017
" />
<path d="M85776 29017
L80285 29497
" />
<g >
</g>
<g >
</g>
<g >
</g>
<g >
</g>
<g >
</g>
<g >
</g>
<g >
</g>
<g >
</g>
<g >
</g>
<g >
</g>
<g >
</g>
<g >
</g>
<g >
</g>
<g >
</g>
<g >
</g>
<g >
</g>
<g >
</g>
<g >
</g>
<g >
</g>
<g >
</g>
<g >
</g>
<g >
</g>
<g >
</g>
<g >
</g>
<g >
</g>
<g >
</g>
<g >
</g>
<g >
</g>
<g >
</g>
<g >
</g>
<g >
</g>
<g >
</g>
<g >
</g>
<g >
</g>
<g >
</g>
<g >
</g>
<g >
</g>
<g >
</g>
<g >
</g>
<g >
</g>
<g >
</g>
<g >
</g>
<g >
</g>
<g >
</g>
<g >
</g>
<g >
</g>
</g> 
</svg>
