<?xml version="1.0" standalone="no"?>
 <!DOCTYPE svg PUBLIC "-//W3C//DTD SVG 1.1//EN" 
 "http://www.w3.org/Graphics/SVG/1.1/DTD/svg11.dtd"> 
<svg
  xmlns:svg="http://www.w3.org/2000/svg"
  xmlns="http://www.w3.org/2000/svg"
  xmlns:xlink="http://www.w3.org/1999/xlink"
  version="1.1"
  width="30.378400cm" height="10.871200cm" viewBox="0 0 119600 42800">
<title>SVG Picture created as gpk60_60r-brd.svg date 2021/09/28 14:11:20 </title>
  <desc>Picture generated by PCBNEW </desc>
<g style="fill:#000000; fill-opacity:1;stroke:#000000; stroke-opacity:1;
stroke-linecap:round; stroke-linejoin:round;"
 transform="translate(0 0) scale(1 1)">
</g>
<g style="fill:#000000; fill-opacity:0.0; 
stroke:#000000; stroke-width:-0.000393701; stroke-opacity:1; 
stroke-linecap:round; stroke-linejoin:round;">
</g>
<g style="fill:#000000; fill-opacity:0.0; 
stroke:#000000; stroke-width:39.3701; stroke-opacity:1; 
stroke-linecap:round; stroke-linejoin:round;">
<path d="M34354 36604
L34354 34679
" />
<path d="M34683 34679
L34683 32413
" />
<path d="M75214 34674
L75543 34674
" />
<path d="M75214 32408
L75214 34674
" />
<path d="M37567 32413
L37567 32882
" />
<path d="M37567 32882
L37567 33324
" />
<path d="M37567 33324
L37567 33742
" />
<path d="M37567 33742
L37567 34134
" />
<path d="M37567 34134
L37567 34503
" />
<path d="M37567 34503
L37567 34849
" />
<path d="M37567 34849
L37567 35173
" />
<path d="M37567 35173
L37567 35474
" />
<path d="M37567 35474
L37567 35755
" />
<path d="M37567 35755
L37567 36016
" />
<path d="M37567 36016
L37567 36257
" />
<path d="M37567 36257
L37567 36480
" />
<path d="M37567 36480
L37567 36685
" />
<path d="M37567 36685
L37567 36872
" />
<path d="M37567 36872
L37567 37043
" />
<path d="M37567 37043
L37567 37198
" />
<path d="M37567 37198
L37567 37338
" />
<path d="M37567 37338
L37567 37463
" />
<path d="M37567 37463
L37567 37576
" />
<path d="M37567 37576
L37567 37675
" />
<path d="M37567 37675
L37567 37762
" />
<path d="M37567 37762
L37567 37837
" />
<path d="M37567 37837
L37567 37902
" />
<path d="M37567 37902
L37567 37957
" />
<path d="M37567 37957
L37567 38003
" />
<path d="M37567 38003
L37567 38070
" />
<path d="M37567 38070
L37567 38120
" />
<path d="M37567 38120
L37567 38128
" />
<path d="M34354 34679
L34683 34679
" />
<path d="M75543 36599
L75214 36599
" />
<path d="M34683 32413
L34687 32373
" />
<path d="M34687 32373
L34702 32328
" />
<path d="M34702 32328
L34728 32288
" />
<path d="M34728 32288
L34762 32255
" />
<path d="M34762 32255
L34803 32232
" />
<path d="M34803 32232
L34850 32218
" />
<path d="M34850 32218
L34880 32216
" />
<path d="M37370 32216
L37409 32220
" />
<path d="M37409 32220
L37455 32236
" />
<path d="M37455 32236
L37495 32261
" />
<path d="M37495 32261
L37527 32295
" />
<path d="M37527 32295
L37551 32336
" />
<path d="M37551 32336
L37564 32383
" />
<path d="M37564 32383
L37567 32413
" />
<path d="M34880 32216
L37370 32216
" />
<path d="M75116 38221
L72433 38221
" />
<path d="M75214 38123
L75205 38165
" />
<path d="M75205 38165
L75179 38198
" />
<path d="M75179 38198
L75141 38218
" />
<path d="M75141 38218
L75116 38221
" />
<path d="M37468 38226
L34781 38226
" />
<path d="M34781 38226
L34738 38216
" />
<path d="M34738 38216
L34705 38190
" />
<path d="M34705 38190
L34686 38152
" />
<path d="M34686 38152
L34683 38128
" />
<path d="M34683 36604
L34354 36604
" />
<path d="M75214 36599
L75214 38123
" />
<path d="M75018 32211
L75057 32215
" />
<path d="M75057 32215
L75103 32231
" />
<path d="M75103 32231
L75143 32256
" />
<path d="M75143 32256
L75175 32290
" />
<path d="M75175 32290
L75199 32331
" />
<path d="M75199 32331
L75212 32378
" />
<path d="M75212 32378
L75214 32408
" />
<path d="M72531 32211
L75018 32211
" />
<path d="M34683 38128
L34683 36604
" />
<path d="M37567 38128
L37557 38170
" />
<path d="M37557 38170
L37531 38203
" />
<path d="M37531 38203
L37493 38223
" />
<path d="M37493 38223
L37468 38226
" />
<path d="M75543 34674
L75543 36599
" />
<path d="M72433 38221
L72390 38211
" />
<path d="M72390 38211
L72357 38185
" />
<path d="M72357 38185
L72337 38147
" />
<path d="M72337 38147
L72334 38123
" />
<path d="M72334 32408
L72338 32368
" />
<path d="M72338 32368
L72354 32323
" />
<path d="M72354 32323
L72379 32283
" />
<path d="M72379 32283
L72413 32250
" />
<path d="M72413 32250
L72455 32227
" />
<path d="M72455 32227
L72501 32213
" />
<path d="M72501 32213
L72531 32211
" />
<path d="M72334 38123
L72334 38068
" />
<path d="M72334 38068
L72334 38002
" />
<path d="M72334 38002
L72335 37913
" />
<path d="M72335 37913
L72335 37802
" />
<path d="M72335 37802
L72335 37670
" />
<path d="M72335 37670
L72335 37520
" />
<path d="M72335 37520
L72335 37353
" />
<path d="M72335 37353
L72335 37171
" />
<path d="M72335 37171
L72335 36974
" />
<path d="M72335 36974
L72335 36765
" />
<path d="M72335 36765
L72335 36546
" />
<path d="M72335 36546
L72335 36318
" />
<path d="M72335 36318
L72335 36082
" />
<path d="M72335 36082
L72335 35840
" />
<path d="M72335 35840
L72336 35595
" />
<path d="M72336 35595
L72336 35346
" />
<path d="M72336 35346
L72336 35097
" />
<path d="M72336 35097
L72336 34849
" />
<path d="M72336 34849
L72336 34602
" />
<path d="M72336 34602
L72336 34360
" />
<path d="M72336 34360
L72336 34123
" />
<path d="M72336 34123
L72336 33893
" />
<path d="M72336 33893
L72336 33672
" />
<path d="M72336 33672
L72336 33461
" />
<path d="M72336 33461
L72336 33262
" />
<path d="M72336 33262
L72335 33076
" />
<path d="M72335 33076
L72335 32906
" />
<path d="M72335 32906
L72335 32752
" />
<path d="M72335 32752
L72335 32617
" />
<path d="M72335 32617
L72335 32502
" />
<path d="M72335 32502
L72334 32408
" />
<path d="M17096 27039
L17096 28964
" />
<path d="M16767 28964
L16767 31230
" />
<path d="M4336 28964
L4007 28964
" />
<path d="M4336 31230
L4336 28964
" />
<path d="M7216 30527
L7216 31230
" />
<path d="M7798 30527
L7216 30527
" />
<path d="M13883 26090
L13883 25515
" />
<path d="M17096 28964
L16767 28964
" />
<path d="M7798 26090
L7798 25310
" />
<path d="M7216 26090
L7798 26090
" />
<path d="M7798 25310
L13309 25310
" />
<path d="M13309 25310
L13309 26090
" />
<path d="M4007 27039
L4336 27039
" />
<path d="M16767 31230
L16763 31270
" />
<path d="M16763 31270
L16748 31315
" />
<path d="M16748 31315
L16722 31355
" />
<path d="M16722 31355
L16688 31388
" />
<path d="M16688 31388
L16647 31411
" />
<path d="M16647 31411
L16600 31425
" />
<path d="M16600 31425
L16570 31427
" />
<path d="M13883 31230
L13883 30527
" />
<path d="M14080 31427
L14041 31423
" />
<path d="M14041 31423
L13995 31407
" />
<path d="M13995 31407
L13955 31382
" />
<path d="M13955 31382
L13923 31348
" />
<path d="M13923 31348
L13899 31307
" />
<path d="M13899 31307
L13886 31260
" />
<path d="M13886 31260
L13883 31230
" />
<path d="M16570 31427
L14080 31427
" />
<path d="M4434 25417
L7117 25417
" />
<path d="M4336 25515
L4345 25473
" />
<path d="M4345 25473
L4371 25440
" />
<path d="M4371 25440
L4409 25420
" />
<path d="M4409 25420
L4434 25417
" />
<path d="M13982 25417
L16669 25417
" />
<path d="M16669 25417
L16712 25427
" />
<path d="M16712 25427
L16745 25453
" />
<path d="M16745 25453
L16764 25491
" />
<path d="M16764 25491
L16767 25515
" />
<path d="M16767 27039
L17096 27039
" />
<path d="M13883 30527
L13309 30527
" />
<path d="M4336 27039
L4336 25515
" />
<path d="M7798 30822
L7798 30527
" />
<path d="M4532 31427
L4493 31423
" />
<path d="M4493 31423
L4447 31407
" />
<path d="M4447 31407
L4407 31382
" />
<path d="M4407 31382
L4375 31348
" />
<path d="M4375 31348
L4351 31307
" />
<path d="M4351 31307
L4338 31260
" />
<path d="M4338 31260
L4336 31230
" />
<path d="M7019 31427
L4532 31427
" />
<path d="M16767 25515
L16767 27039
" />
<path d="M13883 25515
L13893 25473
" />
<path d="M13893 25473
L13919 25440
" />
<path d="M13919 25440
L13957 25420
" />
<path d="M13957 25420
L13982 25417
" />
<path d="M4007 28964
L4007 27039
" />
<path d="M13309 26090
L13883 26090
" />
<path d="M7117 25417
L7160 25427
" />
<path d="M7160 25427
L7193 25453
" />
<path d="M7193 25453
L7213 25491
" />
<path d="M7213 25491
L7216 25515
" />
<path d="M7216 31230
L7212 31270
" />
<path d="M7212 31270
L7196 31315
" />
<path d="M7196 31315
L7171 31355
" />
<path d="M7171 31355
L7137 31388
" />
<path d="M7137 31388
L7095 31411
" />
<path d="M7095 31411
L7049 31425
" />
<path d="M7049 31425
L7019 31427
" />
<path d="M13309 30527
L13309 30822
" />
<path d="M7216 25515
L7216 26090
" />
<path d="M13309 30822
L7798 30822
" />
<path d="M112726 19539
L112726 21464
" />
<path d="M112397 21464
L112397 23730
" />
<path d="M99966 21464
L99637 21464
" />
<path d="M99966 23730
L99966 21464
" />
<path d="M102846 23027
L102846 23730
" />
<path d="M103428 23027
L102846 23027
" />
<path d="M109513 18590
L109513 18015
" />
<path d="M112726 21464
L112397 21464
" />
<path d="M103428 18590
L103428 17810
" />
<path d="M102846 18590
L103428 18590
" />
<path d="M103428 17810
L108939 17810
" />
<path d="M108939 17810
L108939 18590
" />
<path d="M99637 19539
L99966 19539
" />
<path d="M112397 23730
L112393 23770
" />
<path d="M112393 23770
L112378 23815
" />
<path d="M112378 23815
L112352 23855
" />
<path d="M112352 23855
L112318 23888
" />
<path d="M112318 23888
L112277 23911
" />
<path d="M112277 23911
L112230 23925
" />
<path d="M112230 23925
L112200 23927
" />
<path d="M109513 23730
L109513 23027
" />
<path d="M109710 23927
L109671 23923
" />
<path d="M109671 23923
L109625 23907
" />
<path d="M109625 23907
L109585 23882
" />
<path d="M109585 23882
L109553 23848
" />
<path d="M109553 23848
L109529 23807
" />
<path d="M109529 23807
L109516 23760
" />
<path d="M109516 23760
L109513 23730
" />
<path d="M112200 23927
L109710 23927
" />
<path d="M100064 17917
L102747 17917
" />
<path d="M99966 18015
L99975 17973
" />
<path d="M99975 17973
L100001 17940
" />
<path d="M100001 17940
L100039 17920
" />
<path d="M100039 17920
L100064 17917
" />
<path d="M109612 17917
L112299 17917
" />
<path d="M112299 17917
L112342 17927
" />
<path d="M112342 17927
L112375 17953
" />
<path d="M112375 17953
L112394 17991
" />
<path d="M112394 17991
L112397 18015
" />
<path d="M112397 19539
L112726 19539
" />
<path d="M109513 23027
L108939 23027
" />
<path d="M99966 19539
L99966 18015
" />
<path d="M103428 23322
L103428 23027
" />
<path d="M100162 23927
L100123 23923
" />
<path d="M100123 23923
L100077 23907
" />
<path d="M100077 23907
L100037 23882
" />
<path d="M100037 23882
L100005 23848
" />
<path d="M100005 23848
L99981 23807
" />
<path d="M99981 23807
L99968 23760
" />
<path d="M99968 23760
L99966 23730
" />
<path d="M102649 23927
L100162 23927
" />
<path d="M112397 18015
L112397 19539
" />
<path d="M109513 18015
L109523 17973
" />
<path d="M109523 17973
L109549 17940
" />
<path d="M109549 17940
L109587 17920
" />
<path d="M109587 17920
L109612 17917
" />
<path d="M99637 21464
L99637 19539
" />
<path d="M108939 18590
L109513 18590
" />
<path d="M102747 17917
L102790 17927
" />
<path d="M102790 17927
L102823 17953
" />
<path d="M102823 17953
L102843 17991
" />
<path d="M102843 17991
L102846 18015
" />
<path d="M102846 23730
L102842 23770
" />
<path d="M102842 23770
L102826 23815
" />
<path d="M102826 23815
L102801 23855
" />
<path d="M102801 23855
L102767 23888
" />
<path d="M102767 23888
L102725 23911
" />
<path d="M102725 23911
L102679 23925
" />
<path d="M102679 23925
L102649 23927
" />
<path d="M108939 23027
L108939 23322
" />
<path d="M102846 18015
L102846 18590
" />
<path d="M108939 23322
L103428 23322
" />
</g>
<g style="fill:#000000; fill-opacity:0.0; 
stroke:#000000; stroke-width:78.7402; stroke-opacity:1; 
stroke-linecap:round; stroke-linejoin:round;">
<path d="M113648 1967
L3095 1959
" />
<path d="M114449 2818
L114447 38325
" />
<path d="M113614 39156.6 A825.788 825.788 0.0 0 0 114447 38325.3" />
</g>
<g style="fill:#000000; fill-opacity:0.0; 
stroke:#000000; stroke-width:59.0551; stroke-opacity:1; 
stroke-linecap:round; stroke-linejoin:round;">
<path d="M114447 2818
L114449 2818
" />
<circle cx="113151" cy="37872" r="433.071" /> 
</g>
<g style="fill:#000000; fill-opacity:0.0; 
stroke:#000000; stroke-width:78.7402; stroke-opacity:1; 
stroke-linecap:round; stroke-linejoin:round;">
<path d="M3074 39159
L113613 39156
" />
</g>
<g style="fill:#000000; fill-opacity:0.0; 
stroke:#000000; stroke-width:59.0551; stroke-opacity:1; 
stroke-linecap:round; stroke-linejoin:round;">
<circle cx="3535" cy="37870.1" r="433.071" /> 
</g>
<g style="fill:#000000; fill-opacity:0.0; 
stroke:#000000; stroke-width:78.7402; stroke-opacity:1; 
stroke-linecap:round; stroke-linejoin:round;">
<path d="M2263 38325
L2267 2801
" />
<path d="M3095.89 1959.24 A842.555 842.555 0.0 0 0 2267.49 2801.68" />
<path d="M2263.57 38325.3 A826.659 826.659 0.0 0 0 3074 39159" />
<path d="M114447 2818.11 A833.249 833.249 0.0 0 0 113648 1969" />
</g>
<g style="fill:#000000; fill-opacity:0.0; 
stroke:#000000; stroke-width:47.2441; stroke-opacity:1; 
stroke-linecap:round; stroke-linejoin:round;">
<path d="M57708 32811
L52197 32811
" />
<path d="M57708 38322
L57708 32811
" />
<path d="M52197 38322
L57708 38322
" />
<path d="M52197 32811
L52197 38322
" />
<path d="M3087 8327
L8598 8327
" />
<path d="M3087 2816
L3087 8327
" />
<path d="M8598 2816
L3087 2816
" />
<path d="M8598 8327
L8598 2816
" />
<path d="M16098 8327
L16098 2816
" />
<path d="M16098 2816
L10587 2816
" />
<path d="M10587 2816
L10587 8327
" />
<path d="M10587 8327
L16098 8327
" />
<path d="M23598 2816
L18087 2816
" />
<path d="M23598 8327
L23598 2816
" />
<path d="M18087 8327
L23598 8327
" />
<path d="M18087 2816
L18087 8327
" />
<path d="M31098 2816
L25587 2816
" />
<path d="M31098 8327
L31098 2816
" />
<path d="M25587 8327
L31098 8327
" />
<path d="M25587 2816
L25587 8327
" />
<path d="M38598 2816
L33087 2816
" />
<path d="M38598 8327
L38598 2816
" />
<path d="M33087 8327
L38598 8327
" />
<path d="M33087 2816
L33087 8327
" />
<path d="M46098 2816
L40586 2816
" />
<path d="M46098 8327
L46098 2816
" />
<path d="M40586 8327
L46098 8327
" />
<path d="M40586 2816
L40586 8327
" />
<path d="M48086 2816
L48086 8327
" />
<path d="M48086 8327
L53598 8327
" />
<path d="M53598 8327
L53598 2816
" />
<path d="M53598 2816
L48086 2816
" />
<path d="M55586 2816
L55586 8327
" />
<path d="M55586 8327
L61098 8327
" />
<path d="M61098 8327
L61098 2816
" />
<path d="M61098 2816
L55586 2816
" />
<path d="M68598 2816
L63086 2816
" />
<path d="M68598 8327
L68598 2816
" />
<path d="M63086 8327
L68598 8327
" />
<path d="M63086 2816
L63086 8327
" />
<path d="M70586 2816
L70586 8327
" />
<path d="M70586 8327
L76098 8327
" />
<path d="M76098 8327
L76098 2816
" />
<path d="M76098 2816
L70586 2816
" />
<path d="M83598 2816
L78086 2816
" />
<path d="M83598 8327
L83598 2816
" />
<path d="M78086 8327
L83598 8327
" />
<path d="M78086 2816
L78086 8327
" />
<path d="M91098 2816
L85586 2816
" />
<path d="M91098 8327
L91098 2816
" />
<path d="M85586 8327
L91098 8327
" />
<path d="M85586 2816
L85586 8327
" />
<path d="M93086 2816
L93086 8327
" />
<path d="M93086 8327
L98598 8327
" />
<path d="M98598 8327
L98598 2816
" />
<path d="M98598 2816
L93086 2816
" />
<path d="M100586 2816
L100586 8327
" />
<path d="M100586 8327
L106098 8327
" />
<path d="M106098 8327
L106098 2816
" />
<path d="M106098 2816
L100586 2816
" />
<path d="M108086 2816
L108086 8327
" />
<path d="M108086 8327
L113598 8327
" />
<path d="M113598 8327
L113598 2816
" />
<path d="M113598 2816
L108086 2816
" />
<path d="M4962 10316
L4962 15827
" />
<path d="M4962 15827
L10474 15827
" />
<path d="M10474 15827
L10474 10316
" />
<path d="M10474 10316
L4962 10316
" />
<path d="M14337 10316
L14337 15827
" />
<path d="M14337 15827
L19848 15827
" />
<path d="M19848 15827
L19848 10316
" />
<path d="M19848 10316
L14337 10316
" />
<path d="M21837 10316
L21837 15827
" />
<path d="M21837 15827
L27348 15827
" />
<path d="M27348 15827
L27348 10316
" />
<path d="M27348 10316
L21837 10316
" />
<path d="M29337 10316
L29337 15827
" />
<path d="M29337 15827
L34848 15827
" />
<path d="M34848 15827
L34848 10316
" />
<path d="M34848 10316
L29337 10316
" />
<path d="M42348 10316
L36837 10316
" />
<path d="M42348 15827
L42348 10316
" />
<path d="M36837 15827
L42348 15827
" />
<path d="M36837 10316
L36837 15827
" />
<path d="M49848 10316
L44336 10316
" />
<path d="M49848 15827
L49848 10316
" />
<path d="M44336 15827
L49848 15827
" />
<path d="M44336 10316
L44336 15827
" />
<path d="M51836 10316
L51836 15827
" />
<path d="M51836 15827
L57348 15827
" />
<path d="M57348 15827
L57348 10316
" />
<path d="M57348 10316
L51836 10316
" />
<path d="M59336 10316
L59336 15827
" />
<path d="M59336 15827
L64848 15827
" />
<path d="M64848 15827
L64848 10316
" />
<path d="M64848 10316
L59336 10316
" />
<path d="M72348 10316
L66836 10316
" />
<path d="M72348 15827
L72348 10316
" />
<path d="M66836 15827
L72348 15827
" />
<path d="M66836 10316
L66836 15827
" />
<path d="M74336 10316
L74336 15827
" />
<path d="M74336 15827
L79848 15827
" />
<path d="M79848 15827
L79848 10316
" />
<path d="M79848 10316
L74336 10316
" />
<path d="M81836 10316
L81836 15827
" />
<path d="M81836 15827
L87348 15827
" />
<path d="M87348 15827
L87348 10316
" />
<path d="M87348 10316
L81836 10316
" />
<path d="M94848 10316
L89336 10316
" />
<path d="M94848 15827
L94848 10316
" />
<path d="M89336 15827
L94848 15827
" />
<path d="M89336 10316
L89336 15827
" />
<path d="M102348 10316
L96836 10316
" />
<path d="M102348 15827
L102348 10316
" />
<path d="M96836 15827
L102348 15827
" />
<path d="M96836 10316
L96836 15827
" />
<path d="M106212 10316
L106212 15827
" />
<path d="M106212 15827
L111723 15827
" />
<path d="M111723 15827
L111723 10316
" />
<path d="M111723 10316
L106212 10316
" />
<path d="M5899 17816
L5899 23327
" />
<path d="M5899 23327
L11411 23327
" />
<path d="M11411 23327
L11411 17816
" />
<path d="M11411 17816
L5899 17816
" />
<path d="M21723 17816
L16212 17816
" />
<path d="M21723 23327
L21723 17816
" />
<path d="M16212 23327
L21723 23327
" />
<path d="M16212 17816
L16212 23327
" />
<path d="M29223 17816
L23712 17816
" />
<path d="M29223 23327
L29223 17816
" />
<path d="M23712 23327
L29223 23327
" />
<path d="M23712 17816
L23712 23327
" />
<path d="M36723 17816
L31212 17816
" />
<path d="M36723 23327
L36723 17816
" />
<path d="M31212 23327
L36723 23327
" />
<path d="M31212 17816
L31212 23327
" />
<path d="M38712 17816
L38712 23327
" />
<path d="M38712 23327
L44223 23327
" />
<path d="M44223 23327
L44223 17816
" />
<path d="M44223 17816
L38712 17816
" />
<path d="M46212 17816
L46212 23327
" />
<path d="M46212 23327
L51723 23327
" />
<path d="M51723 23327
L51723 17816
" />
<path d="M51723 17816
L46212 17816
" />
<path d="M59223 17816
L53712 17816
" />
<path d="M59223 23327
L59223 17816
" />
<path d="M53712 23327
L59223 23327
" />
<path d="M53712 17816
L53712 23327
" />
<path d="M66723 17816
L61212 17816
" />
<path d="M66723 23327
L66723 17816
" />
<path d="M61212 23327
L66723 23327
" />
<path d="M61212 17816
L61212 23327
" />
<path d="M68712 17816
L68712 23327
" />
<path d="M68712 23327
L74223 23327
" />
<path d="M74223 23327
L74223 17816
" />
<path d="M74223 17816
L68712 17816
" />
<path d="M81723 17816
L76212 17816
" />
<path d="M81723 23327
L81723 17816
" />
<path d="M76212 23327
L81723 23327
" />
<path d="M76212 17816
L76212 23327
" />
<path d="M89223 17816
L83712 17816
" />
<path d="M89223 23327
L89223 17816
" />
<path d="M83712 23327
L89223 23327
" />
<path d="M83712 17816
L83712 23327
" />
<path d="M96723 17816
L91212 17816
" />
<path d="M96723 23327
L96723 17816
" />
<path d="M91212 23327
L96723 23327
" />
<path d="M91212 17816
L91212 23327
" />
<path d="M19962 25315
L19962 30827
" />
<path d="M19962 30827
L25473 30827
" />
<path d="M25473 30827
L25473 25315
" />
<path d="M25473 25315
L19962 25315
" />
<path d="M27462 25315
L27462 30827
" />
<path d="M27462 30827
L32973 30827
" />
<path d="M32973 30827
L32973 25315
" />
<path d="M32973 25315
L27462 25315
" />
<path d="M40473 25315
L34962 25315
" />
<path d="M40473 30827
L40473 25315
" />
<path d="M34962 30827
L40473 30827
" />
<path d="M34962 25315
L34962 30827
" />
<path d="M42462 25315
L42462 30827
" />
<path d="M42462 30827
L47973 30827
" />
<path d="M47973 30827
L47973 25315
" />
<path d="M47973 25315
L42462 25315
" />
<path d="M55473 25315
L49962 25315
" />
<path d="M55473 30827
L55473 25315
" />
<path d="M49962 30827
L55473 30827
" />
<path d="M49962 25315
L49962 30827
" />
<path d="M62973 25315
L57462 25315
" />
<path d="M62973 30827
L62973 25315
" />
<path d="M57462 30827
L62973 30827
" />
<path d="M57462 25315
L57462 30827
" />
<path d="M64962 25315
L64962 30827
" />
<path d="M64962 30827
L70473 30827
" />
<path d="M70473 30827
L70473 25315
" />
<path d="M70473 25315
L64962 25315
" />
<path d="M72462 25315
L72462 30827
" />
<path d="M72462 30827
L77973 30827
" />
<path d="M77973 30827
L77973 25315
" />
<path d="M77973 25315
L72462 25315
" />
<path d="M85473 25315
L79962 25315
" />
<path d="M85473 30827
L85473 25315
" />
<path d="M79962 30827
L85473 30827
" />
<path d="M79962 25315
L79962 30827
" />
<path d="M92973 25315
L87462 25315
" />
<path d="M92973 30827
L92973 25315
" />
<path d="M87462 30827
L92973 30827
" />
<path d="M87462 25315
L87462 30827
" />
<path d="M103286 25315
L97774 25315
" />
<path d="M103286 30827
L103286 25315
" />
<path d="M97774 30827
L103286 30827
" />
<path d="M97774 25315
L97774 30827
" />
<path d="M113598 25315
L108086 25315
" />
<path d="M113598 30827
L113598 25315
" />
<path d="M108086 30827
L113598 30827
" />
<path d="M108086 25315
L108086 30827
" />
<path d="M14712 32815
L14712 38327
" />
<path d="M14712 38327
L20223 38327
" />
<path d="M20223 38327
L20223 32815
" />
<path d="M20223 32815
L14712 32815
" />
<path d="M24087 32815
L24087 38327
" />
<path d="M24087 38327
L29599 38327
" />
<path d="M29599 38327
L29599 32815
" />
<path d="M29599 32815
L24087 32815
" />
<path d="M80337 32815
L80337 38327
" />
<path d="M80337 38327
L85849 38327
" />
<path d="M85849 38327
L85849 32815
" />
<path d="M85849 32815
L80337 32815
" />
<path d="M89712 38327
L95223 38327
" />
<path d="M95223 38327
L95223 32815
" />
<path d="M95223 32815
L89712 32815
" />
<path d="M89712 32815
L89712 38327
" />
<g >
</g>
<g >
</g>
<g >
</g>
<g >
</g>
<g >
</g>
<g >
</g>
<g >
</g>
<g >
</g>
<g >
</g>
<g >
</g>
<g >
</g>
<g >
</g>
<g >
</g>
<g >
</g>
<g >
</g>
<g >
</g>
<g >
</g>
<g >
</g>
<g >
</g>
<g >
</g>
<g >
</g>
<g >
</g>
<g >
</g>
<g >
</g>
<g >
</g>
<g >
</g>
<g >
</g>
<g >
</g>
<g >
</g>
<g >
</g>
<g >
</g>
<g >
</g>
<g >
</g>
<g >
</g>
<g >
</g>
<g >
</g>
<g >
</g>
<g >
</g>
<g >
</g>
<g >
</g>
<g >
</g>
<g >
</g>
<g >
</g>
<g >
</g>
<g >
</g>
<g >
</g>
<g >
</g>
<g >
</g>
<g >
</g>
<g >
</g>
<g >
</g>
<g >
</g>
<g >
</g>
<g >
</g>
<g >
</g>
<g >
</g>
<g >
</g>
<g >
</g>
<g >
</g>
</g> 
</svg>
