<?xml version="1.0" standalone="no"?>
 <!DOCTYPE svg PUBLIC "-//W3C//DTD SVG 1.1//EN" 
 "http://www.w3.org/Graphics/SVG/1.1/DTD/svg11.dtd"> 
<svg
  xmlns:svg="http://www.w3.org/2000/svg"
  xmlns="http://www.w3.org/2000/svg"
  xmlns:xlink="http://www.w3.org/1999/xlink"
  version="1.1"
  width="28.902660cm" height="9.832340cm" viewBox="0 0 289026600 98323400">
<title>SVG Picture created as gpk60_37r2re-brd.svg date 2022/04/02 23:49:10 </title>
  <desc>Picture generated by PCBNEW </desc>
<g style="fill:#000000; fill-opacity:1.000000;stroke:#000000; stroke-opacity:1.000000;
stroke-linecap:round; stroke-linejoin:round;"
 transform="translate(0 0) scale(1 1)">
</g>
<g style="fill:#000000; fill-opacity:0.0; 
stroke:#000000; stroke-width:0.000000; stroke-opacity:1; 
stroke-linecap:round; stroke-linejoin:round;">
</g>
<g style="fill:#C2C2C2; fill-opacity:0.0; 
stroke:#C2C2C2; stroke-width:0.000000; stroke-opacity:1; 
stroke-linecap:round; stroke-linejoin:round;">
</g>
<g style="fill:#C2C2C2; fill-opacity:0.0; 
stroke:#C2C2C2; stroke-width:150000.000000; stroke-opacity:1; 
stroke-linecap:round; stroke-linejoin:round;">
<circle cx="282997891.000000" cy="5391785.000000" r="1100000.000000" /> 
</g>
<g style="fill:#C2C2C2; fill-opacity:0.0; 
stroke:#C2C2C2; stroke-width:200000.000000; stroke-opacity:1; 
stroke-linecap:round; stroke-linejoin:round;">
<path d="M286262038.238704 4292249.640643 A2116456.000000 2116456.000000 0.0 0 0 284232330.980875 2135505.468471" />
</g>
<g style="fill:#C2C2C2; fill-opacity:0.0; 
stroke:#C2C2C2; stroke-width:150000.000000; stroke-opacity:1; 
stroke-linecap:round; stroke-linejoin:round;">
<circle cx="4596291.000000" cy="5386705.000000" r="1100000.000000" /> 
</g>
<g style="fill:#C2C2C2; fill-opacity:0.0; 
stroke:#C2C2C2; stroke-width:200000.000000; stroke-opacity:1; 
stroke-linecap:round; stroke-linejoin:round;">
<path d="M3429982.292635 2110739.433455 A2140062.000000 2140062.000000 0.0 0 0 1325838.000023 4250510.000000" />
<path d="M284232331 2135505
L3429982 2110722
" />
</g>
<g style="fill:#C2C2C2; fill-opacity:0.0; 
stroke:#C2C2C2; stroke-width:150000.000000; stroke-opacity:1; 
stroke-linecap:round; stroke-linejoin:round;">
<circle cx="4596291.000000" cy="93321505.000000" r="1100000.000000" /> 
</g>
<g style="fill:#C2C2C2; fill-opacity:0.0; 
stroke:#C2C2C2; stroke-width:200000.000000; stroke-opacity:1; 
stroke-linecap:round; stroke-linejoin:round;">
<path d="M3374371 96598105
L284145751 96592046
" />
<path d="M286267172 4293136
L286262092 94480570
" />
</g>
<g style="fill:#C2C2C2; fill-opacity:0.0; 
stroke:#C2C2C2; stroke-width:150000.000000; stroke-opacity:1; 
stroke-linecap:round; stroke-linejoin:round;">
<path d="M286262006 4292249
L286267172 4293136
" />
<circle cx="282944551.000000" cy="93329125.000000" r="1100000.000000" /> 
</g>
<g style="fill:#C2C2C2; fill-opacity:0.0; 
stroke:#C2C2C2; stroke-width:200000.000000; stroke-opacity:1; 
stroke-linecap:round; stroke-linejoin:round;">
<path d="M1315872.010463 94480469.947710 A2099708.000000 2099708.000000 0.0 0 0 3374370.997166 96598105.144659" />
<path d="M284145750.925350 96592054.306750 A2097539.000000 2097539.000000 0.0 0 0 286262092.077603 94480569.999481" />
<path d="M1315878 94480470
L1325838 4250510
" />
</g>
<g style="fill:#C2C2C2; fill-opacity:0.0; 
stroke:#C2C2C2; stroke-width:150000.000000; stroke-opacity:1; 
stroke-linecap:round; stroke-linejoin:round;">
<path d="M150050000 84940000
L135950000 84940000
" />
</g>
<g style="fill:#C2C2C2; fill-opacity:0.0; 
stroke:#C2C2C2; stroke-width:120000.000000; stroke-opacity:1; 
stroke-linecap:round; stroke-linejoin:round;">
<path d="M127600000 69090000
L127600000 83890000
" />
<path d="M158400000 69090000
L158400000 83890000
" />
<path d="M151400000 83890000
L151400000 69090000
" />
<path d="M151400000 69090000
L158400000 69090000
" />
<path d="M127600000 83890000
L134600000 83890000
" />
<path d="M158400000 83890000
L151400000 83890000
" />
</g>
<g style="fill:#C2C2C2; fill-opacity:0.0; 
stroke:#C2C2C2; stroke-width:150000.000000; stroke-opacity:1; 
stroke-linecap:round; stroke-linejoin:round;">
<path d="M135950000 84940000
L135950000 70840000
" />
<path d="M135950000 70840000
L150050000 70840000
" />
<path d="M150050000 70840000
L150050000 84940000
" />
</g>
<g style="fill:#C2C2C2; fill-opacity:0.0; 
stroke:#C2C2C2; stroke-width:120000.000000; stroke-opacity:1; 
stroke-linecap:round; stroke-linejoin:round;">
<path d="M134600000 69090000
L127600000 69090000
" />
<path d="M134600000 83890000
L134600000 69090000
" />
</g>
<g style="fill:#C2C2C2; fill-opacity:0.0; 
stroke:#C2C2C2; stroke-width:150000.000000; stroke-opacity:1; 
stroke-linecap:round; stroke-linejoin:round;">
<path d="M226460000 23190000
L240560000 23190000
" />
</g>
<g style="fill:#C2C2C2; fill-opacity:0.0; 
stroke:#C2C2C2; stroke-width:120000.000000; stroke-opacity:1; 
stroke-linecap:round; stroke-linejoin:round;">
<path d="M227510000 38640000
L242310000 38640000
" />
<path d="M242310000 21840000
L242310000 14840000
" />
</g>
<g style="fill:#C2C2C2; fill-opacity:0.0; 
stroke:#C2C2C2; stroke-width:150000.000000; stroke-opacity:1; 
stroke-linecap:round; stroke-linejoin:round;">
<path d="M240560000 23190000
L240560000 37290000
" />
</g>
<g style="fill:#C2C2C2; fill-opacity:0.0; 
stroke:#C2C2C2; stroke-width:120000.000000; stroke-opacity:1; 
stroke-linecap:round; stroke-linejoin:round;">
<path d="M242310000 45640000
L227510000 45640000
" />
<path d="M227510000 14840000
L227510000 21840000
" />
<path d="M242310000 38640000
L242310000 45640000
" />
<path d="M227510000 21840000
L242310000 21840000
" />
</g>
<g style="fill:#C2C2C2; fill-opacity:0.0; 
stroke:#C2C2C2; stroke-width:150000.000000; stroke-opacity:1; 
stroke-linecap:round; stroke-linejoin:round;">
<path d="M240560000 37290000
L226460000 37290000
" />
<path d="M226460000 37290000
L226460000 23190000
" />
</g>
<g style="fill:#C2C2C2; fill-opacity:0.0; 
stroke:#C2C2C2; stroke-width:120000.000000; stroke-opacity:1; 
stroke-linecap:round; stroke-linejoin:round;">
<path d="M227510000 45640000
L227510000 38640000
" />
<path d="M242310000 14840000
L227510000 14840000
" />
<path d="M109818700 46762000
L123818700 46762000
" />
<path d="M109818700 32762000
L109818700 46762000
" />
<path d="M123818700 32762000
L109818700 32762000
" />
<path d="M123818700 46762000
L123818700 32762000
" />
<path d="M76193700 65812000
L76193700 51812000
" />
<path d="M62193700 51812000
L62193700 65812000
" />
<path d="M62193700 65812000
L76193700 65812000
" />
<path d="M76193700 51812000
L62193700 51812000
" />
<path d="M62194200 70862000
L62194200 84862000
" />
<path d="M76194200 70862000
L62194200 70862000
" />
<path d="M62194200 84862000
L76194200 84862000
" />
<path d="M76194200 84862000
L76194200 70862000
" />
<path d="M86006200 27712000
L100006200 27712000
" />
<path d="M100006200 13712000
L86006200 13712000
" />
<path d="M100006200 27712000
L100006200 13712000
" />
<path d="M86006200 13712000
L86006200 27712000
" />
<path d="M190493700 65812000
L190493700 51812000
" />
<path d="M190493700 51812000
L176493700 51812000
" />
<path d="M176493700 65812000
L190493700 65812000
" />
<path d="M176493700 51812000
L176493700 65812000
" />
<path d="M157443700 65812000
L171443700 65812000
" />
<path d="M171443700 51812000
L157443700 51812000
" />
<path d="M157443700 51812000
L157443700 65812000
" />
<path d="M171443700 65812000
L171443700 51812000
" />
<path d="M71718700 46762000
L85718700 46762000
" />
<path d="M71718700 32762000
L71718700 46762000
" />
<path d="M85718700 46762000
L85718700 32762000
" />
<path d="M85718700 32762000
L71718700 32762000
" />
<path d="M180968700 32762000
L166968700 32762000
" />
<path d="M180968700 46762000
L180968700 32762000
" />
<path d="M166968700 32762000
L166968700 46762000
" />
<path d="M166968700 46762000
L180968700 46762000
" />
<path d="M200018700 32762000
L186018700 32762000
" />
<path d="M200018700 46762000
L200018700 32762000
" />
<path d="M186018700 32762000
L186018700 46762000
" />
<path d="M186018700 46762000
L200018700 46762000
" />
<path d="M209543700 51812000
L195543700 51812000
" />
<path d="M209543700 65812000
L209543700 51812000
" />
<path d="M195543700 65812000
L209543700 65812000
" />
<path d="M195543700 51812000
L195543700 65812000
" />
<path d="M183350000 84880000
L183350000 70880000
" />
<path d="M183350000 70880000
L169350000 70880000
" />
<path d="M169350000 70880000
L169350000 84880000
" />
<path d="M169350000 84880000
L183350000 84880000
" />
<path d="M43143700 51812000
L43143700 65812000
" />
<path d="M43143700 65812000
L57143700 65812000
" />
<path d="M57143700 65812000
L57143700 51812000
" />
<path d="M57143700 51812000
L43143700 51812000
" />
<path d="M52668700 46762000
L66668700 46762000
" />
<path d="M66668700 46762000
L66668700 32762000
" />
<path d="M66668700 32762000
L52668700 32762000
" />
<path d="M52668700 32762000
L52668700 46762000
" />
<path d="M195256200 27712000
L195256200 13712000
" />
<path d="M181256200 13712000
L181256200 27712000
" />
<path d="M195256200 13712000
L181256200 13712000
" />
<path d="M181256200 27712000
L195256200 27712000
" />
<path d="M114293700 65812000
L114293700 51812000
" />
<path d="M100293700 65812000
L114293700 65812000
" />
<path d="M100293700 51812000
L100293700 65812000
" />
<path d="M114293700 51812000
L100293700 51812000
" />
<path d="M61906200 13712000
L47906200 13712000
" />
<path d="M47906200 13712000
L47906200 27712000
" />
<path d="M47906200 27712000
L61906200 27712000
" />
<path d="M61906200 27712000
L61906200 13712000
" />
<path d="M138106200 27712000
L138106200 13712000
" />
<path d="M138106200 13712000
L124106200 13712000
" />
<path d="M124106200 27712000
L138106200 27712000
" />
<path d="M124106200 13712000
L124106200 27712000
" />
<path d="M142868700 46762000
L142868700 32762000
" />
<path d="M128868700 46762000
L142868700 46762000
" />
<path d="M128868700 32762000
L128868700 46762000
" />
<path d="M142868700 32762000
L128868700 32762000
" />
<path d="M221737700 51812000
L221737700 65812000
" />
<path d="M235737700 65812000
L235737700 51812000
" />
<path d="M235737700 51812000
L221737700 51812000
" />
<path d="M221737700 65812000
L235737700 65812000
" />
<path d="M258675560 82623100
L273079140 82623100
" />
<path d="M258675560 82623100
L258678100 69019620
" />
<path d="M273081680 69019620
L258678100 69019620
" />
<path d="M273081680 69019620
L273079140 82623100
" />
<path d="M219068700 46762000
L219068700 32762000
" />
<path d="M219068700 32762000
L205068700 32762000
" />
<path d="M205068700 46762000
L219068700 46762000
" />
<path d="M205068700 32762000
L205068700 46762000
" />
<path d="M147918700 46762000
L161918700 46762000
" />
<path d="M161918700 32762000
L147918700 32762000
" />
<path d="M147918700 32762000
L147918700 46762000
" />
<path d="M161918700 46762000
L161918700 32762000
" />
</g>
<g style="fill:#C2C2C2; fill-opacity:0.0; 
stroke:#C2C2C2; stroke-width:150000.000000; stroke-opacity:1; 
stroke-linecap:round; stroke-linejoin:round;">
<path d="M95500000 70810000
L109600000 70810000
" />
<path d="M109600000 84910000
L95500000 84910000
" />
<path d="M109600000 70810000
L109600000 84910000
" />
</g>
<g style="fill:#C2C2C2; fill-opacity:0.0; 
stroke:#C2C2C2; stroke-width:120000.000000; stroke-opacity:1; 
stroke-linecap:round; stroke-linejoin:round;">
<path d="M87150000 83860000
L94150000 83860000
" />
<path d="M110950000 83860000
L110950000 69060000
" />
</g>
<g style="fill:#C2C2C2; fill-opacity:0.0; 
stroke:#C2C2C2; stroke-width:150000.000000; stroke-opacity:1; 
stroke-linecap:round; stroke-linejoin:round;">
<path d="M95500000 84910000
L95500000 70810000
" />
</g>
<g style="fill:#C2C2C2; fill-opacity:0.0; 
stroke:#C2C2C2; stroke-width:120000.000000; stroke-opacity:1; 
stroke-linecap:round; stroke-linejoin:round;">
<path d="M117950000 83860000
L110950000 83860000
" />
<path d="M94150000 69060000
L87150000 69060000
" />
<path d="M87150000 69060000
L87150000 83860000
" />
<path d="M94150000 83860000
L94150000 69060000
" />
<path d="M110950000 69060000
L117950000 69060000
" />
<path d="M117950000 69060000
L117950000 83860000
" />
<path d="M29968700 67612000
L36968700 67612000
" />
<path d="M29968700 52812000
L29968700 67612000
" />
</g>
<g style="fill:#C2C2C2; fill-opacity:0.0; 
stroke:#C2C2C2; stroke-width:150000.000000; stroke-opacity:1; 
stroke-linecap:round; stroke-linejoin:round;">
<path d="M14518700 65862000
L14518700 51762000
" />
</g>
<g style="fill:#C2C2C2; fill-opacity:0.0; 
stroke:#C2C2C2; stroke-width:120000.000000; stroke-opacity:1; 
stroke-linecap:round; stroke-linejoin:round;">
<path d="M36968700 67612000
L36968700 52812000
" />
<path d="M13168700 52812000
L13168700 67612000
" />
<path d="M6168700 52812000
L13168700 52812000
" />
</g>
<g style="fill:#C2C2C2; fill-opacity:0.0; 
stroke:#C2C2C2; stroke-width:150000.000000; stroke-opacity:1; 
stroke-linecap:round; stroke-linejoin:round;">
<path d="M28618700 51762000
L28618700 65862000
" />
<path d="M28618700 65862000
L14518700 65862000
" />
</g>
<g style="fill:#C2C2C2; fill-opacity:0.0; 
stroke:#C2C2C2; stroke-width:120000.000000; stroke-opacity:1; 
stroke-linecap:round; stroke-linejoin:round;">
<path d="M6168700 67612000
L6168700 52812000
" />
</g>
<g style="fill:#C2C2C2; fill-opacity:0.0; 
stroke:#C2C2C2; stroke-width:150000.000000; stroke-opacity:1; 
stroke-linecap:round; stroke-linejoin:round;">
<path d="M14518700 51762000
L28618700 51762000
" />
</g>
<g style="fill:#C2C2C2; fill-opacity:0.0; 
stroke:#C2C2C2; stroke-width:120000.000000; stroke-opacity:1; 
stroke-linecap:round; stroke-linejoin:round;">
<path d="M36968700 52812000
L29968700 52812000
" />
<path d="M13168700 67612000
L6168700 67612000
" />
<path d="M273111680 25039620
L273109140 38643100
" />
<path d="M258705560 38643100
L273109140 38643100
" />
<path d="M258705560 38643100
L258708100 25039620
" />
<path d="M273111680 25039620
L258708100 25039620
" />
<path d="M80956200 27712000
L80956200 13712000
" />
<path d="M66956200 27712000
L80956200 27712000
" />
<path d="M80956200 13712000
L66956200 13712000
" />
<path d="M66956200 13712000
L66956200 27712000
" />
<path d="M138393700 51812000
L138393700 65812000
" />
<path d="M138393700 65812000
L152393700 65812000
" />
<path d="M152393700 65812000
L152393700 51812000
" />
<path d="M152393700 51812000
L138393700 51812000
" />
<path d="M28856200 13712000
L28856200 27712000
" />
<path d="M42856200 13712000
L28856200 13712000
" />
<path d="M42856200 27712000
L42856200 13712000
" />
<path d="M28856200 27712000
L42856200 27712000
" />
<path d="M162206200 13712000
L162206200 27712000
" />
<path d="M176206200 27712000
L176206200 13712000
" />
<path d="M162206200 27712000
L176206200 27712000
" />
<path d="M176206200 13712000
L162206200 13712000
" />
<path d="M95243700 65812000
L95243700 51812000
" />
<path d="M81243700 65812000
L95243700 65812000
" />
<path d="M95243700 51812000
L81243700 51812000
" />
<path d="M81243700 51812000
L81243700 65812000
" />
<path d="M214306200 27712000
L214306200 13712000
" />
<path d="M200306200 13712000
L200306200 27712000
" />
<path d="M200306200 27712000
L214306200 27712000
" />
<path d="M214306200 13712000
L200306200 13712000
" />
<path d="M119056200 13712000
L105056200 13712000
" />
<path d="M119056200 27712000
L119056200 13712000
" />
<path d="M105056200 27712000
L119056200 27712000
" />
<path d="M105056200 13712000
L105056200 27712000
" />
<path d="M104768700 46762000
L104768700 32762000
" />
<path d="M90768700 46762000
L104768700 46762000
" />
<path d="M104768700 32762000
L90768700 32762000
" />
<path d="M90768700 32762000
L90768700 46762000
" />
<path d="M143156200 13712000
L143156200 27712000
" />
<path d="M143156200 27712000
L157156200 27712000
" />
<path d="M157156200 27712000
L157156200 13712000
" />
<path d="M157156200 13712000
L143156200 13712000
" />
<path d="M20440000 38650000
L5640000 38650000
" />
<path d="M5640000 45650000
L20440000 45650000
" />
<path d="M20440000 14850000
L20440000 21850000
" />
<path d="M20440000 45650000
L20440000 38650000
" />
</g>
<g style="fill:#C2C2C2; fill-opacity:0.0; 
stroke:#C2C2C2; stroke-width:150000.000000; stroke-opacity:1; 
stroke-linecap:round; stroke-linejoin:round;">
<path d="M21490000 23200000
L21490000 37300000
" />
</g>
<g style="fill:#C2C2C2; fill-opacity:0.0; 
stroke:#C2C2C2; stroke-width:120000.000000; stroke-opacity:1; 
stroke-linecap:round; stroke-linejoin:round;">
<path d="M5640000 21850000
L5640000 14850000
" />
<path d="M20440000 21850000
L5640000 21850000
" />
<path d="M5640000 14850000
L20440000 14850000
" />
</g>
<g style="fill:#C2C2C2; fill-opacity:0.0; 
stroke:#C2C2C2; stroke-width:150000.000000; stroke-opacity:1; 
stroke-linecap:round; stroke-linejoin:round;">
<path d="M7390000 37300000
L7390000 23200000
" />
<path d="M7390000 23200000
L21490000 23200000
" />
</g>
<g style="fill:#C2C2C2; fill-opacity:0.0; 
stroke:#C2C2C2; stroke-width:120000.000000; stroke-opacity:1; 
stroke-linecap:round; stroke-linejoin:round;">
<path d="M5640000 38650000
L5640000 45650000
" />
</g>
<g style="fill:#C2C2C2; fill-opacity:0.0; 
stroke:#C2C2C2; stroke-width:150000.000000; stroke-opacity:1; 
stroke-linecap:round; stroke-linejoin:round;">
<path d="M21490000 37300000
L7390000 37300000
" />
</g>
<g style="fill:#C2C2C2; fill-opacity:0.0; 
stroke:#C2C2C2; stroke-width:120000.000000; stroke-opacity:1; 
stroke-linecap:round; stroke-linejoin:round;">
<path d="M47618700 46762000
L47618700 32762000
" />
<path d="M33618700 32762000
L33618700 46762000
" />
<path d="M33618700 46762000
L47618700 46762000
" />
<path d="M47618700 32762000
L33618700 32762000
" />
<path d="M133343700 65812000
L133343700 51812000
" />
<path d="M119343700 65812000
L133343700 65812000
" />
<path d="M133343700 51812000
L119343700 51812000
" />
<path d="M119343700 51812000
L119343700 65812000
" />
<g >
</g>
<g >
</g>
<g >
</g>
<g >
</g>
<g >
</g>
<g >
</g>
<g >
</g>
<g >
</g>
<g >
</g>
<g >
</g>
<g >
</g>
<g >
</g>
<g >
</g>
<g >
</g>
<g >
</g>
<g >
</g>
<g >
</g>
<g >
</g>
<g >
</g>
<g >
</g>
<g >
</g>
<g >
</g>
<g >
</g>
<g >
</g>
<g >
</g>
<g >
</g>
<g >
</g>
<g >
</g>
<g >
</g>
<g >
</g>
<g >
</g>
<g >
</g>
<g >
</g>
<g >
</g>
<g >
</g>
<g >
</g>
<g >
</g>
<g >
</g>
<g >
</g>
<g >
</g>
<g >
</g>
<g >
</g>
</g> 
</svg>
