<?xml version="1.0" standalone="no"?>
 <!DOCTYPE svg PUBLIC "-//W3C//DTD SVG 1.1//EN" 
 "http://www.w3.org/Graphics/SVG/1.1/DTD/svg11.dtd"> 
<svg
  xmlns:svg="http://www.w3.org/2000/svg"
  xmlns="http://www.w3.org/2000/svg"
  xmlns:xlink="http://www.w3.org/1999/xlink"
  version="1.1"
  width="30.378400cm" height="10.871200cm" viewBox="0 0 119600 42800">
<title>SVG Picture created as gpk60_46sgr-brd.svg date 2021/10/26 15:49:50 </title>
  <desc>Picture generated by PCBNEW </desc>
<g style="fill:#000000; fill-opacity:1;stroke:#000000; stroke-opacity:1;
stroke-linecap:round; stroke-linejoin:round;"
 transform="translate(0 0) scale(1 1)">
</g>
<g style="fill:#000000; fill-opacity:0.0; 
stroke:#000000; stroke-width:-0.000393701; stroke-opacity:1; 
stroke-linecap:round; stroke-linejoin:round;">
</g>
<g style="fill:#000000; fill-opacity:0.0; 
stroke:#000000; stroke-width:59.0551; stroke-opacity:1; 
stroke-linecap:round; stroke-linejoin:round;">
<circle cx="113122" cy="3694" r="433.071" /> 
<circle cx="113101" cy="38315" r="433.071" /> 
<path d="M114407 3261
L114409 3261
" />
</g>
<g style="fill:#000000; fill-opacity:0.0; 
stroke:#000000; stroke-width:78.7402; stroke-opacity:1; 
stroke-linecap:round; stroke-linejoin:round;">
<path d="M113574 39599.6 A825.788 825.788 0.0 0 0 114407 38768.3" />
<path d="M114409 3261
L114407 38768
" />
<path d="M3034 39602
L113573 39599
" />
<path d="M113608 2410
L3055 2402
" />
</g>
<g style="fill:#000000; fill-opacity:0.0; 
stroke:#000000; stroke-width:59.0551; stroke-opacity:1; 
stroke-linecap:round; stroke-linejoin:round;">
<circle cx="3515.07" cy="38312" r="433.071" /> 
<circle cx="3515.07" cy="3692" r="433.071" /> 
</g>
<g style="fill:#000000; fill-opacity:0.0; 
stroke:#000000; stroke-width:78.7402; stroke-opacity:1; 
stroke-linecap:round; stroke-linejoin:round;">
<path d="M2223 38768
L2227 3244
" />
<path d="M2223.57 38768.3 A826.659 826.659 0.0 0 0 3034 39602" />
<path d="M114407 3261.11 A833.249 833.249 0.0 0 0 113608 2412" />
<path d="M3055.89 2402.24 A842.555 842.555 0.0 0 0 2227.49 3244.68" />
</g>
<g style="fill:#000000; fill-opacity:0.0; 
stroke:#000000; stroke-width:47.2441; stroke-opacity:1; 
stroke-linecap:round; stroke-linejoin:round;">
<path d="M6439 8860
L11951 8860
" />
<path d="M6439 3348
L6439 8860
" />
<path d="M11951 3348
L6439 3348
" />
<path d="M11951 8860
L11951 3348
" />
<path d="M15814 3348
L15814 8860
" />
<path d="M15814 8860
L21325 8860
" />
<path d="M21325 8860
L21325 3348
" />
<path d="M21325 3348
L15814 3348
" />
<path d="M23882 3348
L23882 8860
" />
<path d="M23882 8860
L29394 8860
" />
<path d="M29394 8860
L29394 3348
" />
<path d="M29394 3348
L23882 3348
" />
<path d="M37713 4556
L32254 3789
" />
<path d="M36946 10014
L37713 4556
" />
<path d="M31487 9247
L36946 10014
" />
<path d="M32254 3789
L31487 9247
" />
<path d="M45839 6678
L40541 5159
" />
<path d="M44320 11976
L45839 6678
" />
<path d="M39022 10457
L44320 11976
" />
<path d="M40541 5159
L39022 10457
" />
<path d="M47957 7326
L46254 12568
" />
<path d="M46254 12568
L51496 14271
" />
<path d="M51496 14271
L53199 9029
" />
<path d="M53199 9029
L47957 7326
" />
<path d="M11945 10848
L6433 10848
" />
<path d="M11945 16360
L11945 10848
" />
<path d="M6433 16360
L11945 16360
" />
<path d="M6433 10848
L6433 16360
" />
<path d="M16746 10848
L16746 16360
" />
<path d="M16746 16360
L22257 16360
" />
<path d="M22257 16360
L22257 10848
" />
<path d="M22257 10848
L16746 10848
" />
<path d="M30311 11195
L24807 10907
" />
<path d="M30022 16699
L30311 11195
" />
<path d="M24518 16411
L30022 16699
" />
<path d="M24807 10907
L24518 16411
" />
<path d="M33182 11546
L32130 16957
" />
<path d="M32130 16957
L37540 18008
" />
<path d="M37540 18008
L38592 12598
" />
<path d="M38592 12598
L33182 11546
" />
<path d="M41281 13296
L39578 18538
" />
<path d="M39578 18538
L44820 20242
" />
<path d="M44820 20242
L46523 14999
" />
<path d="M46523 14999
L41281 13296
" />
<path d="M48811 15839
L46746 20950
" />
<path d="M46746 20950
L51856 23014
" />
<path d="M51856 23014
L53921 17904
" />
<path d="M53921 17904
L48811 15839
" />
<path d="M6433 18348
L6433 23860
" />
<path d="M6433 23860
L11945 23860
" />
<path d="M11945 23860
L11945 18348
" />
<path d="M11945 18348
L6433 18348
" />
<path d="M16746 18348
L16746 23860
" />
<path d="M16746 23860
L22257 23860
" />
<path d="M22257 23860
L22257 18348
" />
<path d="M22257 18348
L16746 18348
" />
<path d="M30615 19178
L25144 18506
" />
<path d="M29943 24648
L30615 19178
" />
<path d="M24472 23977
L29943 24648
" />
<path d="M25144 18506
L24472 23977
" />
<path d="M33130 19596
L31984 24988
" />
<path d="M31984 24988
L37375 26134
" />
<path d="M37375 26134
L38521 20742
" />
<path d="M38521 20742
L33130 19596
" />
<path d="M46341 23137
L41099 21434
" />
<path d="M44637 28379
L46341 23137
" />
<path d="M39395 26676
L44637 28379
" />
<path d="M41099 21434
L39395 26676
" />
<path d="M53751 26032
L48640 23967
" />
<path d="M51686 31142
L53751 26032
" />
<path d="M46575 29078
L51686 31142
" />
<path d="M48640 23967
L46575 29078
" />
<path d="M6439 25848
L6439 31360
" />
<path d="M6439 31360
L11951 31360
" />
<path d="M11951 31360
L11951 25848
" />
<path d="M11951 25848
L6439 25848
" />
<path d="M30783 27117
L25355 26160
" />
<path d="M29826 32545
L30783 27117
" />
<path d="M24398 31588
L29826 32545
" />
<path d="M25355 26160
L24398 31588
" />
<path d="M35915 28240
L34582 33588
" />
<path d="M34582 33588
L39930 34921
" />
<path d="M39930 34921
L41263 29573
" />
<path d="M41263 29573
L35915 28240
" />
<path d="M50940 32986
L45829 30921
" />
<path d="M48875 38096
L50940 32986
" />
<path d="M43765 36031
L48875 38096
" />
<path d="M45829 30921
L43765 36031
" />
<path d="M59282 9027
L60985 14269
" />
<path d="M60985 14269
L66227 12566
" />
<path d="M66227 12566
L64524 7324
" />
<path d="M64524 7324
L59282 9027
" />
<path d="M71944 5153
L66646 6672
" />
<path d="M73463 10451
L71944 5153
" />
<path d="M68165 11970
L73463 10451
" />
<path d="M66646 6672
L68165 11970
" />
<path d="M74772 4550
L75539 10008
" />
<path d="M75539 10008
L80998 9241
" />
<path d="M80998 9241
L80231 3783
" />
<path d="M80231 3783
L74772 4550
" />
<path d="M83091 3342
L83091 8854
" />
<path d="M83091 8854
L88603 8854
" />
<path d="M88603 8854
L88603 3342
" />
<path d="M88603 3342
L83091 3342
" />
<path d="M96671 3342
L91159 3342
" />
<path d="M96671 8854
L96671 3342
" />
<path d="M91159 8854
L96671 8854
" />
<path d="M91159 3342
L91159 8854
" />
<path d="M104171 3342
L98659 3342
" />
<path d="M104171 8854
L104171 3342
" />
<path d="M98659 8854
L104171 8854
" />
<path d="M98659 3342
L98659 8854
" />
<path d="M111678 3342
L106166 3342
" />
<path d="M111678 8854
L111678 3342
" />
<path d="M106166 8854
L111678 8854
" />
<path d="M106166 3342
L106166 8854
" />
<path d="M58564 17898
L60629 23008
" />
<path d="M60629 23008
L65739 20944
" />
<path d="M65739 20944
L63674 15833
" />
<path d="M63674 15833
L58564 17898
" />
<path d="M65962 14993
L67665 20235
" />
<path d="M67665 20235
L72907 18532
" />
<path d="M72907 18532
L71204 13290
" />
<path d="M71204 13290
L65962 14993
" />
<path d="M79303 11540
L73893 12591
" />
<path d="M80355 16950
L79303 11540
" />
<path d="M74945 18002
L80355 16950
" />
<path d="M73893 12591
L74945 18002
" />
<path d="M82174 11189
L82463 16694
" />
<path d="M82463 16694
L87967 16405
" />
<path d="M87967 16405
L87678 10901
" />
<path d="M87678 10901
L82174 11189
" />
<path d="M95739 10842
L90228 10842
" />
<path d="M95739 16354
L95739 10842
" />
<path d="M90228 16354
L95739 16354
" />
<path d="M90228 10842
L90228 16354
" />
<path d="M97737 10839
L97737 16350
" />
<path d="M97737 16350
L103248 16350
" />
<path d="M103248 16350
L103248 10839
" />
<path d="M103248 10839
L97737 10839
" />
<path d="M110745 10840
L105233 10840
" />
<path d="M110745 16352
L110745 10840
" />
<path d="M105233 16352
L110745 16352
" />
<path d="M105233 10840
L105233 16352
" />
<path d="M63845 23961
L58734 26026
" />
<path d="M65910 29072
L63845 23961
" />
<path d="M60799 31136
L65910 29072
" />
<path d="M58734 26026
L60799 31136
" />
<path d="M71386 21428
L66144 23131
" />
<path d="M73090 26670
L71386 21428
" />
<path d="M67848 28373
L73090 26670
" />
<path d="M66144 23131
L67848 28373
" />
<path d="M73964 20736
L75110 26127
" />
<path d="M75110 26127
L80501 24981
" />
<path d="M80501 24981
L79355 19590
" />
<path d="M79355 19590
L73964 20736
" />
<path d="M87341 18500
L81870 19172
" />
<path d="M88013 23971
L87341 18500
" />
<path d="M82542 24642
L88013 23971
" />
<path d="M81870 19172
L82542 24642
" />
<path d="M90228 18342
L90228 23854
" />
<path d="M90228 23854
L95739 23854
" />
<path d="M95739 23854
L95739 18342
" />
<path d="M95739 18342
L90228 18342
" />
<path d="M106052 18342
L100540 18342
" />
<path d="M106052 23854
L106052 18342
" />
<path d="M100540 23854
L106052 23854
" />
<path d="M100540 18342
L100540 23854
" />
<path d="M66656 30915
L61545 32979
" />
<path d="M68720 36025
L66656 30915
" />
<path d="M63610 38090
L68720 36025
" />
<path d="M61545 32979
L63610 38090
" />
<path d="M71222 29567
L72555 34915
" />
<path d="M72555 34915
L77903 33582
" />
<path d="M77903 33582
L76570 28234
" />
<path d="M76570 28234
L71222 29567
" />
<path d="M87130 26154
L81702 27111
" />
<path d="M88087 31582
L87130 26154
" />
<path d="M82659 32539
L88087 31582
" />
<path d="M81702 27111
L82659 32539
" />
<path d="M100527 25859
L100527 31370
" />
<path d="M100527 31370
L106039 31370
" />
<path d="M106039 31370
L106039 25859
" />
<path d="M106039 25859
L100527 25859
" />
<g >
</g>
<g >
</g>
<g >
</g>
<g >
</g>
<g >
</g>
<g >
</g>
<g >
</g>
<g >
</g>
<g >
</g>
<g >
</g>
<g >
</g>
<g >
</g>
<g >
</g>
<g >
</g>
<g >
</g>
<g >
</g>
<g >
</g>
<g >
</g>
<g >
</g>
<g >
</g>
<g >
</g>
<g >
</g>
<g >
</g>
<g >
</g>
<g >
</g>
<g >
</g>
<g >
</g>
<g >
</g>
<g >
</g>
<g >
</g>
<g >
</g>
<g >
</g>
<g >
</g>
<g >
</g>
<g >
</g>
<g >
</g>
<g >
</g>
<g >
</g>
<g >
</g>
<g >
</g>
<g >
</g>
<g >
</g>
<g >
</g>
<g >
</g>
<g >
</g>
<g >
</g>
<g >
</g>
</g> 
</svg>
