<?xml version="1.0" standalone="no"?>
 <!DOCTYPE svg PUBLIC "-//W3C//DTD SVG 1.1//EN" 
 "http://www.w3.org/Graphics/SVG/1.1/DTD/svg11.dtd"> 
<svg
  xmlns:svg="http://www.w3.org/2000/svg"
  xmlns="http://www.w3.org/2000/svg"
  xmlns:xlink="http://www.w3.org/1999/xlink"
  version="1.1"
  width="30.378400cm" height="10.871200cm" viewBox="0 0 119600 42800">
<title>SVG Picture created as gpk60_33r-brd.svg date 2021/09/10 10:38:24 </title>
  <desc>Picture generated by PCBNEW </desc>
<g style="fill:#000000; fill-opacity:1;stroke:#000000; stroke-opacity:1;
stroke-linecap:round; stroke-linejoin:round;"
 transform="translate(0 0) scale(1 1)">
</g>
<g style="fill:#000000; fill-opacity:0.0; 
stroke:#000000; stroke-width:-0.000393701; stroke-opacity:1; 
stroke-linecap:round; stroke-linejoin:round;">
</g>
<g style="fill:#000000; fill-opacity:0.0; 
stroke:#000000; stroke-width:59.0551; stroke-opacity:1; 
stroke-linecap:round; stroke-linejoin:round;">
<circle cx="112349" cy="38387" r="433.071" /> 
</g>
<g style="fill:#000000; fill-opacity:0.0; 
stroke:#000000; stroke-width:39.3701; stroke-opacity:1; 
stroke-linecap:round; stroke-linejoin:round;">
<path d="M11950 29474
L11621 29474
" />
<path d="M12048 25927
L14731 25927
" />
<path d="M15412 26600
L15412 25820
" />
<path d="M15412 25820
L20923 25820
" />
<path d="M12146 31937
L12107 31933
" />
<path d="M12107 31933
L12061 31917
" />
<path d="M12061 31917
L12021 31892
" />
<path d="M12021 31892
L11989 31858
" />
<path d="M11989 31858
L11965 31817
" />
<path d="M11965 31817
L11952 31770
" />
<path d="M11952 31770
L11950 31740
" />
<path d="M11950 26025
L11959 25983
" />
<path d="M11959 25983
L11985 25950
" />
<path d="M11985 25950
L12023 25930
" />
<path d="M12023 25930
L12048 25927
" />
<path d="M14830 26600
L15412 26600
" />
<path d="M21497 26600
L21497 26025
" />
<path d="M24184 31937
L21694 31937
" />
<path d="M11950 31740
L11950 29474
" />
<path d="M11621 29474
L11621 27549
" />
<path d="M24381 27549
L24710 27549
" />
<path d="M24381 26025
L24381 27549
" />
<path d="M21497 26025
L21507 25983
" />
<path d="M21507 25983
L21533 25950
" />
<path d="M21533 25950
L21571 25930
" />
<path d="M21571 25930
L21596 25927
" />
<path d="M14830 26025
L14830 26600
" />
<path d="M11950 27549
L11950 26025
" />
<path d="M15412 31037
L14830 31037
" />
<path d="M20923 25820
L20923 26600
" />
<path d="M14633 31937
L12146 31937
" />
<path d="M21596 25927
L24283 25927
" />
<path d="M20923 31332
L15412 31332
" />
<path d="M14830 31740
L14826 31780
" />
<path d="M14826 31780
L14810 31825
" />
<path d="M14810 31825
L14785 31865
" />
<path d="M14785 31865
L14751 31898
" />
<path d="M14751 31898
L14709 31921
" />
<path d="M14709 31921
L14663 31935
" />
<path d="M14663 31935
L14633 31937
" />
<path d="M24710 29474
L24381 29474
" />
<path d="M14830 31037
L14830 31740
" />
<path d="M24283 25927
L24326 25937
" />
<path d="M24326 25937
L24359 25963
" />
<path d="M24359 25963
L24378 26001
" />
<path d="M24378 26001
L24381 26025
" />
<path d="M11621 27549
L11950 27549
" />
<path d="M24381 31740
L24377 31780
" />
<path d="M24377 31780
L24362 31825
" />
<path d="M24362 31825
L24336 31865
" />
<path d="M24336 31865
L24302 31898
" />
<path d="M24302 31898
L24261 31921
" />
<path d="M24261 31921
L24214 31935
" />
<path d="M24214 31935
L24184 31937
" />
<path d="M21694 31937
L21655 31933
" />
<path d="M21655 31933
L21609 31917
" />
<path d="M21609 31917
L21569 31892
" />
<path d="M21569 31892
L21537 31858
" />
<path d="M21537 31858
L21513 31817
" />
<path d="M21513 31817
L21500 31770
" />
<path d="M21500 31770
L21497 31740
" />
<path d="M24710 27549
L24710 29474
" />
<path d="M14731 25927
L14774 25937
" />
<path d="M14774 25937
L14807 25963
" />
<path d="M14807 25963
L14827 26001
" />
<path d="M14827 26001
L14830 26025
" />
<path d="M24381 29474
L24381 31740
" />
<path d="M15412 31332
L15412 31037
" />
<path d="M20923 31037
L20923 31332
" />
<path d="M21497 31740
L21497 31037
" />
<path d="M20923 26600
L21497 26600
" />
<path d="M21497 31037
L20923 31037
" />
<path d="M16954 20665
L16996 20675
" />
<path d="M16996 20675
L17029 20701
" />
<path d="M17029 20701
L17049 20739
" />
<path d="M17049 20739
L17052 20764
" />
<path d="M16954 23549
L15430 23549
" />
<path d="M11647 14580
L11942 14580
" />
<path d="M16379 20665
L16954 20665
" />
<path d="M11942 14580
L11942 13998
" />
<path d="M17159 20091
L16379 20091
" />
<path d="M17159 14580
L17159 20091
" />
<path d="M15430 23878
L13505 23878
" />
<path d="M16379 20091
L16379 20665
" />
<path d="M13505 23878
L13505 23549
" />
<path d="M13505 23549
L11239 23549
" />
<path d="M16379 14580
L17159 14580
" />
<path d="M11942 13998
L11239 13998
" />
<path d="M11239 11118
L13505 11118
" />
<path d="M17052 11216
L17052 13899
" />
<path d="M11042 23352
L11042 20862
" />
<path d="M13505 11118
L13505 10789
" />
<path d="M13505 10789
L15430 10789
" />
<path d="M16954 11118
L16996 11127
" />
<path d="M16996 11127
L17029 11153
" />
<path d="M17029 11153
L17049 11191
" />
<path d="M17049 11191
L17052 11216
" />
<path d="M11042 20862
L11046 20823
" />
<path d="M11046 20823
L11062 20777
" />
<path d="M11062 20777
L11087 20737
" />
<path d="M11087 20737
L11121 20705
" />
<path d="M11121 20705
L11162 20681
" />
<path d="M11162 20681
L11209 20668
" />
<path d="M11209 20668
L11239 20665
" />
<path d="M11239 20665
L11942 20665
" />
<path d="M11239 23549
L11199 23545
" />
<path d="M11199 23545
L11154 23530
" />
<path d="M11154 23530
L11114 23504
" />
<path d="M11114 23504
L11081 23470
" />
<path d="M11081 23470
L11058 23429
" />
<path d="M11058 23429
L11044 23382
" />
<path d="M11044 23382
L11042 23352
" />
<path d="M15430 10789
L15430 11118
" />
<path d="M15430 11118
L16954 11118
" />
<path d="M11942 20665
L11942 20091
" />
<path d="M17052 13899
L17042 13942
" />
<path d="M17042 13942
L17016 13975
" />
<path d="M17016 13975
L16978 13995
" />
<path d="M16978 13995
L16954 13998
" />
<path d="M16954 13998
L16379 13998
" />
<path d="M15430 23549
L15430 23878
" />
<path d="M11239 13998
L11199 13994
" />
<path d="M11199 13994
L11154 13978
" />
<path d="M11154 13978
L11114 13953
" />
<path d="M11114 13953
L11081 13919
" />
<path d="M11081 13919
L11058 13877
" />
<path d="M11058 13877
L11044 13831
" />
<path d="M11044 13831
L11042 13801
" />
<path d="M11942 20091
L11647 20091
" />
<path d="M17052 23451
L17042 23494
" />
<path d="M17042 23494
L17016 23527
" />
<path d="M17016 23527
L16978 23546
" />
<path d="M16978 23546
L16954 23549
" />
<path d="M11042 13801
L11042 11314
" />
<path d="M11042 11314
L11046 11275
" />
<path d="M11046 11275
L11062 11229
" />
<path d="M11062 11229
L11087 11189
" />
<path d="M11087 11189
L11121 11157
" />
<path d="M11121 11157
L11162 11133
" />
<path d="M11162 11133
L11209 11120
" />
<path d="M11209 11120
L11239 11118
" />
<path d="M16379 13998
L16379 14580
" />
<path d="M17052 20764
L17052 23451
" />
<path d="M11647 20091
L11647 14580
" />
<path d="M98105 14004
L98063 13994
" />
<path d="M98063 13994
L98030 13968
" />
<path d="M98030 13968
L98010 13930
" />
<path d="M98010 13930
L98007 13905
" />
<path d="M98105 11120
L99629 11120
" />
<path d="M103412 20089
L103117 20089
" />
<path d="M98680 14004
L98105 14004
" />
<path d="M103117 20089
L103117 20671
" />
<path d="M97900 14578
L98680 14578
" />
<path d="M97900 20089
L97900 14578
" />
<path d="M99629 10791
L101554 10791
" />
<path d="M98680 14578
L98680 14004
" />
<path d="M101554 10791
L101554 11120
" />
<path d="M101554 11120
L103820 11120
" />
<path d="M98680 20089
L97900 20089
" />
<path d="M103117 20671
L103820 20671
" />
<path d="M103820 23551
L101554 23551
" />
<path d="M98007 23453
L98007 20770
" />
<path d="M104017 11317
L104017 13807
" />
<path d="M101554 23551
L101554 23880
" />
<path d="M101554 23880
L99629 23880
" />
<path d="M98105 23551
L98063 23542
" />
<path d="M98063 23542
L98030 23516
" />
<path d="M98030 23516
L98010 23478
" />
<path d="M98010 23478
L98007 23453
" />
<path d="M104017 13807
L104013 13846
" />
<path d="M104013 13846
L103997 13892
" />
<path d="M103997 13892
L103972 13932
" />
<path d="M103972 13932
L103938 13964
" />
<path d="M103938 13964
L103897 13988
" />
<path d="M103897 13988
L103850 14001
" />
<path d="M103850 14001
L103820 14004
" />
<path d="M103820 14004
L103117 14004
" />
<path d="M103820 11120
L103860 11124
" />
<path d="M103860 11124
L103905 11139
" />
<path d="M103905 11139
L103945 11165
" />
<path d="M103945 11165
L103978 11199
" />
<path d="M103978 11199
L104001 11240
" />
<path d="M104001 11240
L104015 11287
" />
<path d="M104015 11287
L104017 11317
" />
<path d="M99629 23880
L99629 23551
" />
<path d="M99629 23551
L98105 23551
" />
<path d="M103117 14004
L103117 14578
" />
<path d="M98007 20770
L98017 20727
" />
<path d="M98017 20727
L98043 20694
" />
<path d="M98043 20694
L98081 20674
" />
<path d="M98081 20674
L98105 20671
" />
<path d="M98105 20671
L98680 20671
" />
<path d="M99629 11120
L99629 10791
" />
<path d="M103820 20671
L103860 20675
" />
<path d="M103860 20675
L103905 20691
" />
<path d="M103905 20691
L103945 20716
" />
<path d="M103945 20716
L103978 20750
" />
<path d="M103978 20750
L104001 20792
" />
<path d="M104001 20792
L104015 20838
" />
<path d="M104015 20838
L104017 20868
" />
<path d="M103117 14578
L103412 14578
" />
<path d="M98007 11218
L98017 11175
" />
<path d="M98017 11175
L98043 11142
" />
<path d="M98043 11142
L98081 11123
" />
<path d="M98081 11123
L98105 11120
" />
<path d="M104017 20868
L104017 23355
" />
<path d="M104017 23355
L104013 23394
" />
<path d="M104013 23394
L103997 23440
" />
<path d="M103997 23440
L103972 23480
" />
<path d="M103972 23480
L103938 23512
" />
<path d="M103938 23512
L103897 23536
" />
<path d="M103897 23536
L103850 23549
" />
<path d="M103850 23549
L103820 23551
" />
<path d="M98680 20671
L98680 20089
" />
<path d="M98007 13905
L98007 11218
" />
<path d="M103412 14578
L103412 20089
" />
</g>
<g style="fill:#000000; fill-opacity:0.0; 
stroke:#000000; stroke-width:59.0551; stroke-opacity:1; 
stroke-linecap:round; stroke-linejoin:round;">
<circle cx="2753.07" cy="3764" r="433.071" /> 
</g>
<g style="fill:#000000; fill-opacity:0.0; 
stroke:#000000; stroke-width:78.7402; stroke-opacity:1; 
stroke-linecap:round; stroke-linejoin:round;">
<path d="M2272 39674
L112811 39671
" />
</g>
<g style="fill:#000000; fill-opacity:0.0; 
stroke:#000000; stroke-width:59.0551; stroke-opacity:1; 
stroke-linecap:round; stroke-linejoin:round;">
<circle cx="112360" cy="3766" r="433.071" /> 
<path d="M113645 3333
L113647 3333
" />
</g>
<g style="fill:#000000; fill-opacity:0.0; 
stroke:#000000; stroke-width:78.7402; stroke-opacity:1; 
stroke-linecap:round; stroke-linejoin:round;">
<path d="M112812 39671.6 A825.788 825.788 0.0 0 0 113645 38840.3" />
<path d="M113647 3333
L113645 38840
" />
<path d="M112846 2482
L2293 2474
" />
<path d="M1461 38840
L1465 3316
" />
<path d="M1461.57 38840.3 A826.659 826.659 0.0 0 0 2272 39674" />
<path d="M113645 3333.11 A833.249 833.249 0.0 0 0 112846 2484" />
<path d="M2293.89 2474.24 A842.555 842.555 0.0 0 0 1465.49 3316.68" />
</g>
<g style="fill:#000000; fill-opacity:0.0; 
stroke:#000000; stroke-width:59.0551; stroke-opacity:1; 
stroke-linecap:round; stroke-linejoin:round;">
<circle cx="2733" cy="38385.1" r="433.071" /> 
</g>
<g style="fill:#000000; fill-opacity:0.0; 
stroke:#000000; stroke-width:47.2441; stroke-opacity:1; 
stroke-linecap:round; stroke-linejoin:round;">
<path d="M25607 10839
L20096 10839
" />
<path d="M25607 16350
L25607 10839
" />
<path d="M20096 16350
L25607 16350
" />
<path d="M20096 10839
L20096 16350
" />
<path d="M33107 10839
L27596 10839
" />
<path d="M33107 16350
L33107 10839
" />
<path d="M27596 16350
L33107 16350
" />
<path d="M27596 10839
L27596 16350
" />
<path d="M35096 10839
L35096 16350
" />
<path d="M35096 16350
L40607 16350
" />
<path d="M40607 16350
L40607 10839
" />
<path d="M40607 10839
L35096 10839
" />
<path d="M48107 10839
L42596 10839
" />
<path d="M48107 16350
L48107 10839
" />
<path d="M42596 16350
L48107 16350
" />
<path d="M42596 10839
L42596 16350
" />
<path d="M50096 10839
L50096 16350
" />
<path d="M50096 16350
L55607 16350
" />
<path d="M55607 16350
L55607 10839
" />
<path d="M55607 10839
L50096 10839
" />
<path d="M63107 10839
L57596 10839
" />
<path d="M63107 16350
L63107 10839
" />
<path d="M57596 16350
L63107 16350
" />
<path d="M57596 10839
L57596 16350
" />
<path d="M65096 10839
L65096 16350
" />
<path d="M65096 16350
L70607 16350
" />
<path d="M70607 16350
L70607 10839
" />
<path d="M70607 10839
L65096 10839
" />
<path d="M72596 10839
L72596 16350
" />
<path d="M72596 16350
L78107 16350
" />
<path d="M78107 16350
L78107 10839
" />
<path d="M78107 10839
L72596 10839
" />
<path d="M85607 10839
L80096 10839
" />
<path d="M85607 16350
L85607 10839
" />
<path d="M80096 16350
L85607 16350
" />
<path d="M80096 10839
L80096 16350
" />
<path d="M87596 10839
L87596 16350
" />
<path d="M87596 16350
L93107 16350
" />
<path d="M93107 16350
L93107 10839
" />
<path d="M93107 10839
L87596 10839
" />
<path d="M27482 18338
L21971 18338
" />
<path d="M27482 23850
L27482 18338
" />
<path d="M21971 23850
L27482 23850
" />
<path d="M21971 18338
L21971 23850
" />
<path d="M34982 18338
L29471 18338
" />
<path d="M34982 23850
L34982 18338
" />
<path d="M29471 23850
L34982 23850
" />
<path d="M29471 18338
L29471 23850
" />
<path d="M42483 18338
L36971 18338
" />
<path d="M42483 23850
L42483 18338
" />
<path d="M36971 23850
L42483 23850
" />
<path d="M36971 18338
L36971 23850
" />
<path d="M44471 18338
L44471 23850
" />
<path d="M44471 23850
L49983 23850
" />
<path d="M49983 23850
L49983 18338
" />
<path d="M49983 18338
L44471 18338
" />
<path d="M51971 18338
L51971 23850
" />
<path d="M51971 23850
L57483 23850
" />
<path d="M57483 23850
L57483 18338
" />
<path d="M57483 18338
L51971 18338
" />
<path d="M64983 18338
L59471 18338
" />
<path d="M64983 23850
L64983 18338
" />
<path d="M59471 23850
L64983 23850
" />
<path d="M59471 18338
L59471 23850
" />
<path d="M72483 18338
L66971 18338
" />
<path d="M72483 23850
L72483 18338
" />
<path d="M66971 23850
L72483 23850
" />
<path d="M66971 18338
L66971 23850
" />
<path d="M74471 18338
L74471 23850
" />
<path d="M74471 23850
L79983 23850
" />
<path d="M79983 23850
L79983 18338
" />
<path d="M79983 18338
L74471 18338
" />
<path d="M87483 18338
L81971 18338
" />
<path d="M87483 23850
L87483 18338
" />
<path d="M81971 23850
L87483 23850
" />
<path d="M81971 18338
L81971 23850
" />
<path d="M89471 18338
L89471 23850
" />
<path d="M89471 23850
L94983 23850
" />
<path d="M94983 23850
L94983 18338
" />
<path d="M94983 18338
L89471 18338
" />
<path d="M27596 25838
L27596 31350
" />
<path d="M27596 31350
L33107 31350
" />
<path d="M33107 31350
L33107 25838
" />
<path d="M33107 25838
L27596 25838
" />
<path d="M35096 25838
L35096 31350
" />
<path d="M35096 31350
L40607 31350
" />
<path d="M40607 31350
L40607 25838
" />
<path d="M40607 25838
L35096 25838
" />
<path d="M42596 25838
L42596 31350
" />
<path d="M42596 31350
L48107 31350
" />
<path d="M48107 31350
L48107 25838
" />
<path d="M48107 25838
L42596 25838
" />
<path d="M55607 25838
L50096 25838
" />
<path d="M55607 31350
L55607 25838
" />
<path d="M50096 31350
L55607 31350
" />
<path d="M50096 25838
L50096 31350
" />
<path d="M57596 25838
L57596 31350
" />
<path d="M57596 31350
L63107 31350
" />
<path d="M63107 31350
L63107 25838
" />
<path d="M63107 25838
L57596 25838
" />
<path d="M70607 25838
L65096 25838
" />
<path d="M70607 31350
L70607 25838
" />
<path d="M65096 31350
L70607 31350
" />
<path d="M65096 25838
L65096 31350
" />
<path d="M78107 25838
L72596 25838
" />
<path d="M78107 31350
L78107 25838
" />
<path d="M72596 31350
L78107 31350
" />
<path d="M72596 25838
L72596 31350
" />
<path d="M85607 25838
L80096 25838
" />
<path d="M85607 31350
L85607 25838
" />
<path d="M80096 31350
L85607 31350
" />
<path d="M80096 25838
L80096 31350
" />
<path d="M87596 25838
L87596 31350
" />
<path d="M87596 31350
L93107 31350
" />
<path d="M93107 31350
L93107 25838
" />
<path d="M93107 25838
L87596 25838
" />
<path d="M96971 25838
L96971 31350
" />
<path d="M96971 31350
L102483 31350
" />
<path d="M102483 31350
L102483 25838
" />
<path d="M102483 25838
L96971 25838
" />
<g >
</g>
<g >
</g>
<g >
</g>
<g >
</g>
<g >
</g>
<g >
</g>
<g >
</g>
<g >
</g>
<g >
</g>
<g >
</g>
<g >
</g>
<g >
</g>
<g >
</g>
<g >
</g>
<g >
</g>
<g >
</g>
<g >
</g>
<g >
</g>
<g >
</g>
<g >
</g>
<g >
</g>
<g >
</g>
<g >
</g>
<g >
</g>
<g >
</g>
<g >
</g>
<g >
</g>
<g >
</g>
<g >
</g>
<g >
</g>
<g >
</g>
</g> 
</svg>
