<?xml version="1.0" standalone="no"?>
 <!DOCTYPE svg PUBLIC "-//W3C//DTD SVG 1.1//EN" 
 "http://www.w3.org/Graphics/SVG/1.1/DTD/svg11.dtd"> 
<svg
  xmlns:svg="http://www.w3.org/2000/svg"
  xmlns="http://www.w3.org/2000/svg"
  xmlns:xlink="http://www.w3.org/1999/xlink"
  version="1.1"
  width="30.378400cm" height="10.871200cm" viewBox="0 0 119600 42800">
<title>SVG Picture created as num-num strawberry-brd.svg date 2021/10/29 21:35:29 </title>
  <desc>Picture generated by PCBNEW </desc>
<g style="fill:#000000; fill-opacity:1;stroke:#000000; stroke-opacity:1;
stroke-linecap:round; stroke-linejoin:round;"
 transform="translate(0 0) scale(1 1)">
</g>
<g style="fill:#000000; fill-opacity:0.0; 
stroke:#000000; stroke-width:-0.000393701; stroke-opacity:1; 
stroke-linecap:round; stroke-linejoin:round;">
</g>
<g style="fill:#000000; fill-opacity:0.0; 
stroke:#000000; stroke-width:59.0551; stroke-opacity:1; 
stroke-linecap:round; stroke-linejoin:round;">
<circle cx="32633.9" cy="10465" r="433.071" /> 
<circle cx="32609.9" cy="37438" r="433.071" /> 
<circle cx="79589.9" cy="37434" r="433.071" /> 
<circle cx="79619.9" cy="10463" r="433.071" /> 
</g>
<g style="fill:#000000; fill-opacity:0.0; 
stroke:#000000; stroke-width:78.7402; stroke-opacity:1; 
stroke-linecap:round; stroke-linejoin:round;">
<path d="M30964 38229 A842.555 842.555 0.0 0 0 31806.4 39057.4" />
<path d="M80375.6 39056.4 A842.555 842.555 0.0 0 0 81204 38214" />
<path d="M81224 9657.4 A842.555 842.555 0.0 0 0 80381.6 8829" />
<path d="M34660 8829
L31804 8829
" />
<path d="M31806 39057
L80375 39056
" />
<path d="M80381 8829
L34660 8829
" />
<path d="M81224 9657
L81204 38214
" />
<path d="M31804 8829 A842.555 842.555 0.0 0 0 30975.6 9671.44" />
<path d="M30964 38229
L30975 9671
" />
</g>
<g style="fill:#000000; fill-opacity:0.0; 
stroke:#000000; stroke-width:47.2441; stroke-opacity:1; 
stroke-linecap:round; stroke-linejoin:round;">
<path d="M38677 23598
L38676 28953
" />
<path d="M38677 23598
L33006 23598
" />
<path d="M33005 28953
L33006 23598
" />
<path d="M33005 28953
L38676 28953
" />
<path d="M47137 11739
L41626 11739
" />
<path d="M47137 17250
L47137 11739
" />
<path d="M41626 17250
L47137 17250
" />
<path d="M41626 11739
L41626 17250
" />
<path d="M49126 11739
L49126 17250
" />
<path d="M49126 17250
L54637 17250
" />
<path d="M54637 17250
L54637 11739
" />
<path d="M54637 11739
L49126 11739
" />
<path d="M62137 11739
L56626 11739
" />
<path d="M62137 17250
L62137 11739
" />
<path d="M56626 17250
L62137 17250
" />
<path d="M56626 11739
L56626 17250
" />
<path d="M69637 11739
L64126 11739
" />
<path d="M69637 17250
L69637 11739
" />
<path d="M64126 17250
L69637 17250
" />
<path d="M64126 11739
L64126 17250
" />
<path d="M71626 11739
L71626 17250
" />
<path d="M71626 17250
L77137 17250
" />
<path d="M77137 17250
L77137 11739
" />
<path d="M77137 11739
L71626 11739
" />
<path d="M41626 19239
L41626 24750
" />
<path d="M41626 24750
L47137 24750
" />
<path d="M47137 24750
L47137 19239
" />
<path d="M47137 19239
L41626 19239
" />
<path d="M49126 19239
L49126 24750
" />
<path d="M49126 24750
L54637 24750
" />
<path d="M54637 24750
L54637 19239
" />
<path d="M54637 19239
L49126 19239
" />
<path d="M56626 19239
L56626 24750
" />
<path d="M56626 24750
L62137 24750
" />
<path d="M62137 24750
L62137 19239
" />
<path d="M62137 19239
L56626 19239
" />
<path d="M64126 19239
L64126 24750
" />
<path d="M64126 24750
L69637 24750
" />
<path d="M69637 24750
L69637 19239
" />
<path d="M69637 19239
L64126 19239
" />
<path d="M77137 19239
L71626 19239
" />
<path d="M77137 24750
L77137 19239
" />
<path d="M71626 24750
L77137 24750
" />
<path d="M71626 19239
L71626 24750
" />
<path d="M45454 29156
L40130 30582
" />
<path d="M46881 34480
L45454 29156
" />
<path d="M41557 35906
L46881 34480
" />
<path d="M40130 30582
L41557 35906
" />
<path d="M54617 28674
L49106 28674
" />
<path d="M54617 34185
L54617 28674
" />
<path d="M49106 34185
L54617 34185
" />
<path d="M49106 28674
L49106 34185
" />
<path d="M62117 28674
L56606 28674
" />
<path d="M62117 34185
L62117 28674
" />
<path d="M56606 34185
L62117 34185
" />
<path d="M56606 28674
L56606 34185
" />
<path d="M64106 28675
L64106 34186
" />
<path d="M64106 34186
L69617 34186
" />
<path d="M69617 34186
L69617 28675
" />
<path d="M69617 28675
L64106 28675
" />
<path d="M78593 30583
L73269 29157
" />
<path d="M77166 35907
L78593 30583
" />
<path d="M71842 34481
L77166 35907
" />
<path d="M73269 29157
L71842 34481
" />
<g >
</g>
<g >
</g>
<g >
</g>
<g >
</g>
<g >
</g>
<g >
</g>
<g >
</g>
<g >
</g>
<g >
</g>
<g >
</g>
<g >
</g>
<g >
</g>
<g >
</g>
<g >
</g>
<g >
</g>
<g >
</g>
<g >
</g>
</g> 
</svg>
