<?xml version="1.0" standalone="no"?>
 <!DOCTYPE svg PUBLIC "-//W3C//DTD SVG 1.1//EN" 
 "http://www.w3.org/Graphics/SVG/1.1/DTD/svg11.dtd"> 
<svg
  xmlns:svg="http://www.w3.org/2000/svg"
  xmlns="http://www.w3.org/2000/svg"
  xmlns:xlink="http://www.w3.org/1999/xlink"
  version="1.1"
  width="30.378400cm" height="10.871200cm" viewBox="0 0 119600 42800">
<title>SVG Picture created as num-num strawberry-brd.svg date 2021/10/12 17:56:43 </title>
  <desc>Picture generated by PCBNEW </desc>
<g style="fill:#000000; fill-opacity:1;stroke:#000000; stroke-opacity:1;
stroke-linecap:round; stroke-linejoin:round;"
 transform="translate(0 0) scale(1 1)">
</g>
<g style="fill:#000000; fill-opacity:0.0; 
stroke:#000000; stroke-width:-0.000393701; stroke-opacity:1; 
stroke-linecap:round; stroke-linejoin:round;">
</g>
<g style="fill:#000000; fill-opacity:0.0; 
stroke:#000000; stroke-width:59.0551; stroke-opacity:1; 
stroke-linecap:round; stroke-linejoin:round;">
<circle cx="86664.9" cy="7011" r="433.071" /> 
<circle cx="86633.9" cy="33982" r="433.071" /> 
<circle cx="39651.9" cy="33986" r="433.071" /> 
<circle cx="39675.9" cy="7013" r="433.071" /> 
</g>
<g style="fill:#000000; fill-opacity:0.0; 
stroke:#000000; stroke-width:78.7402; stroke-opacity:1; 
stroke-linecap:round; stroke-linejoin:round;">
<path d="M38010 34777 A842.555 842.555 0.0 0 0 38852.4 35605.4" />
<path d="M87421.6 35604.4 A842.555 842.555 0.0 0 0 88250 34762" />
<path d="M88270 6205.4 A842.555 842.555 0.0 0 0 87427.6 5377" />
<path d="M38852 35605
L87421 35604
" />
<path d="M87427 5377
L38850 5377
" />
<path d="M88270 6205
L88250 34762
" />
<path d="M38850 5377 A842.555 842.555 0.0 0 0 38021.6 6219.44" />
<path d="M38010 34777
L38021 6219
" />
</g>
<g style="fill:#000000; fill-opacity:0.0; 
stroke:#000000; stroke-width:47.2441; stroke-opacity:1; 
stroke-linecap:round; stroke-linejoin:round;">
<path d="M85688 27107
L80364 25680
" />
<path d="M84261 32431
L85688 27107
" />
<path d="M78937 31004
L84261 32431
" />
<path d="M80364 25680
L78937 31004
" />
<path d="M54183 8287
L48672 8287
" />
<path d="M54183 13798
L54183 8287
" />
<path d="M48672 13798
L54183 13798
" />
<path d="M48672 8287
L48672 13798
" />
<path d="M56172 8287
L56172 13798
" />
<path d="M56172 13798
L61683 13798
" />
<path d="M61683 13798
L61683 8287
" />
<path d="M61683 8287
L56172 8287
" />
<path d="M69183 8287
L63672 8287
" />
<path d="M69183 13798
L69183 8287
" />
<path d="M63672 13798
L69183 13798
" />
<path d="M63672 8287
L63672 13798
" />
<path d="M76683 8287
L71172 8287
" />
<path d="M76683 13798
L76683 8287
" />
<path d="M71172 13798
L76683 13798
" />
<path d="M71172 8287
L71172 13798
" />
<path d="M78672 8287
L78672 13798
" />
<path d="M78672 13798
L84183 13798
" />
<path d="M84183 13798
L84183 8287
" />
<path d="M84183 8287
L78672 8287
" />
<path d="M48672 15786
L48672 21298
" />
<path d="M48672 21298
L54183 21298
" />
<path d="M54183 21298
L54183 15786
" />
<path d="M54183 15786
L48672 15786
" />
<path d="M61683 15786
L56172 15786
" />
<path d="M61683 21298
L61683 15786
" />
<path d="M56172 21298
L61683 21298
" />
<path d="M56172 15786
L56172 21298
" />
<path d="M63672 15786
L63672 21298
" />
<path d="M63672 21298
L69183 21298
" />
<path d="M69183 21298
L69183 15786
" />
<path d="M69183 15786
L63672 15786
" />
<path d="M71172 15786
L71172 21298
" />
<path d="M71172 21298
L76683 21298
" />
<path d="M76683 21298
L76683 15786
" />
<path d="M76683 15786
L71172 15786
" />
<path d="M84183 15786
L78672 15786
" />
<path d="M84183 21298
L84183 15786
" />
<path d="M78672 21298
L84183 21298
" />
<path d="M78672 15786
L78672 21298
" />
<path d="M47194 27128
L48621 32452
" />
<path d="M48621 32452
L53945 31025
" />
<path d="M53945 31025
L52518 25701
" />
<path d="M52518 25701
L47194 27128
" />
<path d="M61663 25222
L56152 25222
" />
<path d="M61663 30733
L61663 25222
" />
<path d="M56152 30733
L61663 30733
" />
<path d="M56152 25222
L56152 30733
" />
<path d="M63652 25222
L63652 30733
" />
<path d="M63652 30733
L69163 30733
" />
<path d="M69163 30733
L69163 25222
" />
<path d="M69163 25222
L63652 25222
" />
<path d="M76663 25222
L71152 25222
" />
<path d="M76663 30733
L76663 25222
" />
<path d="M71152 30733
L76663 30733
" />
<path d="M71152 25222
L71152 30733
" />
<g >
</g>
<g >
</g>
<g >
</g>
<g >
</g>
<g >
</g>
<g >
</g>
<g >
</g>
<g >
</g>
<g >
</g>
<g >
</g>
<g >
</g>
<g >
</g>
<g >
</g>
<g >
</g>
<g >
</g>
<g >
</g>
</g> 
</svg>
