<?xml version="1.0" standalone="no"?>
 <!DOCTYPE svg PUBLIC "-//W3C//DTD SVG 1.1//EN" 
 "http://www.w3.org/Graphics/SVG/1.1/DTD/svg11.dtd"> 
<svg
  xmlns:svg="http://www.w3.org/2000/svg"
  xmlns="http://www.w3.org/2000/svg"
  xmlns:xlink="http://www.w3.org/1999/xlink"
  version="1.1"
  width="27.614880cm" height="10.568940cm" viewBox="0 0 276148800 105689400">
<title>SVG Picture created as sak37r2re-Edge_Cuts.svg date 2022/02/07 17:32:45 </title>
  <desc>Picture generated by PCBNEW </desc>
<g style="fill:#000000; fill-opacity:1.000000;stroke:#000000; stroke-opacity:1.000000;
stroke-linecap:round; stroke-linejoin:round;"
 transform="translate(0 0) scale(1 1)">
</g>
<g style="fill:#000000; fill-opacity:0.0; 
stroke:#000000; stroke-width:0.000000; stroke-opacity:1; 
stroke-linecap:round; stroke-linejoin:round;">
</g>
<g style="fill:#A0A0A0; fill-opacity:0.0; 
stroke:#A0A0A0; stroke-width:0.000000; stroke-opacity:1; 
stroke-linecap:round; stroke-linejoin:round;">
</g>
<g style="fill:#A0A0A0; fill-opacity:0.0; 
stroke:#A0A0A0; stroke-width:200000.000000; stroke-opacity:1; 
stroke-linecap:round; stroke-linejoin:round;">
<path d="M144904068.327390 98530133.029529 A2219954.000000 2219954.000000 0.0 0 0 147079186.993811 100652308.321719" />
<path d="M249187187 92490758
L249187187 98490758
" />
<path d="M21425680 12148393
L21425680 6148393
" />
<path d="M2290561.327390 90486218.029529 A2219954.000000 2219954.000000 0.0 0 0 4465679.993811 92608393.321719" />
<path d="M123452068.986955 100662932.321904 A2219953.000000 2219953.000000 0.0 0 0 125627186.673572 98540757.985669" />
<path d="M144985680 12098393
L125708798 12109018
" />
<path d="M147079187 100652308
L247012069 100612933
" />
<path d="M268205680 14148393
L268233987 90648393
" />
<path d="M21344068.327390 98580133.029529 A2219954.000000 2219954.000000 0.0 0 0 23519186.993811 100702308.321719" />
<path d="M249268798 6059018
L249265680 12043123
" />
<path d="M4465680 92608393
L21347187 92596028
" />
<path d="M125627187 92540758
L144904069 92530133
" />
<path d="M268205680.033826 14148393.000295 A2099713.000000 2099713.000000 0.0 0 0 266147186.998631 12030758.069837" />
<path d="M144985680 12098393
L144985680 6098393
" />
<path d="M249187187 92490758
L266226930 92478393
" />
<path d="M247093680 3936843
L147160798 3976218
" />
<path d="M125627187 92540758
L125627187 98540758
" />
<path d="M23600798.013045 4026218.678096 A2219953.000000 2219953.000000 0.0 0 0 21425680.326428 6148393.014331" />
<path d="M123533680 3986843
L23600798 4026218
" />
<path d="M144904069 98530133
L144904069 92530133
" />
<path d="M266147187 12030758
L249265680 12043123
" />
<path d="M125708798 6109018
L125708798 12109018
" />
<path d="M249268798.672610 6059017.970471 A2219954.000000 2219954.000000 0.0 0 0 247093680.006189 3936842.678281" />
<path d="M266226929.991118 92478392.471115 A2053732.000000 2053732.000000 0.0 0 0 268233986.685114 90648392.965536" />
<path d="M147160798.013045 3976218.678096 A2219953.000000 2219953.000000 0.0 0 0 144985680.326428 6098393.014331" />
<path d="M247012068.986955 100612932.321904 A2219953.000000 2219953.000000 0.0 0 0 249187186.673572 98490757.985669" />
<path d="M21344069 98580133
L21347187 92596028
" />
<path d="M4415937.014530 12160758.865264 A2148520.000000 2148520.000000 0.0 0 0 2327187.353536 13990758.052946" />
<path d="M2290562 90486218
L2327187 13990758
" />
<path d="M23519187 100702308
L123452069 100662933
" />
<path d="M125708798.672610 6109017.970471 A2219954.000000 2219954.000000 0.0 0 0 123533680.006189 3986842.678281" />
<path d="M21425680 12148393
L4415937 12160758
" />
</g>
<g style="fill:#A0A0A0; fill-opacity:0.0; 
stroke:#A0A0A0; stroke-width:100000.000000; stroke-opacity:1; 
stroke-linecap:round; stroke-linejoin:round;">
<path d="M243958814.000000,42285117.000000 C243958814.000000,42285117.000000 243958814.000000,48600493.000000 243958814.000000,48600493.000000" />
<path d="M243958814.000000,48600493.000000 C243958814.000000,48876639.000000 243734948.000000,49100506.000000 243458802.000000,49100506.000000" />
<path d="M228693962.000000,48850500.000000 C228693962.000000,48850500.000000 228693962.000000,42035132.000000 228693962.000000,42035132.000000" />
<path d="M228422058.000000,40307137.000000 C228422058.000000,40307137.000000 228422058.000000,26307151.000000 228422058.000000,26307151.000000" />
<path d="M243958814.000000,18023979.000000 C243958814.000000,18023979.000000 243958814.000000,24348938.000000 243958814.000000,24348938.000000" />
<path d="M228943969.000000,49100506.000000 C228805906.000000,49100506.000000 228693962.000000,48988562.000000 228693962.000000,48850500.000000" />
<path d="M241673941.000000,26307151.000000 C241673941.000000,26307151.000000 242422043.000000,26307151.000000 242422043.000000,26307151.000000" />
<path d="M228943969.000000,24848929.000000 C228805906.000000,24848929.000000 228693962.000000,24737006.000000 228693962.000000,24598922.000000" />
<path d="M242422043.000000,26307151.000000 C242422043.000000,26307151.000000 242422043.000000,40307137.000000 242422043.000000,40307137.000000" />
<path d="M237703425.000000,49935856.000000 C237703425.000000,49935856.000000 232813349.000000,49935856.000000 232813349.000000,49935856.000000" />
<path d="M241673941.000000,40307137.000000 C241673941.000000,40307137.000000 241673941.000000,41785126.000000 241673941.000000,41785126.000000" />
<path d="M228693962.000000,24598922.000000 C228693962.000000,24598922.000000 228693962.000000,17773973.000000 228693962.000000,17773973.000000" />
<path d="M243458802.000000,24848929.000000 C243458802.000000,24848929.000000 241673941.000000,24848929.000000 241673941.000000,24848929.000000" />
<path d="M243458802.000000,49100506.000000 C243458802.000000,49100506.000000 237703425.000000,49100506.000000 237703425.000000,49100506.000000" />
<path d="M228943969.000000,17523988.000000 C228943969.000000,17523988.000000 232813349.000000,17523988.000000 232813349.000000,17523988.000000" />
<path d="M230403074.000000,26307151.000000 C230403074.000000,26307151.000000 230403074.000000,24848929.000000 230403074.000000,24848929.000000" />
<path d="M230403074.000000,24848929.000000 C230403074.000000,24848929.000000 228943969.000000,24848929.000000 228943969.000000,24848929.000000" />
<path d="M237703425.000000,49100506.000000 C237703425.000000,49100506.000000 237703425.000000,49935856.000000 237703425.000000,49935856.000000" />
<path d="M237703425.000000,16688617.000000 C237703425.000000,16688617.000000 237703425.000000,17523988.000000 237703425.000000,17523988.000000" />
<path d="M243458802.000000,17523988.000000 C243734948.000000,17523988.000000 243958814.000000,17747833.000000 243958814.000000,18023979.000000" />
<path d="M237703425.000000,17523988.000000 C237703425.000000,17523988.000000 243458802.000000,17523988.000000 243458802.000000,17523988.000000" />
<path d="M230403074.000000,40307137.000000 C230403074.000000,40307137.000000 228422058.000000,40307137.000000 228422058.000000,40307137.000000" />
<path d="M228943969.000000,41785126.000000 C228943969.000000,41785126.000000 230403074.000000,41785126.000000 230403074.000000,41785126.000000" />
<path d="M228693962.000000,42035132.000000 C228693962.000000,41897048.000000 228805906.000000,41785126.000000 228943969.000000,41785126.000000" />
<path d="M228422058.000000,26307151.000000 C228422058.000000,26307151.000000 230403074.000000,26307151.000000 230403074.000000,26307151.000000" />
<path d="M243958814.000000,24348938.000000 C243958814.000000,24625062.000000 243734948.000000,24848929.000000 243458802.000000,24848929.000000" />
<path d="M232813349.000000,49935856.000000 C232813349.000000,49935856.000000 232813349.000000,49100506.000000 232813349.000000,49100506.000000" />
<path d="M232813349.000000,16688617.000000 C232813349.000000,16688617.000000 237703425.000000,16688617.000000 237703425.000000,16688617.000000" />
<path d="M241673941.000000,24848929.000000 C241673941.000000,24848929.000000 241673941.000000,26307151.000000 241673941.000000,26307151.000000" />
<path d="M228693962.000000,17773973.000000 C228693962.000000,17635911.000000 228805906.000000,17523988.000000 228943969.000000,17523988.000000" />
<path d="M230403074.000000,41785126.000000 C230403074.000000,41785126.000000 230403074.000000,40307137.000000 230403074.000000,40307137.000000" />
<path d="M232813349.000000,49100506.000000 C232813349.000000,49100506.000000 228943969.000000,49100506.000000 228943969.000000,49100506.000000" />
<path d="M243458802.000000,41785126.000000 C243734948.000000,41785126.000000 243958814.000000,42008992.000000 243958814.000000,42285117.000000" />
<path d="M232813349.000000,17523988.000000 C232813349.000000,17523988.000000 232813349.000000,16688617.000000 232813349.000000,16688617.000000" />
<path d="M241673941.000000,41785126.000000 C241673941.000000,41785126.000000 243458802.000000,41785126.000000 243458802.000000,41785126.000000" />
<path d="M242422043.000000,40307137.000000 C242422043.000000,40307137.000000 241673941.000000,40307137.000000 241673941.000000,40307137.000000" />
</g>
<g style="fill:#A0A0A0; fill-opacity:0.0; 
stroke:#A0A0A0; stroke-width:120000.000000; stroke-opacity:1; 
stroke-linecap:round; stroke-linejoin:round;">
<path d="M125744687 35882758
L111744687 35882758
" />
<path d="M111744687 35882758
L111744687 49882758
" />
<path d="M111744687 49882758
L125744687 49882758
" />
<path d="M125744687 49882758
L125744687 35882758
" />
<path d="M78119687 54932758
L64119687 54932758
" />
<path d="M64119687 68932758
L78119687 68932758
" />
<path d="M78119687 68932758
L78119687 54932758
" />
<path d="M64119687 54932758
L64119687 68932758
" />
</g>
<g style="fill:#A0A0A0; fill-opacity:0.0; 
stroke:#A0A0A0; stroke-width:100000.000000; stroke-opacity:1; 
stroke-linecap:round; stroke-linejoin:round;">
<path d="M149651123.000000,74827030.000000 C149651123.000000,74827030.000000 151129112.000000,74827030.000000 151129112.000000,74827030.000000" />
<path d="M135651137.000000,74827030.000000 C135651137.000000,74827030.000000 135651137.000000,74078928.000000 135651137.000000,74078928.000000" />
<path d="M133692924.000000,72542157.000000 C133969048.000000,72542157.000000 134192915.000000,72766023.000000 134192915.000000,73042169.000000" />
<path d="M157944479.000000,72542157.000000 C158220625.000000,72542157.000000 158444492.000000,72766023.000000 158444492.000000,73042169.000000" />
<path d="M134192915.000000,74827030.000000 C134192915.000000,74827030.000000 135651137.000000,74827030.000000 135651137.000000,74827030.000000" />
<path d="M133942908.000000,87807009.000000 C133942908.000000,87807009.000000 127117959.000000,87807009.000000 127117959.000000,87807009.000000" />
<path d="M151129112.000000,86097897.000000 C151129112.000000,86097897.000000 149651123.000000,86097897.000000 149651123.000000,86097897.000000" />
<path d="M126867974.000000,73042169.000000 C126867974.000000,72766023.000000 127091819.000000,72542157.000000 127367965.000000,72542157.000000" />
<path d="M151129112.000000,74827030.000000 C151129112.000000,74827030.000000 151129112.000000,73042169.000000 151129112.000000,73042169.000000" />
<path d="M126867974.000000,78797546.000000 C126867974.000000,78797546.000000 126867974.000000,73042169.000000 126867974.000000,73042169.000000" />
<path d="M149651123.000000,74078928.000000 C149651123.000000,74078928.000000 149651123.000000,74827030.000000 149651123.000000,74827030.000000" />
<path d="M159279842.000000,83687622.000000 C159279842.000000,83687622.000000 158444492.000000,83687622.000000 158444492.000000,83687622.000000" />
<path d="M126867974.000000,83687622.000000 C126867974.000000,83687622.000000 126032603.000000,83687622.000000 126032603.000000,83687622.000000" />
<path d="M151379118.000000,87807009.000000 C151241034.000000,87807009.000000 151129112.000000,87695065.000000 151129112.000000,87557002.000000" />
<path d="M159279842.000000,78797546.000000 C159279842.000000,78797546.000000 159279842.000000,83687622.000000 159279842.000000,83687622.000000" />
<path d="M135651137.000000,86097897.000000 C135651137.000000,86097897.000000 134192915.000000,86097897.000000 134192915.000000,86097897.000000" />
<path d="M158444492.000000,83687622.000000 C158444492.000000,83687622.000000 158444492.000000,87557002.000000 158444492.000000,87557002.000000" />
<path d="M134192915.000000,73042169.000000 C134192915.000000,73042169.000000 134192915.000000,74827030.000000 134192915.000000,74827030.000000" />
<path d="M151629103.000000,72542157.000000 C151629103.000000,72542157.000000 157944479.000000,72542157.000000 157944479.000000,72542157.000000" />
<path d="M158194486.000000,87807009.000000 C158194486.000000,87807009.000000 151379118.000000,87807009.000000 151379118.000000,87807009.000000" />
<path d="M158444492.000000,78797546.000000 C158444492.000000,78797546.000000 159279842.000000,78797546.000000 159279842.000000,78797546.000000" />
<path d="M135651137.000000,74078928.000000 C135651137.000000,74078928.000000 149651123.000000,74078928.000000 149651123.000000,74078928.000000" />
<path d="M158444492.000000,73042169.000000 C158444492.000000,73042169.000000 158444492.000000,78797546.000000 158444492.000000,78797546.000000" />
<path d="M158444492.000000,87557002.000000 C158444492.000000,87695065.000000 158332548.000000,87807009.000000 158194486.000000,87807009.000000" />
<path d="M149651123.000000,88078913.000000 C149651123.000000,88078913.000000 135651137.000000,88078913.000000 135651137.000000,88078913.000000" />
<path d="M126867974.000000,87557002.000000 C126867974.000000,87557002.000000 126867974.000000,83687622.000000 126867974.000000,83687622.000000" />
<path d="M134192915.000000,86097897.000000 C134192915.000000,86097897.000000 134192915.000000,87557002.000000 134192915.000000,87557002.000000" />
<path d="M135651137.000000,88078913.000000 C135651137.000000,88078913.000000 135651137.000000,86097897.000000 135651137.000000,86097897.000000" />
<path d="M151129112.000000,73042169.000000 C151129112.000000,72766023.000000 151352978.000000,72542157.000000 151629103.000000,72542157.000000" />
<path d="M126032603.000000,78797546.000000 C126032603.000000,78797546.000000 126867974.000000,78797546.000000 126867974.000000,78797546.000000" />
<path d="M134192915.000000,87557002.000000 C134192915.000000,87695065.000000 134080992.000000,87807009.000000 133942908.000000,87807009.000000" />
<path d="M126032603.000000,83687622.000000 C126032603.000000,83687622.000000 126032603.000000,78797546.000000 126032603.000000,78797546.000000" />
<path d="M149651123.000000,86097897.000000 C149651123.000000,86097897.000000 149651123.000000,88078913.000000 149651123.000000,88078913.000000" />
<path d="M127367965.000000,72542157.000000 C127367965.000000,72542157.000000 133692924.000000,72542157.000000 133692924.000000,72542157.000000" />
<path d="M127117959.000000,87807009.000000 C126979897.000000,87807009.000000 126867974.000000,87695065.000000 126867974.000000,87557002.000000" />
<path d="M151129112.000000,87557002.000000 C151129112.000000,87557002.000000 151129112.000000,86097897.000000 151129112.000000,86097897.000000" />
</g>
<g style="fill:#A0A0A0; fill-opacity:0.0; 
stroke:#A0A0A0; stroke-width:120000.000000; stroke-opacity:1; 
stroke-linecap:round; stroke-linejoin:round;">
<path d="M78120187 87982758
L78120187 73982758
" />
<path d="M78120187 73982758
L64120187 73982758
" />
<path d="M64120187 73982758
L64120187 87982758
" />
<path d="M64120187 87982758
L78120187 87982758
" />
<path d="M101932187 30832758
L101932187 16832758
" />
<path d="M101932187 16832758
L87932187 16832758
" />
<path d="M87932187 16832758
L87932187 30832758
" />
<path d="M87932187 30832758
L101932187 30832758
" />
<path d="M178419687 68932758
L192419687 68932758
" />
<path d="M192419687 68932758
L192419687 54932758
" />
<path d="M192419687 54932758
L178419687 54932758
" />
<path d="M178419687 54932758
L178419687 68932758
" />
<path d="M159369687 54932758
L159369687 68932758
" />
<path d="M173369687 54932758
L159369687 54932758
" />
<path d="M173369687 68932758
L173369687 54932758
" />
<path d="M159369687 68932758
L173369687 68932758
" />
<path d="M87644687 49882758
L87644687 35882758
" />
<path d="M87644687 35882758
L73644687 35882758
" />
<path d="M73644687 35882758
L73644687 49882758
" />
<path d="M73644687 49882758
L87644687 49882758
" />
<path d="M168894687 49882758
L182894687 49882758
" />
<path d="M182894687 35882758
L168894687 35882758
" />
<path d="M168894687 35882758
L168894687 49882758
" />
<path d="M182894687 49882758
L182894687 35882758
" />
<path d="M168895187 73982758
L168895187 87982758
" />
<path d="M168895187 87982758
L182895187 87982758
" />
<path d="M182895187 87982758
L182895187 73982758
" />
<path d="M182895187 73982758
L168895187 73982758
" />
<path d="M201944687 49882758
L201944687 35882758
" />
<path d="M187944687 49882758
L201944687 49882758
" />
<path d="M201944687 35882758
L187944687 35882758
" />
<path d="M187944687 35882758
L187944687 49882758
" />
<path d="M197469687 68932758
L211469687 68932758
" />
<path d="M197469687 54932758
L197469687 68932758
" />
<path d="M211469687 68932758
L211469687 54932758
" />
<path d="M211469687 54932758
L197469687 54932758
" />
<path d="M59069687 68932758
L59069687 54932758
" />
<path d="M45069687 68932758
L59069687 68932758
" />
<path d="M59069687 54932758
L45069687 54932758
" />
<path d="M45069687 54932758
L45069687 68932758
" />
<path d="M54594687 49882758
L68594687 49882758
" />
<path d="M68594687 49882758
L68594687 35882758
" />
<path d="M68594687 35882758
L54594687 35882758
" />
<path d="M54594687 35882758
L54594687 49882758
" />
<path d="M197182187 30832758
L197182187 16832758
" />
<path d="M183182187 16832758
L183182187 30832758
" />
<path d="M183182187 30832758
L197182187 30832758
" />
<path d="M197182187 16832758
L183182187 16832758
" />
<path d="M116219687 54932758
L102219687 54932758
" />
<path d="M116219687 68932758
L116219687 54932758
" />
<path d="M102219687 54932758
L102219687 68932758
" />
<path d="M102219687 68932758
L116219687 68932758
" />
<path d="M49832187 30832758
L63832187 30832758
" />
<path d="M63832187 16832758
L49832187 16832758
" />
<path d="M63832187 30832758
L63832187 16832758
" />
<path d="M49832187 16832758
L49832187 30832758
" />
<path d="M140032187 30832758
L140032187 16832758
" />
<path d="M126032187 30832758
L140032187 30832758
" />
<path d="M126032187 16832758
L126032187 30832758
" />
<path d="M140032187 16832758
L126032187 16832758
" />
<path d="M144794687 49882758
L144794687 35882758
" />
<path d="M130794687 35882758
L130794687 49882758
" />
<path d="M130794687 49882758
L144794687 49882758
" />
<path d="M144794687 35882758
L130794687 35882758
" />
<path d="M223663687 68932758
L237663687 68932758
" />
<path d="M223663687 54932758
L223663687 68932758
" />
<path d="M237663687 54932758
L223663687 54932758
" />
<path d="M237663687 68932758
L237663687 54932758
" />
<path d="M265598867 71600378
L265596327 85203858
" />
<path d="M251192747 85203858
L265596327 85203858
" />
<path d="M251192747 85203858
L251195287 71600378
" />
<path d="M265598867 71600378
L251195287 71600378
" />
<path d="M220994687 35882758
L206994687 35882758
" />
<path d="M206994687 49882758
L220994687 49882758
" />
<path d="M206994687 35882758
L206994687 49882758
" />
<path d="M220994687 49882758
L220994687 35882758
" />
<path d="M163844687 49882758
L163844687 35882758
" />
<path d="M163844687 35882758
L149844687 35882758
" />
<path d="M149844687 49882758
L163844687 49882758
" />
<path d="M149844687 35882758
L149844687 49882758
" />
</g>
<g style="fill:#A0A0A0; fill-opacity:0.0; 
stroke:#A0A0A0; stroke-width:100000.000000; stroke-opacity:1; 
stroke-linecap:round; stroke-linejoin:round;">
<path d="M14922762.000000,69873347.000000 C14922762.000000,70149493.000000 14698896.000000,70373359.000000 14422771.000000,70373359.000000" />
<path d="M31858959.000000,55358514.000000 C31858959.000000,55220451.000000 31970882.000000,55108507.000000 32108966.000000,55108507.000000" />
<path d="M7607382.000000,55358514.000000 C7607382.000000,55220451.000000 7719326.000000,55108507.000000 7857388.000000,55108507.000000" />
<path d="M14672756.000000,55108507.000000 C14810840.000000,55108507.000000 14922762.000000,55220451.000000 14922762.000000,55358514.000000" />
<path d="M31858959.000000,68088486.000000 C31858959.000000,68088486.000000 30400737.000000,68088486.000000 30400737.000000,68088486.000000" />
<path d="M30400737.000000,68836588.000000 C30400737.000000,68836588.000000 16400751.000000,68836588.000000 16400751.000000,68836588.000000" />
<path d="M7607382.000000,59227894.000000 C7607382.000000,59227894.000000 7607382.000000,55358514.000000 7607382.000000,55358514.000000" />
<path d="M30400737.000000,54836603.000000 C30400737.000000,54836603.000000 30400737.000000,56817619.000000 30400737.000000,56817619.000000" />
<path d="M7607382.000000,64117970.000000 C7607382.000000,64117970.000000 6772032.000000,64117970.000000 6772032.000000,64117970.000000" />
<path d="M16400751.000000,54836603.000000 C16400751.000000,54836603.000000 30400737.000000,54836603.000000 30400737.000000,54836603.000000" />
<path d="M6772032.000000,59227894.000000 C6772032.000000,59227894.000000 7607382.000000,59227894.000000 7607382.000000,59227894.000000" />
<path d="M38933915.000000,55108507.000000 C39071977.000000,55108507.000000 39183900.000000,55220451.000000 39183900.000000,55358514.000000" />
<path d="M16400751.000000,68836588.000000 C16400751.000000,68836588.000000 16400751.000000,68088486.000000 16400751.000000,68088486.000000" />
<path d="M39183900.000000,59227894.000000 C39183900.000000,59227894.000000 40019271.000000,59227894.000000 40019271.000000,59227894.000000" />
<path d="M30400737.000000,56817619.000000 C30400737.000000,56817619.000000 31858959.000000,56817619.000000 31858959.000000,56817619.000000" />
<path d="M30400737.000000,68088486.000000 C30400737.000000,68088486.000000 30400737.000000,68836588.000000 30400737.000000,68836588.000000" />
<path d="M40019271.000000,59227894.000000 C40019271.000000,59227894.000000 40019271.000000,64117970.000000 40019271.000000,64117970.000000" />
<path d="M7857388.000000,55108507.000000 C7857388.000000,55108507.000000 14672756.000000,55108507.000000 14672756.000000,55108507.000000" />
<path d="M31858959.000000,69873347.000000 C31858959.000000,69873347.000000 31858959.000000,68088486.000000 31858959.000000,68088486.000000" />
<path d="M40019271.000000,64117970.000000 C40019271.000000,64117970.000000 39183900.000000,64117970.000000 39183900.000000,64117970.000000" />
<path d="M6772032.000000,64117970.000000 C6772032.000000,64117970.000000 6772032.000000,59227894.000000 6772032.000000,59227894.000000" />
<path d="M38683909.000000,70373359.000000 C38683909.000000,70373359.000000 32358950.000000,70373359.000000 32358950.000000,70373359.000000" />
<path d="M14922762.000000,55358514.000000 C14922762.000000,55358514.000000 14922762.000000,56817619.000000 14922762.000000,56817619.000000" />
<path d="M7607382.000000,69873347.000000 C7607382.000000,69873347.000000 7607382.000000,64117970.000000 7607382.000000,64117970.000000" />
<path d="M39183900.000000,64117970.000000 C39183900.000000,64117970.000000 39183900.000000,69873347.000000 39183900.000000,69873347.000000" />
<path d="M14922762.000000,56817619.000000 C14922762.000000,56817619.000000 16400751.000000,56817619.000000 16400751.000000,56817619.000000" />
<path d="M16400751.000000,56817619.000000 C16400751.000000,56817619.000000 16400751.000000,54836603.000000 16400751.000000,54836603.000000" />
<path d="M32358950.000000,70373359.000000 C32082826.000000,70373359.000000 31858959.000000,70149493.000000 31858959.000000,69873347.000000" />
<path d="M39183900.000000,55358514.000000 C39183900.000000,55358514.000000 39183900.000000,59227894.000000 39183900.000000,59227894.000000" />
<path d="M31858959.000000,56817619.000000 C31858959.000000,56817619.000000 31858959.000000,55358514.000000 31858959.000000,55358514.000000" />
<path d="M16400751.000000,68088486.000000 C16400751.000000,68088486.000000 14922762.000000,68088486.000000 14922762.000000,68088486.000000" />
<path d="M39183900.000000,69873347.000000 C39183900.000000,70149493.000000 38960055.000000,70373359.000000 38683909.000000,70373359.000000" />
<path d="M8107395.000000,70373359.000000 C7831249.000000,70373359.000000 7607382.000000,70149493.000000 7607382.000000,69873347.000000" />
<path d="M32108966.000000,55108507.000000 C32108966.000000,55108507.000000 38933915.000000,55108507.000000 38933915.000000,55108507.000000" />
<path d="M14422771.000000,70373359.000000 C14422771.000000,70373359.000000 8107395.000000,70373359.000000 8107395.000000,70373359.000000" />
<path d="M14922762.000000,68088486.000000 C14922762.000000,68088486.000000 14922762.000000,69873347.000000 14922762.000000,69873347.000000" />
</g>
<g style="fill:#A0A0A0; fill-opacity:0.0; 
stroke:#A0A0A0; stroke-width:120000.000000; stroke-opacity:1; 
stroke-linecap:round; stroke-linejoin:round;">
<path d="M251192747 60303858
L265596327 60303858
" />
<path d="M265598867 46700378
L251195287 46700378
" />
<path d="M251192747 60303858
L251195287 46700378
" />
<path d="M265598867 46700378
L265596327 60303858
" />
<path d="M68882187 30832758
L82882187 30832758
" />
<path d="M82882187 30832758
L82882187 16832758
" />
<path d="M68882187 16832758
L68882187 30832758
" />
<path d="M82882187 16832758
L68882187 16832758
" />
<path d="M140319687 68932758
L154319687 68932758
" />
<path d="M140319687 54932758
L140319687 68932758
" />
<path d="M154319687 68932758
L154319687 54932758
" />
<path d="M154319687 54932758
L140319687 54932758
" />
<path d="M30782187 16832758
L30782187 30832758
" />
<path d="M44782187 16832758
L30782187 16832758
" />
<path d="M44782187 30832758
L44782187 16832758
" />
<path d="M30782187 30832758
L44782187 30832758
" />
<path d="M164132187 16832758
L164132187 30832758
" />
<path d="M164132187 30832758
L178132187 30832758
" />
<path d="M178132187 30832758
L178132187 16832758
" />
<path d="M178132187 16832758
L164132187 16832758
" />
<path d="M83169687 68932758
L97169687 68932758
" />
<path d="M97169687 54932758
L83169687 54932758
" />
<path d="M83169687 54932758
L83169687 68932758
" />
<path d="M97169687 68932758
L97169687 54932758
" />
<path d="M202232187 16832758
L202232187 30832758
" />
<path d="M216232187 30832758
L216232187 16832758
" />
<path d="M216232187 16832758
L202232187 16832758
" />
<path d="M202232187 30832758
L216232187 30832758
" />
<path d="M120982187 16832758
L106982187 16832758
" />
<path d="M120982187 30832758
L120982187 16832758
" />
<path d="M106982187 30832758
L120982187 30832758
" />
<path d="M106982187 16832758
L106982187 30832758
" />
</g>
<g style="fill:#A0A0A0; fill-opacity:0.0; 
stroke:#A0A0A0; stroke-width:100000.000000; stroke-opacity:1; 
stroke-linecap:round; stroke-linejoin:round;">
<path d="M23045238.000000,24608827.000000 C23045238.000000,24746911.000000 22933294.000000,24858833.000000 22795231.000000,24858833.000000" />
<path d="M7780386.000000,24358842.000000 C7780386.000000,24358842.000000 7780386.000000,18043466.000000 7780386.000000,18043466.000000" />
<path d="M22795231.000000,49119971.000000 C22795231.000000,49119971.000000 18925851.000000,49119971.000000 18925851.000000,49119971.000000" />
<path d="M9317157.000000,40336808.000000 C9317157.000000,40336808.000000 9317157.000000,26336822.000000 9317157.000000,26336822.000000" />
<path d="M10065259.000000,26336822.000000 C10065259.000000,26336822.000000 10065259.000000,24858833.000000 10065259.000000,24858833.000000" />
<path d="M7780386.000000,42295021.000000 C7780386.000000,42018897.000000 8004252.000000,41795030.000000 8280398.000000,41795030.000000" />
<path d="M23317142.000000,26336822.000000 C23317142.000000,26336822.000000 23317142.000000,40336808.000000 23317142.000000,40336808.000000" />
<path d="M21336126.000000,41795030.000000 C21336126.000000,41795030.000000 22795231.000000,41795030.000000 22795231.000000,41795030.000000" />
<path d="M14035775.000000,49119971.000000 C14035775.000000,49119971.000000 8280398.000000,49119971.000000 8280398.000000,49119971.000000" />
<path d="M22795231.000000,17543453.000000 C22933294.000000,17543453.000000 23045238.000000,17655397.000000 23045238.000000,17793459.000000" />
<path d="M10065259.000000,41795030.000000 C10065259.000000,41795030.000000 10065259.000000,40336808.000000 10065259.000000,40336808.000000" />
<path d="M18925851.000000,49955342.000000 C18925851.000000,49955342.000000 14035775.000000,49955342.000000 14035775.000000,49955342.000000" />
<path d="M14035775.000000,16708103.000000 C14035775.000000,16708103.000000 18925851.000000,16708103.000000 18925851.000000,16708103.000000" />
<path d="M8280398.000000,41795030.000000 C8280398.000000,41795030.000000 10065259.000000,41795030.000000 10065259.000000,41795030.000000" />
<path d="M21336126.000000,26336822.000000 C21336126.000000,26336822.000000 23317142.000000,26336822.000000 23317142.000000,26336822.000000" />
<path d="M23045238.000000,42045037.000000 C23045238.000000,42045037.000000 23045238.000000,48869986.000000 23045238.000000,48869986.000000" />
<path d="M8280398.000000,24858833.000000 C8004252.000000,24858833.000000 7780386.000000,24634967.000000 7780386.000000,24358842.000000" />
<path d="M18925851.000000,49119971.000000 C18925851.000000,49119971.000000 18925851.000000,49955342.000000 18925851.000000,49955342.000000" />
<path d="M14035775.000000,49955342.000000 C14035775.000000,49955342.000000 14035775.000000,49119971.000000 14035775.000000,49119971.000000" />
<path d="M18925851.000000,17543453.000000 C18925851.000000,17543453.000000 22795231.000000,17543453.000000 22795231.000000,17543453.000000" />
<path d="M23317142.000000,40336808.000000 C23317142.000000,40336808.000000 21336126.000000,40336808.000000 21336126.000000,40336808.000000" />
<path d="M10065259.000000,24858833.000000 C10065259.000000,24858833.000000 8280398.000000,24858833.000000 8280398.000000,24858833.000000" />
<path d="M14035775.000000,17543453.000000 C14035775.000000,17543453.000000 14035775.000000,16708103.000000 14035775.000000,16708103.000000" />
<path d="M22795231.000000,41795030.000000 C22933294.000000,41795030.000000 23045238.000000,41906953.000000 23045238.000000,42045037.000000" />
<path d="M21336126.000000,40336808.000000 C21336126.000000,40336808.000000 21336126.000000,41795030.000000 21336126.000000,41795030.000000" />
<path d="M10065259.000000,40336808.000000 C10065259.000000,40336808.000000 9317157.000000,40336808.000000 9317157.000000,40336808.000000" />
<path d="M18925851.000000,16708103.000000 C18925851.000000,16708103.000000 18925851.000000,17543453.000000 18925851.000000,17543453.000000" />
<path d="M8280398.000000,49119971.000000 C8004252.000000,49119971.000000 7780386.000000,48896126.000000 7780386.000000,48619980.000000" />
<path d="M9317157.000000,26336822.000000 C9317157.000000,26336822.000000 10065259.000000,26336822.000000 10065259.000000,26336822.000000" />
<path d="M22795231.000000,24858833.000000 C22795231.000000,24858833.000000 21336126.000000,24858833.000000 21336126.000000,24858833.000000" />
<path d="M7780386.000000,18043466.000000 C7780386.000000,17767320.000000 8004252.000000,17543453.000000 8280398.000000,17543453.000000" />
<path d="M21336126.000000,24858833.000000 C21336126.000000,24858833.000000 21336126.000000,26336822.000000 21336126.000000,26336822.000000" />
<path d="M8280398.000000,17543453.000000 C8280398.000000,17543453.000000 14035775.000000,17543453.000000 14035775.000000,17543453.000000" />
<path d="M23045238.000000,48869986.000000 C23045238.000000,49008048.000000 22933294.000000,49119971.000000 22795231.000000,49119971.000000" />
<path d="M23045238.000000,17793459.000000 C23045238.000000,17793459.000000 23045238.000000,24608827.000000 23045238.000000,24608827.000000" />
<path d="M7780386.000000,48619980.000000 C7780386.000000,48619980.000000 7780386.000000,42295021.000000 7780386.000000,42295021.000000" />
</g>
<g style="fill:#A0A0A0; fill-opacity:0.0; 
stroke:#A0A0A0; stroke-width:120000.000000; stroke-opacity:1; 
stroke-linecap:round; stroke-linejoin:round;">
<path d="M106694687 49882758
L106694687 35882758
" />
<path d="M92694687 35882758
L92694687 49882758
" />
<path d="M106694687 35882758
L92694687 35882758
" />
<path d="M92694687 49882758
L106694687 49882758
" />
<path d="M145082187 16832758
L145082187 30832758
" />
<path d="M145082187 30832758
L159082187 30832758
" />
<path d="M159082187 30832758
L159082187 16832758
" />
<path d="M159082187 16832758
L145082187 16832758
" />
</g>
<g style="fill:#A0A0A0; fill-opacity:0.0; 
stroke:#A0A0A0; stroke-width:100000.000000; stroke-opacity:1; 
stroke-linecap:round; stroke-linejoin:round;">
<path d="M120344492.000000,83687622.000000 C120344492.000000,83687622.000000 120344492.000000,87557002.000000 120344492.000000,87557002.000000" />
<path d="M113279118.000000,87807009.000000 C113141034.000000,87807009.000000 113029112.000000,87695065.000000 113029112.000000,87557002.000000" />
<path d="M96092915.000000,73042169.000000 C96092915.000000,73042169.000000 96092915.000000,74827030.000000 96092915.000000,74827030.000000" />
<path d="M121179842.000000,83687622.000000 C121179842.000000,83687622.000000 120344492.000000,83687622.000000 120344492.000000,83687622.000000" />
<path d="M113029112.000000,87557002.000000 C113029112.000000,87557002.000000 113029112.000000,86097897.000000 113029112.000000,86097897.000000" />
<path d="M88767974.000000,78797546.000000 C88767974.000000,78797546.000000 88767974.000000,73042169.000000 88767974.000000,73042169.000000" />
<path d="M88767974.000000,73042169.000000 C88767974.000000,72766023.000000 88991819.000000,72542157.000000 89267965.000000,72542157.000000" />
<path d="M87932603.000000,83687622.000000 C87932603.000000,83687622.000000 87932603.000000,78797546.000000 87932603.000000,78797546.000000" />
<path d="M95592924.000000,72542157.000000 C95869048.000000,72542157.000000 96092915.000000,72766023.000000 96092915.000000,73042169.000000" />
<path d="M97551137.000000,74827030.000000 C97551137.000000,74827030.000000 97551137.000000,74078928.000000 97551137.000000,74078928.000000" />
<path d="M97551137.000000,86097897.000000 C97551137.000000,86097897.000000 96092915.000000,86097897.000000 96092915.000000,86097897.000000" />
<path d="M95842908.000000,87807009.000000 C95842908.000000,87807009.000000 89017959.000000,87807009.000000 89017959.000000,87807009.000000" />
<path d="M121179842.000000,78797546.000000 C121179842.000000,78797546.000000 121179842.000000,83687622.000000 121179842.000000,83687622.000000" />
<path d="M120344492.000000,73042169.000000 C120344492.000000,73042169.000000 120344492.000000,78797546.000000 120344492.000000,78797546.000000" />
<path d="M111551123.000000,74827030.000000 C111551123.000000,74827030.000000 113029112.000000,74827030.000000 113029112.000000,74827030.000000" />
<path d="M119844479.000000,72542157.000000 C120120625.000000,72542157.000000 120344492.000000,72766023.000000 120344492.000000,73042169.000000" />
<path d="M88767974.000000,87557002.000000 C88767974.000000,87557002.000000 88767974.000000,83687622.000000 88767974.000000,83687622.000000" />
<path d="M97551137.000000,74078928.000000 C97551137.000000,74078928.000000 111551123.000000,74078928.000000 111551123.000000,74078928.000000" />
<path d="M111551123.000000,86097897.000000 C111551123.000000,86097897.000000 111551123.000000,88078913.000000 111551123.000000,88078913.000000" />
<path d="M111551123.000000,88078913.000000 C111551123.000000,88078913.000000 97551137.000000,88078913.000000 97551137.000000,88078913.000000" />
<path d="M120344492.000000,87557002.000000 C120344492.000000,87695065.000000 120232548.000000,87807009.000000 120094486.000000,87807009.000000" />
<path d="M113029112.000000,74827030.000000 C113029112.000000,74827030.000000 113029112.000000,73042169.000000 113029112.000000,73042169.000000" />
<path d="M113029112.000000,86097897.000000 C113029112.000000,86097897.000000 111551123.000000,86097897.000000 111551123.000000,86097897.000000" />
<path d="M113529103.000000,72542157.000000 C113529103.000000,72542157.000000 119844479.000000,72542157.000000 119844479.000000,72542157.000000" />
<path d="M96092915.000000,74827030.000000 C96092915.000000,74827030.000000 97551137.000000,74827030.000000 97551137.000000,74827030.000000" />
<path d="M97551137.000000,88078913.000000 C97551137.000000,88078913.000000 97551137.000000,86097897.000000 97551137.000000,86097897.000000" />
<path d="M89017959.000000,87807009.000000 C88879897.000000,87807009.000000 88767974.000000,87695065.000000 88767974.000000,87557002.000000" />
<path d="M111551123.000000,74078928.000000 C111551123.000000,74078928.000000 111551123.000000,74827030.000000 111551123.000000,74827030.000000" />
<path d="M120344492.000000,78797546.000000 C120344492.000000,78797546.000000 121179842.000000,78797546.000000 121179842.000000,78797546.000000" />
<path d="M88767974.000000,83687622.000000 C88767974.000000,83687622.000000 87932603.000000,83687622.000000 87932603.000000,83687622.000000" />
<path d="M89267965.000000,72542157.000000 C89267965.000000,72542157.000000 95592924.000000,72542157.000000 95592924.000000,72542157.000000" />
<path d="M87932603.000000,78797546.000000 C87932603.000000,78797546.000000 88767974.000000,78797546.000000 88767974.000000,78797546.000000" />
<path d="M120094486.000000,87807009.000000 C120094486.000000,87807009.000000 113279118.000000,87807009.000000 113279118.000000,87807009.000000" />
<path d="M96092915.000000,87557002.000000 C96092915.000000,87695065.000000 95980992.000000,87807009.000000 95842908.000000,87807009.000000" />
<path d="M113029112.000000,73042169.000000 C113029112.000000,72766023.000000 113252978.000000,72542157.000000 113529103.000000,72542157.000000" />
<path d="M96092915.000000,86097897.000000 C96092915.000000,86097897.000000 96092915.000000,87557002.000000 96092915.000000,87557002.000000" />
</g>
<g style="fill:#A0A0A0; fill-opacity:0.0; 
stroke:#A0A0A0; stroke-width:120000.000000; stroke-opacity:1; 
stroke-linecap:round; stroke-linejoin:round;">
<path d="M35544687 35882758
L35544687 49882758
" />
<path d="M35544687 49882758
L49544687 49882758
" />
<path d="M49544687 35882758
L35544687 35882758
" />
<path d="M49544687 49882758
L49544687 35882758
" />
<path d="M121269687 54932758
L121269687 68932758
" />
<path d="M135269687 54932758
L121269687 54932758
" />
<path d="M121269687 68932758
L135269687 68932758
" />
<path d="M135269687 68932758
L135269687 54932758
" />
<g >
</g>
<g >
</g>
<g >
</g>
<g >
</g>
<g >
</g>
<g >
</g>
<g >
</g>
<g >
</g>
<g >
</g>
<g >
</g>
<g >
</g>
<g >
</g>
<g >
</g>
<g >
</g>
<g >
</g>
<g >
</g>
<g >
</g>
<g >
</g>
<g >
</g>
<g >
</g>
<g >
</g>
<g >
</g>
<g >
</g>
<g >
</g>
<g >
</g>
<g >
</g>
<g >
</g>
<g >
</g>
<g >
</g>
<g >
</g>
<g >
</g>
<g >
</g>
<g >
</g>
<g >
</g>
<g >
</g>
<g >
</g>
<g >
</g>
<g >
</g>
<g >
</g>
<g >
</g>
<g >
</g>
<g >
</g>
</g> 
</svg>
