<?xml version="1.0" standalone="no"?>
 <!DOCTYPE svg PUBLIC "-//W3C//DTD SVG 1.1//EN" 
 "http://www.w3.org/Graphics/SVG/1.1/DTD/svg11.dtd"> 
<svg
  xmlns:svg="http://www.w3.org/2000/svg"
  xmlns="http://www.w3.org/2000/svg"
  xmlns:xlink="http://www.w3.org/1999/xlink"
  version="1.1"
  width="36.913820cm" height="13.535660cm" viewBox="0 0 369138200 135356600">
<title>SVG Picture created as yamada_kakuko-brd.svg date 2022/03/18 18:10:45 </title>
  <desc>Picture generated by PCBNEW </desc>
<g style="fill:#000000; fill-opacity:1.000000;stroke:#000000; stroke-opacity:1.000000;
stroke-linecap:round; stroke-linejoin:round;"
 transform="translate(0 0) scale(1 1)">
</g>
<g style="fill:#000000; fill-opacity:0.0; 
stroke:#000000; stroke-width:0.000000; stroke-opacity:1; 
stroke-linecap:round; stroke-linejoin:round;">
</g>
<g style="fill:#A0A0A0; fill-opacity:0.0; 
stroke:#A0A0A0; stroke-width:0.000000; stroke-opacity:1; 
stroke-linecap:round; stroke-linejoin:round;">
</g>
<g style="fill:#A0A0A0; fill-opacity:0.0; 
stroke:#A0A0A0; stroke-width:200000.000000; stroke-opacity:1; 
stroke-linecap:round; stroke-linejoin:round;">
<path d="M26326925.301338 125112098.028494 A2198696.000000 2198696.000000 0.0 0 0 28490472.992692 127220944.482158" />
<path d="M26326926 125112098
L26323520 6561102
" />
<path d="M336170680.000601 127220943.889592 A2099713.000000 2099713.000000 0.0 0 0 338281419.930163 125162401.998631" />
<path d="M338281420 6561102
L338281420 125162402
" />
<path d="M336170680 127220944
L28490473 127220944
" />
<path d="M26323520 6561102
L338281420 6561102
" />
</g>
<g style="fill:#A0A0A0; fill-opacity:0.0; 
stroke:#A0A0A0; stroke-width:120000.000000; stroke-opacity:1; 
stroke-linecap:round; stroke-linejoin:round;">
<path d="M125231420 66449902
L139231420 66449902
" />
<path d="M139231420 66449902
L139231420 52449902
" />
<path d="M125231420 52449902
L125231420 66449902
" />
<path d="M139231420 52449902
L125231420 52449902
" />
<path d="M234481420 23587402
L234481420 9587402
" />
<path d="M234481420 9587402
L220481420 9587402
" />
<path d="M220481420 9587402
L220481420 23587402
" />
<path d="M220481420 23587402
L234481420 23587402
" />
<path d="M43981420 47399902
L43981420 33399902
" />
<path d="M43981420 33399902
L29981420 33399902
" />
<path d="M29981420 33399902
L29981420 47399902
" />
<path d="M29981420 47399902
L43981420 47399902
" />
<path d="M49031420 123599902
L63031420 123599902
" />
<path d="M49031420 109599902
L49031420 123599902
" />
<path d="M63031420 123599902
L63031420 109599902
" />
<path d="M63031420 109599902
L49031420 109599902
" />
<path d="M82081420 52449902
L68081420 52449902
" />
<path d="M82081420 66449902
L82081420 52449902
" />
<path d="M68081420 52449902
L68081420 66449902
" />
<path d="M68081420 66449902
L82081420 66449902
" />
<path d="M139231420 47399902
L139231420 33399902
" />
<path d="M125231420 47399902
L139231420 47399902
" />
<path d="M125231420 33399902
L125231420 47399902
" />
<path d="M139231420 33399902
L125231420 33399902
" />
<path d="M239531420 66449902
L253531420 66449902
" />
<path d="M239531420 52449902
L239531420 66449902
" />
<path d="M253531420 52449902
L239531420 52449902
" />
<path d="M253531420 66449902
L253531420 52449902
" />
<path d="M215431420 85499902
L215431420 71499902
" />
<path d="M201431420 85499902
L215431420 85499902
" />
<path d="M201431420 71499902
L201431420 85499902
" />
<path d="M215431420 71499902
L201431420 71499902
" />
<path d="M63031420 9587402
L49031420 9587402
" />
<path d="M63031420 23587402
L63031420 9587402
" />
<path d="M49031420 9587402
L49031420 23587402
" />
<path d="M49031420 23587402
L63031420 23587402
" />
<path d="M106181420 66449902
L120181420 66449902
" />
<path d="M120181420 66449902
L120181420 52449902
" />
<path d="M106181420 52449902
L106181420 66449902
" />
<path d="M120181420 52449902
L106181420 52449902
" />
<path d="M201431420 123599902
L215431420 123599902
" />
<path d="M201431420 109599902
L201431420 123599902
" />
<path d="M215431420 109599902
L201431420 109599902
" />
<path d="M215431420 123599902
L215431420 109599902
" />
<path d="M182381420 47399902
L196381420 47399902
" />
<path d="M196381420 47399902
L196381420 33399902
" />
<path d="M196381420 33399902
L182381420 33399902
" />
<path d="M182381420 33399902
L182381420 47399902
" />
<path d="M131106420 122599902
L131106420 107799902
" />
<path d="M114306420 107799902
L107306420 107799902
" />
<path d="M114306420 122599902
L114306420 107799902
" />
<path d="M138106420 107799902
L138106420 122599902
" />
<path d="M107306420 122599902
L114306420 122599902
" />
</g>
<g style="fill:#A0A0A0; fill-opacity:0.0; 
stroke:#A0A0A0; stroke-width:150000.000000; stroke-opacity:1; 
stroke-linecap:round; stroke-linejoin:round;">
<path d="M115656420 123649902
L115656420 109549902
" />
<path d="M129756420 109549902
L129756420 123649902
" />
</g>
<g style="fill:#A0A0A0; fill-opacity:0.0; 
stroke:#A0A0A0; stroke-width:120000.000000; stroke-opacity:1; 
stroke-linecap:round; stroke-linejoin:round;">
<path d="M131106420 107799902
L138106420 107799902
" />
</g>
<g style="fill:#A0A0A0; fill-opacity:0.0; 
stroke:#A0A0A0; stroke-width:150000.000000; stroke-opacity:1; 
stroke-linecap:round; stroke-linejoin:round;">
<path d="M129756420 123649902
L115656420 123649902
" />
</g>
<g style="fill:#A0A0A0; fill-opacity:0.0; 
stroke:#A0A0A0; stroke-width:120000.000000; stroke-opacity:1; 
stroke-linecap:round; stroke-linejoin:round;">
<path d="M107306420 107799902
L107306420 122599902
" />
<path d="M138106420 122599902
L131106420 122599902
" />
</g>
<g style="fill:#A0A0A0; fill-opacity:0.0; 
stroke:#A0A0A0; stroke-width:150000.000000; stroke-opacity:1; 
stroke-linecap:round; stroke-linejoin:round;">
<path d="M115656420 109549902
L129756420 109549902
" />
</g>
<g style="fill:#A0A0A0; fill-opacity:0.0; 
stroke:#A0A0A0; stroke-width:120000.000000; stroke-opacity:1; 
stroke-linecap:round; stroke-linejoin:round;">
<path d="M301443920 33399902
L301443920 47399902
" />
<path d="M301443920 47399902
L315443920 47399902
" />
<path d="M315443920 47399902
L315443920 33399902
" />
<path d="M315443920 33399902
L301443920 33399902
" />
<path d="M196381420 66449902
L196381420 52449902
" />
<path d="M182381420 52449902
L182381420 66449902
" />
<path d="M182381420 66449902
L196381420 66449902
" />
<path d="M196381420 52449902
L182381420 52449902
" />
<path d="M196381420 123599902
L196381420 109599902
" />
<path d="M182381420 109599902
L182381420 123599902
" />
<path d="M196381420 109599902
L182381420 109599902
" />
<path d="M182381420 123599902
L196381420 123599902
" />
<path d="M234481420 85499902
L234481420 71499902
" />
<path d="M220481420 85499902
L234481420 85499902
" />
<path d="M220481420 71499902
L220481420 85499902
" />
<path d="M234481420 71499902
L220481420 71499902
" />
<path d="M87131420 23587402
L101131420 23587402
" />
<path d="M101131420 23587402
L101131420 9587402
" />
<path d="M87131420 9587402
L87131420 23587402
" />
<path d="M101131420 9587402
L87131420 9587402
" />
<path d="M239531420 109599902
L239531420 123599902
" />
<path d="M253531420 109599902
L239531420 109599902
" />
<path d="M253531420 123599902
L253531420 109599902
" />
<path d="M239531420 123599902
L253531420 123599902
" />
<path d="M234481420 90549902
L220481420 90549902
" />
<path d="M220481420 90549902
L220481420 104549902
" />
<path d="M220481420 104549902
L234481420 104549902
" />
<path d="M234481420 104549902
L234481420 90549902
" />
<path d="M63031420 52449902
L49031420 52449902
" />
<path d="M49031420 66449902
L63031420 66449902
" />
<path d="M63031420 66449902
L63031420 52449902
" />
<path d="M49031420 52449902
L49031420 66449902
" />
<path d="M282393920 71499902
L282393920 85499902
" />
<path d="M296393920 85499902
L296393920 71499902
" />
<path d="M282393920 85499902
L296393920 85499902
" />
<path d="M296393920 71499902
L282393920 71499902
" />
<path d="M301443920 71499902
L301443920 85499902
" />
<path d="M315443920 85499902
L315443920 71499902
" />
<path d="M301443920 85499902
L315443920 85499902
" />
<path d="M315443920 71499902
L301443920 71499902
" />
<path d="M196381420 71499902
L182381420 71499902
" />
<path d="M182381420 85499902
L196381420 85499902
" />
<path d="M196381420 85499902
L196381420 71499902
" />
<path d="M182381420 71499902
L182381420 85499902
" />
<path d="M315443920 123599902
L315443920 109599902
" />
<path d="M301443920 109599902
L301443920 123599902
" />
<path d="M315443920 109599902
L301443920 109599902
" />
<path d="M301443920 123599902
L315443920 123599902
" />
<path d="M215431420 52449902
L201431420 52449902
" />
<path d="M201431420 66449902
L215431420 66449902
" />
<path d="M201431420 52449902
L201431420 66449902
" />
<path d="M215431420 66449902
L215431420 52449902
" />
<path d="M29981420 66449902
L43981420 66449902
" />
<path d="M43981420 52449902
L29981420 52449902
" />
<path d="M43981420 66449902
L43981420 52449902
" />
<path d="M29981420 52449902
L29981420 66449902
" />
<path d="M239531420 47399902
L253531420 47399902
" />
<path d="M239531420 33399902
L239531420 47399902
" />
<path d="M253531420 47399902
L253531420 33399902
" />
<path d="M253531420 33399902
L239531420 33399902
" />
<path d="M334493920 66449902
L334493920 52449902
" />
<path d="M320493920 66449902
L334493920 66449902
" />
<path d="M320493920 52449902
L320493920 66449902
" />
<path d="M334493920 52449902
L320493920 52449902
" />
<path d="M101131420 123599902
L101131420 109599902
" />
<path d="M87131420 123599902
L101131420 123599902
" />
<path d="M101131420 109599902
L87131420 109599902
" />
<path d="M87131420 109599902
L87131420 123599902
" />
</g>
<g style="fill:#A0A0A0; fill-opacity:0.0; 
stroke:#A0A0A0; stroke-width:150000.000000; stroke-opacity:1; 
stroke-linecap:round; stroke-linejoin:round;">
<path d="M153756420 109549902
L167856420 109549902
" />
</g>
<g style="fill:#A0A0A0; fill-opacity:0.0; 
stroke:#A0A0A0; stroke-width:120000.000000; stroke-opacity:1; 
stroke-linecap:round; stroke-linejoin:round;">
<path d="M145406420 122599902
L152406420 122599902
" />
<path d="M169206420 107799902
L176206420 107799902
" />
<path d="M152406420 122599902
L152406420 107799902
" />
</g>
<g style="fill:#A0A0A0; fill-opacity:0.0; 
stroke:#A0A0A0; stroke-width:150000.000000; stroke-opacity:1; 
stroke-linecap:round; stroke-linejoin:round;">
<path d="M167856420 123649902
L153756420 123649902
" />
</g>
<g style="fill:#A0A0A0; fill-opacity:0.0; 
stroke:#A0A0A0; stroke-width:120000.000000; stroke-opacity:1; 
stroke-linecap:round; stroke-linejoin:round;">
<path d="M169206420 122599902
L169206420 107799902
" />
<path d="M152406420 107799902
L145406420 107799902
" />
</g>
<g style="fill:#A0A0A0; fill-opacity:0.0; 
stroke:#A0A0A0; stroke-width:150000.000000; stroke-opacity:1; 
stroke-linecap:round; stroke-linejoin:round;">
<path d="M167856420 109549902
L167856420 123649902
" />
</g>
<g style="fill:#A0A0A0; fill-opacity:0.0; 
stroke:#A0A0A0; stroke-width:120000.000000; stroke-opacity:1; 
stroke-linecap:round; stroke-linejoin:round;">
<path d="M176206420 122599902
L169206420 122599902
" />
</g>
<g style="fill:#A0A0A0; fill-opacity:0.0; 
stroke:#A0A0A0; stroke-width:150000.000000; stroke-opacity:1; 
stroke-linecap:round; stroke-linejoin:round;">
<path d="M153756420 123649902
L153756420 109549902
" />
</g>
<g style="fill:#A0A0A0; fill-opacity:0.0; 
stroke:#A0A0A0; stroke-width:120000.000000; stroke-opacity:1; 
stroke-linecap:round; stroke-linejoin:round;">
<path d="M145406420 107799902
L145406420 122599902
" />
<path d="M176206420 107799902
L176206420 122599902
" />
<path d="M158281420 9587402
L144281420 9587402
" />
<path d="M144281420 9587402
L144281420 23587402
" />
<path d="M144281420 23587402
L158281420 23587402
" />
<path d="M158281420 23587402
L158281420 9587402
" />
<path d="M315443920 52449902
L301443920 52449902
" />
<path d="M301443920 52449902
L301443920 66449902
" />
<path d="M315443920 66449902
L315443920 52449902
" />
<path d="M301443920 66449902
L315443920 66449902
" />
<path d="M68081420 109599902
L68081420 123599902
" />
<path d="M82081420 109599902
L68081420 109599902
" />
<path d="M68081420 123599902
L82081420 123599902
" />
<path d="M82081420 123599902
L82081420 109599902
" />
<path d="M68081420 23587402
L82081420 23587402
" />
<path d="M82081420 23587402
L82081420 9587402
" />
<path d="M82081420 9587402
L68081420 9587402
" />
<path d="M68081420 9587402
L68081420 23587402
" />
<path d="M158281420 71499902
L144281420 71499902
" />
<path d="M144281420 85499902
L158281420 85499902
" />
<path d="M158281420 85499902
L158281420 71499902
" />
<path d="M144281420 71499902
L144281420 85499902
" />
<path d="M177331420 66449902
L177331420 52449902
" />
<path d="M163331420 66449902
L177331420 66449902
" />
<path d="M177331420 52449902
L163331420 52449902
" />
<path d="M163331420 52449902
L163331420 66449902
" />
<path d="M106181420 104549902
L120181420 104549902
" />
<path d="M106181420 90549902
L106181420 104549902
" />
<path d="M120181420 90549902
L106181420 90549902
" />
<path d="M120181420 104549902
L120181420 90549902
" />
<path d="M68081420 85499902
L82081420 85499902
" />
<path d="M68081420 71499902
L68081420 85499902
" />
<path d="M82081420 71499902
L68081420 71499902
" />
<path d="M82081420 85499902
L82081420 71499902
" />
<path d="M320493920 23587402
L334493920 23587402
" />
<path d="M334493920 23587402
L334493920 9587402
" />
<path d="M320493920 9587402
L320493920 23587402
" />
<path d="M334493920 9587402
L320493920 9587402
" />
<path d="M125231420 71499902
L125231420 85499902
" />
<path d="M139231420 71499902
L125231420 71499902
" />
<path d="M125231420 85499902
L139231420 85499902
" />
<path d="M139231420 85499902
L139231420 71499902
" />
<path d="M63031420 90549902
L49031420 90549902
" />
<path d="M49031420 90549902
L49031420 104549902
" />
<path d="M49031420 104549902
L63031420 104549902
" />
<path d="M63031420 104549902
L63031420 90549902
" />
<path d="M125231420 23587402
L139231420 23587402
" />
<path d="M139231420 23587402
L139231420 9587402
" />
<path d="M125231420 9587402
L125231420 23587402
" />
<path d="M139231420 9587402
L125231420 9587402
" />
<path d="M182381420 23587402
L196381420 23587402
" />
<path d="M196381420 23587402
L196381420 9587402
" />
<path d="M182381420 9587402
L182381420 23587402
" />
<path d="M196381420 9587402
L182381420 9587402
" />
<path d="M215431420 90549902
L201431420 90549902
" />
<path d="M201431420 104549902
L215431420 104549902
" />
<path d="M201431420 90549902
L201431420 104549902
" />
<path d="M215431420 104549902
L215431420 90549902
" />
<path d="M239531420 85499902
L253531420 85499902
" />
<path d="M253531420 71499902
L239531420 71499902
" />
<path d="M239531420 71499902
L239531420 85499902
" />
<path d="M253531420 85499902
L253531420 71499902
" />
<path d="M43981420 123599902
L43981420 109599902
" />
<path d="M29981420 109599902
L29981420 123599902
" />
<path d="M43981420 109599902
L29981420 109599902
" />
<path d="M29981420 123599902
L43981420 123599902
" />
<path d="M234481420 123599902
L234481420 109599902
" />
<path d="M234481420 109599902
L220481420 109599902
" />
<path d="M220481420 123599902
L234481420 123599902
" />
<path d="M220481420 109599902
L220481420 123599902
" />
<path d="M63031420 33399902
L49031420 33399902
" />
<path d="M49031420 47399902
L63031420 47399902
" />
<path d="M63031420 47399902
L63031420 33399902
" />
<path d="M49031420 33399902
L49031420 47399902
" />
<path d="M282393920 123599902
L296393920 123599902
" />
<path d="M296393920 109599902
L282393920 109599902
" />
<path d="M296393920 123599902
L296393920 109599902
" />
<path d="M282393920 109599902
L282393920 123599902
" />
<path d="M177331420 9587402
L163331420 9587402
" />
<path d="M177331420 23587402
L177331420 9587402
" />
<path d="M163331420 9587402
L163331420 23587402
" />
<path d="M163331420 23587402
L177331420 23587402
" />
<path d="M182381420 90549902
L182381420 104549902
" />
<path d="M196381420 104549902
L196381420 90549902
" />
<path d="M182381420 104549902
L196381420 104549902
" />
<path d="M196381420 90549902
L182381420 90549902
" />
<path d="M43981420 85499902
L43981420 71499902
" />
<path d="M43981420 71499902
L29981420 71499902
" />
<path d="M29981420 85499902
L43981420 85499902
" />
<path d="M29981420 71499902
L29981420 85499902
" />
<path d="M258581420 85499902
L272581420 85499902
" />
<path d="M272581420 85499902
L272581420 71499902
" />
<path d="M258581420 71499902
L258581420 85499902
" />
<path d="M272581420 71499902
L258581420 71499902
" />
<path d="M63031420 71499902
L49031420 71499902
" />
<path d="M49031420 71499902
L49031420 85499902
" />
<path d="M49031420 85499902
L63031420 85499902
" />
<path d="M63031420 85499902
L63031420 71499902
" />
<path d="M320493920 104549902
L334493920 104549902
" />
<path d="M334493920 90549902
L320493920 90549902
" />
<path d="M334493920 104549902
L334493920 90549902
" />
<path d="M320493920 90549902
L320493920 104549902
" />
<path d="M68081420 90549902
L68081420 104549902
" />
<path d="M82081420 90549902
L68081420 90549902
" />
<path d="M82081420 104549902
L82081420 90549902
" />
<path d="M68081420 104549902
L82081420 104549902
" />
<path d="M220481420 66449902
L234481420 66449902
" />
<path d="M220481420 52449902
L220481420 66449902
" />
<path d="M234481420 52449902
L220481420 52449902
" />
<path d="M234481420 66449902
L234481420 52449902
" />
<path d="M43981420 23587402
L43981420 9587402
" />
<path d="M29981420 23587402
L43981420 23587402
" />
<path d="M29981420 9587402
L29981420 23587402
" />
<path d="M43981420 9587402
L29981420 9587402
" />
<path d="M296393920 9587402
L282393920 9587402
" />
<path d="M296393920 23587402
L296393920 9587402
" />
<path d="M282393920 23587402
L296393920 23587402
" />
<path d="M282393920 9587402
L282393920 23587402
" />
<path d="M272581420 52449902
L258581420 52449902
" />
<path d="M258581420 66449902
L272581420 66449902
" />
<path d="M258581420 52449902
L258581420 66449902
" />
<path d="M272581420 66449902
L272581420 52449902
" />
<path d="M296393920 104549902
L296393920 90549902
" />
<path d="M282393920 104549902
L296393920 104549902
" />
<path d="M296393920 90549902
L282393920 90549902
" />
<path d="M282393920 90549902
L282393920 104549902
" />
<path d="M144281420 47399902
L158281420 47399902
" />
<path d="M158281420 47399902
L158281420 33399902
" />
<path d="M158281420 33399902
L144281420 33399902
" />
<path d="M144281420 33399902
L144281420 47399902
" />
<path d="M177331420 85499902
L177331420 71499902
" />
<path d="M163331420 71499902
L163331420 85499902
" />
<path d="M163331420 85499902
L177331420 85499902
" />
<path d="M177331420 71499902
L163331420 71499902
" />
<path d="M282393920 47399902
L296393920 47399902
" />
<path d="M296393920 47399902
L296393920 33399902
" />
<path d="M282393920 33399902
L282393920 47399902
" />
<path d="M296393920 33399902
L282393920 33399902
" />
<path d="M258581420 47399902
L272581420 47399902
" />
<path d="M272581420 47399902
L272581420 33399902
" />
<path d="M258581420 33399902
L258581420 47399902
" />
<path d="M272581420 33399902
L258581420 33399902
" />
<path d="M296393920 52449902
L282393920 52449902
" />
<path d="M282393920 66449902
L296393920 66449902
" />
<path d="M282393920 52449902
L282393920 66449902
" />
<path d="M296393920 66449902
L296393920 52449902
" />
<path d="M215431420 33399902
L201431420 33399902
" />
<path d="M215431420 47399902
L215431420 33399902
" />
<path d="M201431420 33399902
L201431420 47399902
" />
<path d="M201431420 47399902
L215431420 47399902
" />
<path d="M106181420 71499902
L106181420 85499902
" />
<path d="M120181420 85499902
L120181420 71499902
" />
<path d="M120181420 71499902
L106181420 71499902
" />
<path d="M106181420 85499902
L120181420 85499902
" />
<path d="M215431420 9587402
L201431420 9587402
" />
<path d="M215431420 23587402
L215431420 9587402
" />
<path d="M201431420 9587402
L201431420 23587402
" />
<path d="M201431420 23587402
L215431420 23587402
" />
<path d="M87131420 90549902
L87131420 104549902
" />
<path d="M87131420 104549902
L101131420 104549902
" />
<path d="M101131420 104549902
L101131420 90549902
" />
<path d="M101131420 90549902
L87131420 90549902
" />
<path d="M144281420 104549902
L158281420 104549902
" />
<path d="M144281420 90549902
L144281420 104549902
" />
<path d="M158281420 90549902
L144281420 90549902
" />
<path d="M158281420 104549902
L158281420 90549902
" />
<path d="M43981420 104549902
L43981420 90549902
" />
<path d="M43981420 90549902
L29981420 90549902
" />
<path d="M29981420 90549902
L29981420 104549902
" />
<path d="M29981420 104549902
L43981420 104549902
" />
<path d="M82081420 47399902
L82081420 33399902
" />
<path d="M82081420 33399902
L68081420 33399902
" />
<path d="M68081420 47399902
L82081420 47399902
" />
<path d="M68081420 33399902
L68081420 47399902
" />
<path d="M139231420 104549902
L139231420 90549902
" />
<path d="M125231420 90549902
L125231420 104549902
" />
<path d="M139231420 90549902
L125231420 90549902
" />
<path d="M125231420 104549902
L139231420 104549902
" />
<path d="M177331420 47399902
L177331420 33399902
" />
<path d="M163331420 33399902
L163331420 47399902
" />
<path d="M163331420 47399902
L177331420 47399902
" />
<path d="M177331420 33399902
L163331420 33399902
" />
<path d="M272581420 23587402
L272581420 9587402
" />
<path d="M258581420 23587402
L272581420 23587402
" />
<path d="M258581420 9587402
L258581420 23587402
" />
<path d="M272581420 9587402
L258581420 9587402
" />
<path d="M272581420 109599902
L258581420 109599902
" />
<path d="M258581420 109599902
L258581420 123599902
" />
<path d="M258581420 123599902
L272581420 123599902
" />
<path d="M272581420 123599902
L272581420 109599902
" />
<path d="M320493920 109599902
L320493920 123599902
" />
<path d="M334493920 123599902
L334493920 109599902
" />
<path d="M320493920 123599902
L334493920 123599902
" />
<path d="M334493920 109599902
L320493920 109599902
" />
<path d="M253531420 23587402
L253531420 9587402
" />
<path d="M239531420 9587402
L239531420 23587402
" />
<path d="M239531420 23587402
L253531420 23587402
" />
<path d="M253531420 9587402
L239531420 9587402
" />
<path d="M320493920 47399902
L334493920 47399902
" />
<path d="M334493920 47399902
L334493920 33399902
" />
<path d="M320493920 33399902
L320493920 47399902
" />
<path d="M334493920 33399902
L320493920 33399902
" />
<path d="M101131420 71499902
L87131420 71499902
" />
<path d="M101131420 85499902
L101131420 71499902
" />
<path d="M87131420 71499902
L87131420 85499902
" />
<path d="M87131420 85499902
L101131420 85499902
" />
<path d="M120181420 47399902
L120181420 33399902
" />
<path d="M106181420 33399902
L106181420 47399902
" />
<path d="M106181420 47399902
L120181420 47399902
" />
<path d="M120181420 33399902
L106181420 33399902
" />
<path d="M220481420 47399902
L234481420 47399902
" />
<path d="M234481420 33399902
L220481420 33399902
" />
<path d="M220481420 33399902
L220481420 47399902
" />
<path d="M234481420 47399902
L234481420 33399902
" />
<path d="M272581420 104549902
L272581420 90549902
" />
<path d="M272581420 90549902
L258581420 90549902
" />
<path d="M258581420 104549902
L272581420 104549902
" />
<path d="M258581420 90549902
L258581420 104549902
" />
<path d="M101131420 52449902
L87131420 52449902
" />
<path d="M87131420 52449902
L87131420 66449902
" />
<path d="M101131420 66449902
L101131420 52449902
" />
<path d="M87131420 66449902
L101131420 66449902
" />
<path d="M253531420 104549902
L253531420 90549902
" />
<path d="M239531420 104549902
L253531420 104549902
" />
<path d="M253531420 90549902
L239531420 90549902
" />
<path d="M239531420 90549902
L239531420 104549902
" />
<path d="M87131420 33399902
L87131420 47399902
" />
<path d="M101131420 47399902
L101131420 33399902
" />
<path d="M101131420 33399902
L87131420 33399902
" />
<path d="M87131420 47399902
L101131420 47399902
" />
<path d="M106181420 23587402
L120181420 23587402
" />
<path d="M106181420 9587402
L106181420 23587402
" />
<path d="M120181420 9587402
L106181420 9587402
" />
<path d="M120181420 23587402
L120181420 9587402
" />
<path d="M315443920 104549902
L315443920 90549902
" />
<path d="M315443920 90549902
L301443920 90549902
" />
<path d="M301443920 104549902
L315443920 104549902
" />
<path d="M301443920 90549902
L301443920 104549902
" />
<path d="M320493920 71499902
L320493920 85499902
" />
<path d="M334493920 85499902
L334493920 71499902
" />
<path d="M334493920 71499902
L320493920 71499902
" />
<path d="M320493920 85499902
L334493920 85499902
" />
<path d="M177331420 90549902
L163331420 90549902
" />
<path d="M177331420 104549902
L177331420 90549902
" />
<path d="M163331420 90549902
L163331420 104549902
" />
<path d="M163331420 104549902
L177331420 104549902
" />
<path d="M315443920 23587402
L315443920 9587402
" />
<path d="M301443920 23587402
L315443920 23587402
" />
<path d="M301443920 9587402
L301443920 23587402
" />
<path d="M315443920 9587402
L301443920 9587402
" />
<path d="M158281420 52449902
L144281420 52449902
" />
<path d="M158281420 66449902
L158281420 52449902
" />
<path d="M144281420 66449902
L158281420 66449902
" />
<path d="M144281420 52449902
L144281420 66449902
" />
<g >
</g>
<g >
</g>
<g >
</g>
<g >
</g>
<g >
</g>
<g >
</g>
<g >
</g>
<g >
</g>
<g >
</g>
<g >
</g>
<g >
</g>
<g >
</g>
<g >
</g>
<g >
</g>
<g >
</g>
<g >
</g>
<g >
</g>
<g >
</g>
<g >
</g>
<g >
</g>
<g >
</g>
<g >
</g>
<g >
</g>
<g >
</g>
<g >
</g>
<g >
</g>
<g >
</g>
<g >
</g>
<g >
</g>
<g >
</g>
<g >
</g>
<g >
</g>
<g >
</g>
<g >
</g>
<g >
</g>
<g >
</g>
<g >
</g>
<g >
</g>
<g >
</g>
<g >
</g>
<g >
</g>
<g >
</g>
<g >
</g>
<g >
</g>
<g >
</g>
<g >
</g>
<g >
</g>
<g >
</g>
<g >
</g>
<g >
</g>
<g >
</g>
<g >
</g>
<g >
</g>
<g >
</g>
<g >
</g>
<g >
</g>
<g >
</g>
<g >
</g>
<g >
</g>
<g >
</g>
<g >
</g>
<g >
</g>
<g >
</g>
<g >
</g>
<g >
</g>
<g >
</g>
<g >
</g>
<g >
</g>
<g >
</g>
<g >
</g>
<g >
</g>
<g >
</g>
<g >
</g>
<g >
</g>
<g >
</g>
<g >
</g>
<g >
</g>
<g >
</g>
<g >
</g>
<g >
</g>
<g >
</g>
<g >
</g>
<g >
</g>
<g >
</g>
<g >
</g>
<g >
</g>
<g >
</g>
<g >
</g>
<g >
</g>
<g >
</g>
<g >
</g>
<g >
</g>
<g >
</g>
<g >
</g>
<g >
</g>
<g >
</g>
<g >
</g>
<g >
</g>
</g> 
</svg>
