<?xml version="1.0" standalone="no"?>
 <!DOCTYPE svg PUBLIC "-//W3C//DTD SVG 1.1//EN" 
 "http://www.w3.org/Graphics/SVG/1.1/DTD/svg11.dtd"> 
<svg
  xmlns:svg="http://www.w3.org/2000/svg"
  xmlns="http://www.w3.org/2000/svg"
  xmlns:xlink="http://www.w3.org/1999/xlink"
  version="1.1"
  width="36.913820cm" height="13.535660cm" viewBox="0 0 145330 53290">
<title>SVG Picture created as yamada75-brd.svg date 2021/12/03 15:45:15 </title>
  <desc>Picture generated by PCBNEW </desc>
<g style="fill:#000000; fill-opacity:1;stroke:#000000; stroke-opacity:1;
stroke-linecap:round; stroke-linejoin:round;"
 transform="translate(0 0) scale(1 1)">
</g>
<g style="fill:#000000; fill-opacity:0.0; 
stroke:#000000; stroke-width:-0.000393701; stroke-opacity:1; 
stroke-linecap:round; stroke-linejoin:round;">
</g>
<g style="fill:#000000; fill-opacity:0.0; 
stroke:#000000; stroke-width:78.7402; stroke-opacity:1; 
stroke-linecap:round; stroke-linejoin:round;">
<path d="M4299.98 7191.66 A839.686 839.686 0.0 0 0 3455.98 7992.46" />
<path d="M137830 46301.9 A826.659 826.659 0.0 0 0 138661 45491.5" />
<path d="M3487.33 45503.2 A823.164 823.164 0.0 0 0 4297.99 46333.5" />
<path d="M137828 46302
L4298 46333
" />
<path d="M3486 45503
L3455 7992
" />
<path d="M4298 7191
L137818 7164
" />
<path d="M138629 7997.17 A826.659 826.659 0.0 0 0 137819 7163.46" />
<path d="M138629 7997
L138660 45491
" />
</g>
<g style="fill:#000000; fill-opacity:0.0; 
stroke:#000000; stroke-width:47.2441; stroke-opacity:1; 
stroke-linecap:round; stroke-linejoin:round;">
<path d="M129431 38688
L123920 38688
" />
<path d="M129431 44200
L129431 38688
" />
<path d="M123920 44200
L129431 44200
" />
<path d="M123920 38688
L123920 44200
" />
<path d="M10700 8692
L5189 8692
" />
<path d="M10700 14204
L10700 8692
" />
<path d="M5189 14204
L10700 14204
" />
<path d="M5189 8692
L5189 14204
" />
<path d="M18200 8692
L12689 8692
" />
<path d="M18200 14204
L18200 8692
" />
<path d="M12689 14204
L18200 14204
" />
<path d="M12689 8692
L12689 14204
" />
<path d="M20189 8692
L20189 14204
" />
<path d="M20189 14204
L25700 14204
" />
<path d="M25700 14204
L25700 8692
" />
<path d="M25700 8692
L20189 8692
" />
<path d="M33200 8692
L27689 8692
" />
<path d="M33200 14204
L33200 8692
" />
<path d="M27689 14204
L33200 14204
" />
<path d="M27689 8692
L27689 14204
" />
<path d="M35189 8692
L35189 14204
" />
<path d="M35189 14204
L40700 14204
" />
<path d="M40700 14204
L40700 8692
" />
<path d="M40700 8692
L35189 8692
" />
<path d="M42689 8692
L42689 14204
" />
<path d="M42689 14204
L48200 14204
" />
<path d="M48200 14204
L48200 8692
" />
<path d="M48200 8692
L42689 8692
" />
<path d="M50189 8692
L50189 14204
" />
<path d="M50189 14204
L55700 14204
" />
<path d="M55700 14204
L55700 8692
" />
<path d="M55700 8692
L50189 8692
" />
<path d="M57689 8692
L57689 14204
" />
<path d="M57689 14204
L63200 14204
" />
<path d="M63200 14204
L63200 8692
" />
<path d="M63200 8692
L57689 8692
" />
<path d="M70700 8692
L65189 8692
" />
<path d="M70700 14204
L70700 8692
" />
<path d="M65189 14204
L70700 14204
" />
<path d="M65189 8692
L65189 14204
" />
<path d="M78200 8692
L72689 8692
" />
<path d="M78200 14204
L78200 8692
" />
<path d="M72689 14204
L78200 14204
" />
<path d="M72689 8692
L72689 14204
" />
<path d="M80189 8692
L80189 14204
" />
<path d="M80189 14204
L85700 14204
" />
<path d="M85700 14204
L85700 8692
" />
<path d="M85700 8692
L80189 8692
" />
<path d="M93200 8692
L87689 8692
" />
<path d="M93200 14204
L93200 8692
" />
<path d="M87689 14204
L93200 14204
" />
<path d="M87689 8692
L87689 14204
" />
<path d="M95189 8692
L95189 14204
" />
<path d="M95189 14204
L100700 14204
" />
<path d="M100700 14204
L100700 8692
" />
<path d="M100700 8692
L95189 8692
" />
<path d="M108200 8692
L102689 8692
" />
<path d="M108200 14204
L108200 8692
" />
<path d="M102689 14204
L108200 14204
" />
<path d="M102689 8692
L102689 14204
" />
<path d="M115700 8692
L110189 8692
" />
<path d="M115700 14204
L115700 8692
" />
<path d="M110189 14204
L115700 14204
" />
<path d="M110189 8692
L110189 14204
" />
<path d="M129430 8652
L123918 8652
" />
<path d="M129430 14164
L129430 8652
" />
<path d="M123918 14164
L129430 14164
" />
<path d="M123918 8652
L123918 14164
" />
<path d="M131418 8652
L131418 14164
" />
<path d="M131418 14164
L136930 14164
" />
<path d="M136930 14164
L136930 8652
" />
<path d="M136930 8652
L131418 8652
" />
<path d="M7064 16192
L7064 21704
" />
<path d="M7064 21704
L12576 21704
" />
<path d="M12576 21704
L12576 16192
" />
<path d="M12576 16192
L7064 16192
" />
<path d="M16439 16192
L16439 21704
" />
<path d="M16439 21704
L21950 21704
" />
<path d="M21950 21704
L21950 16192
" />
<path d="M21950 16192
L16439 16192
" />
<path d="M29450 16192
L23939 16192
" />
<path d="M29450 21704
L29450 16192
" />
<path d="M23939 21704
L29450 21704
" />
<path d="M23939 16192
L23939 21704
" />
<path d="M36950 16192
L31439 16192
" />
<path d="M36950 21704
L36950 16192
" />
<path d="M31439 21704
L36950 21704
" />
<path d="M31439 16192
L31439 21704
" />
<path d="M38939 16192
L38939 21704
" />
<path d="M38939 21704
L44450 21704
" />
<path d="M44450 21704
L44450 16192
" />
<path d="M44450 16192
L38939 16192
" />
<path d="M46439 16192
L46439 21704
" />
<path d="M46439 21704
L51950 21704
" />
<path d="M51950 21704
L51950 16192
" />
<path d="M51950 16192
L46439 16192
" />
<path d="M59450 16192
L53939 16192
" />
<path d="M59450 21704
L59450 16192
" />
<path d="M53939 21704
L59450 21704
" />
<path d="M53939 16192
L53939 21704
" />
<path d="M61439 16192
L61439 21704
" />
<path d="M61439 21704
L66950 21704
" />
<path d="M66950 21704
L66950 16192
" />
<path d="M66950 16192
L61439 16192
" />
<path d="M74450 16192
L68939 16192
" />
<path d="M74450 21704
L74450 16192
" />
<path d="M68939 21704
L74450 21704
" />
<path d="M68939 16192
L68939 21704
" />
<path d="M76439 16192
L76439 21704
" />
<path d="M76439 21704
L81950 21704
" />
<path d="M81950 21704
L81950 16192
" />
<path d="M81950 16192
L76439 16192
" />
<path d="M89450 16192
L83939 16192
" />
<path d="M89450 21704
L89450 16192
" />
<path d="M83939 21704
L89450 21704
" />
<path d="M83939 16192
L83939 21704
" />
<path d="M96950 16192
L91439 16192
" />
<path d="M96950 21704
L96950 16192
" />
<path d="M91439 21704
L96950 21704
" />
<path d="M91439 16192
L91439 21704
" />
<path d="M98939 16192
L98939 21704
" />
<path d="M98939 21704
L104450 21704
" />
<path d="M104450 21704
L104450 16192
" />
<path d="M104450 16192
L98939 16192
" />
<path d="M123918 16152
L123918 21664
" />
<path d="M123918 21664
L129430 21664
" />
<path d="M129430 21664
L129430 16152
" />
<path d="M129430 16152
L123918 16152
" />
<path d="M136930 16152
L131418 16152
" />
<path d="M136930 21664
L136930 16152
" />
<path d="M131418 21664
L136930 21664
" />
<path d="M131418 16152
L131418 21664
" />
<path d="M8001 23692
L8001 29204
" />
<path d="M8001 29204
L13513 29204
" />
<path d="M13513 29204
L13513 23692
" />
<path d="M13513 23692
L8001 23692
" />
<path d="M18314 23692
L18314 29204
" />
<path d="M18314 29204
L23825 29204
" />
<path d="M23825 29204
L23825 23692
" />
<path d="M23825 23692
L18314 23692
" />
<path d="M25814 23692
L25814 29204
" />
<path d="M25814 29204
L31325 29204
" />
<path d="M31325 29204
L31325 23692
" />
<path d="M31325 23692
L25814 23692
" />
<path d="M38825 23692
L33314 23692
" />
<path d="M38825 29204
L38825 23692
" />
<path d="M33314 29204
L38825 29204
" />
<path d="M33314 23692
L33314 29204
" />
<path d="M40814 23692
L40814 29204
" />
<path d="M40814 29204
L46325 29204
" />
<path d="M46325 29204
L46325 23692
" />
<path d="M46325 23692
L40814 23692
" />
<path d="M48314 23692
L48314 29204
" />
<path d="M48314 29204
L53825 29204
" />
<path d="M53825 29204
L53825 23692
" />
<path d="M53825 23692
L48314 23692
" />
<path d="M55814 23692
L55814 29204
" />
<path d="M55814 29204
L61326 29204
" />
<path d="M61326 29204
L61326 23692
" />
<path d="M61326 23692
L55814 23692
" />
<path d="M63314 23692
L63314 29204
" />
<path d="M63314 29204
L68826 29204
" />
<path d="M68826 29204
L68826 23692
" />
<path d="M68826 23692
L63314 23692
" />
<path d="M76326 23692
L70814 23692
" />
<path d="M76326 29204
L76326 23692
" />
<path d="M70814 29204
L76326 29204
" />
<path d="M70814 23692
L70814 29204
" />
<path d="M78314 23692
L78314 29204
" />
<path d="M78314 29204
L83826 29204
" />
<path d="M83826 29204
L83826 23692
" />
<path d="M83826 23692
L78314 23692
" />
<path d="M85814 23692
L85814 29204
" />
<path d="M85814 29204
L91326 29204
" />
<path d="M91326 29204
L91326 23692
" />
<path d="M91326 23692
L85814 23692
" />
<path d="M93314 23692
L93314 29204
" />
<path d="M93314 29204
L98826 29204
" />
<path d="M98826 29204
L98826 23692
" />
<path d="M98826 23692
L93314 23692
" />
<path d="M106326 23692
L100814 23692
" />
<path d="M106326 29204
L106326 23692
" />
<path d="M100814 29204
L106326 29204
" />
<path d="M100814 23692
L100814 29204
" />
<path d="M22064 31192
L22064 36704
" />
<path d="M22064 36704
L27575 36704
" />
<path d="M27575 36704
L27575 31192
" />
<path d="M27575 31192
L22064 31192
" />
<path d="M35075 31192
L29564 31192
" />
<path d="M35075 36704
L35075 31192
" />
<path d="M29564 36704
L35075 36704
" />
<path d="M29564 31192
L29564 36704
" />
<path d="M42575 31192
L37064 31192
" />
<path d="M42575 36704
L42575 31192
" />
<path d="M37064 36704
L42575 36704
" />
<path d="M37064 31192
L37064 36704
" />
<path d="M44564 31192
L44564 36704
" />
<path d="M44564 36704
L50075 36704
" />
<path d="M50075 36704
L50075 31192
" />
<path d="M50075 31192
L44564 31192
" />
<path d="M57576 31192
L52064 31192
" />
<path d="M57576 36704
L57576 31192
" />
<path d="M52064 36704
L57576 36704
" />
<path d="M52064 31192
L52064 36704
" />
<path d="M59564 31192
L59564 36704
" />
<path d="M59564 36704
L65076 36704
" />
<path d="M65076 36704
L65076 31192
" />
<path d="M65076 31192
L59564 31192
" />
<path d="M67064 31192
L67064 36704
" />
<path d="M67064 36704
L72576 36704
" />
<path d="M72576 36704
L72576 31192
" />
<path d="M72576 31192
L67064 31192
" />
<path d="M80076 31192
L74564 31192
" />
<path d="M80076 36704
L80076 31192
" />
<path d="M74564 36704
L80076 36704
" />
<path d="M74564 31192
L74564 36704
" />
<path d="M87576 31192
L82064 31192
" />
<path d="M87576 36704
L87576 31192
" />
<path d="M82064 36704
L87576 36704
" />
<path d="M82064 31192
L82064 36704
" />
<path d="M95076 31192
L89564 31192
" />
<path d="M95076 36704
L95076 31192
" />
<path d="M89564 36704
L95076 36704
" />
<path d="M89564 31192
L89564 36704
" />
<path d="M102576 31192
L97064 31192
" />
<path d="M102576 36704
L102576 31192
" />
<path d="M97064 36704
L102576 36704
" />
<path d="M97064 31192
L97064 36704
" />
<path d="M112888 31192
L107376 31192
" />
<path d="M112888 36704
L112888 31192
" />
<path d="M107376 36704
L112888 36704
" />
<path d="M107376 31192
L107376 36704
" />
<path d="M129430 31192
L123918 31192
" />
<path d="M129430 36704
L129430 31192
" />
<path d="M123918 36704
L129430 36704
" />
<path d="M123918 31192
L123918 36704
" />
<path d="M6126 38692
L6126 44204
" />
<path d="M6126 44204
L11638 44204
" />
<path d="M11638 44204
L11638 38692
" />
<path d="M11638 38692
L6126 38692
" />
<path d="M21013 38692
L15501 38692
" />
<path d="M21013 44204
L21013 38692
" />
<path d="M15501 44204
L21013 44204
" />
<path d="M15501 38692
L15501 44204
" />
<path d="M23939 38692
L23939 44204
" />
<path d="M23939 44204
L29450 44204
" />
<path d="M29450 44204
L29450 38692
" />
<path d="M29450 38692
L23939 38692
" />
<path d="M37888 38692
L32376 38692
" />
<path d="M37888 44204
L37888 38692
" />
<path d="M32376 44204
L37888 44204
" />
<path d="M32376 38692
L32376 44204
" />
<path d="M40814 38692
L40814 44204
" />
<path d="M40814 44204
L46325 44204
" />
<path d="M46325 44204
L46325 38692
" />
<path d="M46325 38692
L40814 38692
" />
<path d="M63314 38692
L63314 44204
" />
<path d="M63314 44204
L68826 44204
" />
<path d="M68826 44204
L68826 38692
" />
<path d="M68826 38692
L63314 38692
" />
<path d="M77263 38692
L71751 38692
" />
<path d="M77263 44204
L77263 38692
" />
<path d="M71751 44204
L77263 44204
" />
<path d="M71751 38692
L71751 44204
" />
<path d="M85700 38692
L80189 38692
" />
<path d="M85700 44204
L85700 38692
" />
<path d="M80189 44204
L85700 44204
" />
<path d="M80189 38692
L80189 44204
" />
<path d="M88626 38692
L88626 44204
" />
<path d="M88626 44204
L94138 44204
" />
<path d="M94138 44204
L94138 38692
" />
<path d="M94138 38692
L88626 38692
" />
<path d="M103513 38692
L98001 38692
" />
<path d="M103513 44204
L103513 38692
" />
<path d="M98001 44204
L103513 44204
" />
<path d="M98001 38692
L98001 44204
" />
<path d="M111951 38691
L106439 38691
" />
<path d="M111951 44203
L111951 38691
" />
<path d="M106439 44203
L111951 44203
" />
<path d="M106439 38691
L106439 44203
" />
<path d="M116418 38692
L116418 44204
" />
<path d="M116418 44204
L121930 44204
" />
<path d="M121930 44204
L121930 38692
" />
<path d="M121930 38692
L116418 38692
" />
<path d="M136930 38692
L131418 38692
" />
<path d="M136930 44204
L136930 38692
" />
<path d="M131418 44204
L136930 44204
" />
<path d="M131418 38692
L131418 44204
" />
<path d="M6598 31586
L9354 31586
" />
<path d="M6598 37413
L6598 31586
" />
<path d="M9354 37413
L6598 37413
" />
<path d="M9354 31586
L9354 37413
" />
<path d="M18724 31586
L15968 31586
" />
<path d="M18724 37413
L18724 31586
" />
<path d="M15968 37413
L18724 37413
" />
<path d="M15968 31586
L15968 37413
" />
</g>
<g style="fill:#000000; fill-opacity:0.0; 
stroke:#000000; stroke-width:59.0551; stroke-opacity:1; 
stroke-linecap:round; stroke-linejoin:round;">
<path d="M9886 31172
L15437 31172
" />
<path d="M15437 31172
L15437 36724
" />
<path d="M15437 36724
L9886 36724
" />
<path d="M9886 36724
L9886 31172
" />
<path d="M57595 38672
L57595 44224
" />
<path d="M52044 38672
L57595 38672
" />
<path d="M52044 44224
L52044 38672
" />
<path d="M57595 44224
L52044 44224
" />
</g>
<g style="fill:#000000; fill-opacity:0.0; 
stroke:#000000; stroke-width:47.2441; stroke-opacity:1; 
stroke-linecap:round; stroke-linejoin:round;">
<path d="M51513 43810
L51513 37983
" />
<path d="M51513 37983
L48757 37983
" />
<path d="M48757 37983
L48757 43810
" />
<path d="M48757 43810
L51513 43810
" />
<path d="M58127 43810
L58127 37983
" />
<path d="M58127 37983
L60883 37983
" />
<path d="M60883 37983
L60883 43810
" />
<path d="M60883 43810
L58127 43810
" />
</g>
<g style="fill:#000000; fill-opacity:0.0; 
stroke:#000000; stroke-width:59.0551; stroke-opacity:1; 
stroke-linecap:round; stroke-linejoin:round;">
<path d="M109231 19922
L114783 19922
" />
<path d="M109231 25474
L109231 19922
" />
<path d="M114783 25474
L109231 25474
" />
<path d="M114783 19922
L114783 25474
" />
</g>
<g style="fill:#000000; fill-opacity:0.0; 
stroke:#000000; stroke-width:47.2441; stroke-opacity:1; 
stroke-linecap:round; stroke-linejoin:round;">
<path d="M114369 26005
L108542 26005
" />
<path d="M108542 26005
L108542 28761
" />
<path d="M108542 28761
L114369 28761
" />
<path d="M114369 28761
L114369 26005
" />
<path d="M114369 19391
L108542 19391
" />
<path d="M108542 19391
L108542 16635
" />
<path d="M108542 16635
L114369 16635
" />
<path d="M114369 16635
L114369 19391
" />
<g >
</g>
<g >
</g>
<g >
</g>
<g >
</g>
<g >
</g>
<g >
</g>
<g >
</g>
<g >
</g>
<g >
</g>
<g >
</g>
<g >
</g>
<g >
</g>
<g >
</g>
<g >
</g>
<g >
</g>
<g >
</g>
<g >
</g>
<g >
</g>
<g >
</g>
<g >
</g>
<g >
</g>
<g >
</g>
<g >
</g>
<g >
</g>
<g >
</g>
<g >
</g>
<g >
</g>
<g >
</g>
<g >
</g>
<g >
</g>
<g >
</g>
<g >
</g>
<g >
</g>
<g >
</g>
<g >
</g>
<g >
</g>
<g >
</g>
<g >
</g>
<g >
</g>
<g >
</g>
<g >
</g>
<g >
</g>
<g >
</g>
<g >
</g>
<g >
</g>
<g >
</g>
<g >
</g>
<g >
</g>
<g >
</g>
<g >
</g>
<g >
</g>
<g >
</g>
<g >
</g>
<g >
</g>
<g >
</g>
<g >
</g>
<g >
</g>
<g >
</g>
<g >
</g>
<g >
</g>
<g >
</g>
<g >
</g>
<g >
</g>
<g >
</g>
<g >
</g>
<g >
</g>
<g >
</g>
<g >
</g>
<g >
</g>
<g >
</g>
<g >
</g>
<g >
</g>
<g >
</g>
<g >
</g>
<g >
</g>
<g >
</g>
</g> 
</svg>
