<?xml version="1.0" standalone="no"?>
 <!DOCTYPE svg PUBLIC "-//W3C//DTD SVG 1.1//EN" 
 "http://www.w3.org/Graphics/SVG/1.1/DTD/svg11.dtd"> 
<svg
  xmlns:svg="http://www.w3.org/2000/svg"
  xmlns="http://www.w3.org/2000/svg"
  xmlns:xlink="http://www.w3.org/1999/xlink"
  version="1.1"
  width="41.351200cm" height="15.519400cm" viewBox="0 0 413512000 155194000">
<title>SVG Picture created as yamada_willow-brd.svg date 2022/04/06 14:09:07 </title>
  <desc>Picture generated by PCBNEW </desc>
<g style="fill:#000000; fill-opacity:1.000000;stroke:#000000; stroke-opacity:1.000000;
stroke-linecap:round; stroke-linejoin:round;"
 transform="translate(0 0) scale(1 1)">
</g>
<g style="fill:#000000; fill-opacity:0.0; 
stroke:#000000; stroke-width:0.000000; stroke-opacity:1; 
stroke-linecap:round; stroke-linejoin:round;">
</g>
<g style="fill:#C2C2C2; fill-opacity:0.0; 
stroke:#C2C2C2; stroke-width:0.000000; stroke-opacity:1; 
stroke-linecap:round; stroke-linejoin:round;">
</g>
<g style="fill:#C2C2C2; fill-opacity:0.0; 
stroke:#C2C2C2; stroke-width:100000.000000; stroke-opacity:1; 
stroke-linecap:round; stroke-linejoin:round;">
<path d="M72435585 8018255
L343195585 8048255
" />
<path d="M72435584.993876 8018254.904810 A66195764.000000 66195764.000000 0.0 0 0 74245584.992320 140228255.208243" />
<path d="M341385585 140268255
L74245585 140228255
" />
<path d="M341385585.027626 140268255.749046 A66200767.000000 66200767.000000 0.0 0 0 343195585.030218 8048254.530264" />
</g>
<g style="fill:#C2C2C2; fill-opacity:0.0; 
stroke:#C2C2C2; stroke-width:120000.000000; stroke-opacity:1; 
stroke-linecap:round; stroke-linejoin:round;">
<path d="M383754988 98709272
L380368082 85125132
" />
<path d="M366783942 88512038
L370170848 102096178
" />
<path d="M380368082 85125132
L366783942 88512038
" />
<path d="M370170848 102096178
L383754988 98709272
" />
<path d="M149142297 49013516
L135150826 48524923
" />
<path d="M134662233 62516394
L148653704 63004987
" />
<path d="M148653704 63004987
L149142297 49013516
" />
<path d="M135150826 48524923
L134662233 62516394
" />
<path d="M114489433 21266816
L114978026 35258287
" />
<path d="M128480904 20778223
L114489433 21266816
" />
<path d="M128969497 34769694
L128480904 20778223
" />
<path d="M114978026 35258287
L128969497 34769694
" />
<path d="M77025392 60688502
L75805212 74635228
" />
<path d="M90972118 61908682
L77025392 60688502
" />
<path d="M89751938 75855408
L90972118 61908682
" />
<path d="M75805212 74635228
L89751938 75855408
" />
<path d="M326635812 82720928
L329307138 96463708
" />
<path d="M329307138 96463708
L343049918 93792382
" />
<path d="M340378592 80049602
L326635812 82720928
" />
<path d="M343049918 93792382
L340378592 80049602
" />
<path d="M38188000 65908167
L36239577 79771920
" />
<path d="M50103330 81720343
L52051753 67856590
" />
<path d="M36239577 79771920
L50103330 81720343
" />
<path d="M52051753 67856590
L38188000 65908167
" />
<path d="M376695432 46799854
L362697564 47044188
" />
<path d="M362941898 61042056
L376939766 60797722
" />
<path d="M362697564 47044188
L362941898 61042056
" />
<path d="M376939766 60797722
L376695432 46799854
" />
<path d="M221264565 82099750
L231164060 72200255
" />
<path d="M231164060 72200255
L221264565 62300760
" />
<path d="M211365070 72200255
L221264565 82099750
" />
<path d="M221264565 62300760
L211365070 72200255
" />
<path d="M180794565 102698760
L170895070 112598255
" />
<path d="M180794565 122497750
L190694060 112598255
" />
<path d="M190694060 112598255
L180794565 102698760
" />
<path d="M170895070 112598255
L180794565 122497750
" />
<path d="M319130504 53762423
L305139033 54251016
" />
<path d="M305627626 68242487
L319619097 67753894
" />
<path d="M305139033 54251016
L305627626 68242487
" />
<path d="M319619097 67753894
L319130504 53762423
" />
<path d="M54982738 83910602
L52311412 97653382
" />
<path d="M52311412 97653382
L66054192 100324708
" />
<path d="M68725518 86581928
L54982738 83910602
" />
<path d="M66054192 100324708
L68725518 86581928
" />
<path d="M357758465 45529055
L343758465 45529055
" />
<path d="M343758465 59529055
L357758465 59529055
" />
<path d="M343758465 45529055
L343758465 59529055
" />
<path d="M357758465 59529055
L357758465 45529055
" />
<path d="M320102030 73081067
L306238277 75029490
" />
<path d="M322050453 86944820
L320102030 73081067
" />
<path d="M308186700 88893243
L322050453 86944820
" />
<path d="M306238277 75029490
L308186700 88893243
" />
<path d="M269146473 89339538
L271577548 103126847
" />
<path d="M282933782 86908463
L269146473 89339538
" />
<path d="M285364857 100695772
L282933782 86908463
" />
<path d="M271577548 103126847
L285364857 100695772
" />
<path d="M344218026 25818223
L343729433 39809694
" />
<path d="M358209497 26306816
L344218026 25818223
" />
<path d="M343729433 39809694
L357720904 40298287
" />
<path d="M357720904 40298287
L358209497 26306816
" />
<path d="M107577742 111526272
L121161882 114913178
" />
<path d="M110964648 97942132
L107577742 111526272
" />
<path d="M121161882 114913178
L124548788 101329038
" />
<path d="M124548788 101329038
L110964648 97942132
" />
<path d="M146382457 89339538
L132595148 86908463
" />
<path d="M130164073 100695772
L143951382 103126847
" />
<path d="M132595148 86908463
L130164073 100695772
" />
<path d="M143951382 103126847
L146382457 89339538
" />
<path d="M109290653 75029490
L95426900 73081067
" />
<path d="M107342230 88893243
L109290653 75029490
" />
<path d="M93478477 86944820
L107342230 88893243
" />
<path d="M95426900 73081067
L93478477 86944820
" />
<path d="M234714365 102728760
L224814870 112628255
" />
<path d="M224814870 112628255
L234714365 122527750
" />
<path d="M234714365 122527750
L244613860 112628255
" />
<path d="M244613860 112628255
L234714365 102728760
" />
<path d="M319166104 48598087
L319654697 34606616
" />
<path d="M319654697 34606616
L305663226 34118023
" />
<path d="M305663226 34118023
L305174633 48109494
" />
<path d="M305174633 48109494
L319166104 48598087
" />
<path d="M76812610 36426413
L90793423 35693710
" />
<path d="M76079907 22445600
L76812610 36426413
" />
<path d="M90060720 21712897
L76079907 22445600
" />
<path d="M90793423 35693710
L90060720 21712897
" />
<path d="M224834870 85670255
L234734365 95569750
" />
<path d="M244633860 85670255
L234734365 75770760
" />
<path d="M234734365 75770760
L224834870 85670255
" />
<path d="M234734365 95569750
L244633860 85670255
" />
<path d="M286384226 39868623
L285895633 53860094
" />
<path d="M299887104 54348687
L300375697 40357216
" />
<path d="M285895633 53860094
L299887104 54348687
" />
<path d="M300375697 40357216
L286384226 39868623
" />
<path d="M217673860 85688255
L207774365 75788760
" />
<path d="M207774365 95587750
L217673860 85688255
" />
<path d="M197874870 85688255
L207774365 95587750
" />
<path d="M207774365 75788760
L197874870 85688255
" />
<path d="M71770465 45529055
L57770465 45529055
" />
<path d="M57770465 45529055
L57770465 59529055
" />
<path d="M57770465 59529055
L71770465 59529055
" />
<path d="M71770465 59529055
L71770465 45529055
" />
<path d="M207764265 102728760
L197864770 112628255
" />
<path d="M217663760 112628255
L207764265 102728760
" />
<path d="M207764265 122527750
L217663760 112628255
" />
<path d="M197864770 112628255
L207764265 122527750
" />
<path d="M231143760 99158255
L221244265 89258760
" />
<path d="M221244265 109057750
L231143760 99158255
" />
<path d="M221244265 89258760
L211344770 99158255
" />
<path d="M211344770 99158255
L221244265 109057750
" />
<path d="M280430904 43248287
L280919497 29256816
" />
<path d="M266928026 28768223
L266439433 42759694
" />
<path d="M280919497 29256816
L266928026 28768223
" />
<path d="M266439433 42759694
L280430904 43248287
" />
<path d="M86221792 96463708
L88893118 82720928
" />
<path d="M72479012 93792382
L86221792 96463708
" />
<path d="M88893118 82720928
L75150338 80049602
" />
<path d="M75150338 80049602
L72479012 93792382
" />
<path d="M112047405 92714432
L125875042 94904515
" />
<path d="M128065125 81076878
L114237488 78886795
" />
<path d="M114237488 78886795
L112047405 92714432
" />
<path d="M125875042 94904515
L128065125 81076878
" />
<path d="M323121598 92195407
L309480417 95344722
" />
<path d="M326270913 105836588
L323121598 92195407
" />
<path d="M312629732 108985903
L326270913 105836588
" />
<path d="M309480417 95344722
L312629732 108985903
" />
<path d="M71310904 25818223
L57319433 26306816
" />
<path d="M57319433 26306816
L57808026 40298287
" />
<path d="M71799497 39809694
L71310904 25818223
" />
<path d="M57808026 40298287
L71799497 39809694
" />
<path d="M290980142 101329038
L294367048 114913178
" />
<path d="M304564282 97942132
L290980142 101329038
" />
<path d="M294367048 114913178
L307951188 111526272
" />
<path d="M307951188 111526272
L304564282 97942132
" />
<path d="M204213860 72208255
L194314365 62308760
" />
<path d="M194314365 62308760
L184414870 72208255
" />
<path d="M184414870 72208255
L194314365 82107750
" />
<path d="M194314365 82107750
L204213860 72208255
" />
<path d="M280378104 48524923
L266386633 49013516
" />
<path d="M280866697 62516394
L280378104 48524923
" />
<path d="M266386633 49013516
L266875226 63004987
" />
<path d="M266875226 63004987
L280866697 62516394
" />
<path d="M376810904 41538287
L377299497 27546816
" />
<path d="M362819433 41049694
L376810904 41538287
" />
<path d="M363308026 27058223
L362819433 41049694
" />
<path d="M377299497 27546816
L363308026 27058223
" />
<path d="M268036212 110735041
L254513251 114358508
" />
<path d="M254513251 114358508
L258136718 127881469
" />
<path d="M271659679 124258002
L268036212 110735041
" />
<path d="M258136718 127881469
L271659679 124258002
" />
<path d="M339332297 22318216
L325340826 21829623
" />
<path d="M325340826 21829623
L324852233 35821094
" />
<path d="M324852233 35821094
L338843704 36309687
" />
<path d="M338843704 36309687
L339332297 22318216
" />
<path d="M200575025 31685855
L214978605 31685855
" />
<path d="M214981145 18082375
L200577565 18082375
" />
<path d="M214981145 18082375
L214978605 31685855
" />
<path d="M200575025 31685855
L200577565 18082375
" />
<path d="M128959518 105870441
L125336051 119393402
" />
<path d="M138859012 123016869
L142482479 109493908
" />
<path d="M125336051 119393402
L138859012 123016869
" />
<path d="M142482479 109493908
L128959518 105870441
" />
<path d="M115153233 40357216
L115641826 54348687
" />
<path d="M115641826 54348687
L129633297 53860094
" />
<path d="M129144704 39868623
L115153233 40357216
" />
<path d="M129633297 53860094
L129144704 39868623
" />
<path d="M190733860 85678255
L180834365 75778760
" />
<path d="M180834365 95577750
L190733860 85678255
" />
<path d="M170934870 85678255
L180834365 95577750
" />
<path d="M180834365 75778760
L170934870 85678255
" />
<path d="M69691703 80538163
L71397873 66642517
" />
<path d="M57502227 64936347
L55796057 78831993
" />
<path d="M71397873 66642517
L57502227 64936347
" />
<path d="M55796057 78831993
L69691703 80538163
" />
<path d="M149089497 42759694
L148600904 28768223
" />
<path d="M135098026 43248287
L149089497 42759694
" />
<path d="M148600904 28768223
L134609433 29256816
" />
<path d="M134609433 29256816
L135098026 43248287
" />
<path d="M52220904 27058223
L38229433 27546816
" />
<path d="M38718026 41538287
L52709497 41049694
" />
<path d="M52709497 41049694
L52220904 27058223
" />
<path d="M38229433 27546816
L38718026 41538287
" />
<path d="M267003212 68926682
L268223392 82873408
" />
<path d="M280949938 67706502
L267003212 68926682
" />
<path d="M268223392 82873408
L282170118 81653228
" />
<path d="M282170118 81653228
L280949938 67706502
" />
<path d="M161015679 114358508
L147492718 110735041
" />
<path d="M143869251 124258002
L157392212 127881469
" />
<path d="M147492718 110735041
L143869251 124258002
" />
<path d="M157392212 127881469
L161015679 114358508
" />
<path d="M324562498 41237254
L324318164 55235122
" />
<path d="M324318164 55235122
L338316032 55479456
" />
<path d="M338316032 55479456
L338560366 41481588
" />
<path d="M338560366 41481588
L324562498 41237254
" />
<path d="M95874233 34606616
L96362826 48598087
" />
<path d="M96362826 48598087
L110354297 48109494
" />
<path d="M109865704 34118023
L95874233 34606616
" />
<path d="M110354297 48109494
L109865704 34118023
" />
<path d="M365425600 81720343
L379289353 79771920
" />
<path d="M379289353 79771920
L377340930 65908167
" />
<path d="M363477177 67856590
L365425600 81720343
" />
<path d="M377340930 65908167
L363477177 67856590
" />
<path d="M264477582 91729063
L250690273 94160138
" />
<path d="M266908657 105516372
L264477582 91729063
" />
<path d="M250690273 94160138
L253121348 107947447
" />
<path d="M253121348 107947447
L266908657 105516372
" />
<path d="M325776992 75855408
L339723718 74635228
" />
<path d="M338503538 60688502
L324556812 61908682
" />
<path d="M324556812 61908682
L325776992 75855408
" />
<path d="M339723718 74635228
L338503538 60688502
" />
<path d="M287463805 81076878
L289653888 94904515
" />
<path d="M301291442 78886795
L287463805 81076878
" />
<path d="M289653888 94904515
L303481525 92714432
" />
<path d="M303481525 92714432
L301291442 78886795
" />
<path d="M300550904 35258287
L301039497 21266816
" />
<path d="M301039497 21266816
L287048026 20778223
" />
<path d="M286559433 34769694
L300550904 35258287
" />
<path d="M287048026 20778223
L286559433 34769694
" />
<path d="M346803412 86581928
L349474738 100324708
" />
<path d="M349474738 100324708
L363217518 97653382
" />
<path d="M363217518 97653382
L360546192 83910602
" />
<path d="M360546192 83910602
L346803412 86581928
" />
<path d="M128793320 74389213
L129526023 60408400
" />
<path d="M114812507 73656510
L128793320 74389213
" />
<path d="M129526023 60408400
L115545210 59675697
" />
<path d="M115545210 59675697
L114812507 73656510
" />
<path d="M211334870 126098255
L221234365 135997750
" />
<path d="M231133860 126098255
L221234365 116198760
" />
<path d="M221234365 116198760
L211334870 126098255
" />
<path d="M221234365 135997750
L231133860 126098255
" />
<path d="M241580025 31685855
L255983605 31685855
" />
<path d="M241580025 31685855
L241582565 18082375
" />
<path d="M255986145 18082375
L255983605 31685855
" />
<path d="M255986145 18082375
L241582565 18082375
" />
<path d="M91210766 55235122
L90966432 41237254
" />
<path d="M90966432 41237254
L76968564 41481588
" />
<path d="M77212898 55479456
L91210766 55235122
" />
<path d="M76968564 41481588
L77212898 55479456
" />
<path d="M89258017 105836588
L102899198 108985903
" />
<path d="M102899198 108985903
L106048513 95344722
" />
<path d="M106048513 95344722
L92407332 92195407
" />
<path d="M92407332 92195407
L89258017 105836588
" />
<path d="M299983720 59675697
L286002907 60408400
" />
<path d="M300716423 73656510
L299983720 59675697
" />
<path d="M286735610 74389213
L300716423 73656510
" />
<path d="M286002907 60408400
L286735610 74389213
" />
<path d="M96398426 53762423
L95909833 67753894
" />
<path d="M109901304 68242487
L110389897 54251016
" />
<path d="M110389897 54251016
L96398426 53762423
" />
<path d="M95909833 67753894
L109901304 68242487
" />
<path d="M173976145 18082375
L159572565 18082375
" />
<path d="M173976145 18082375
L173973605 31685855
" />
<path d="M159570025 31685855
L173973605 31685855
" />
<path d="M159570025 31685855
L159572565 18082375
" />
<path d="M162407582 107947447
L164838657 94160138
" />
<path d="M151051348 91729063
L148620273 105516372
" />
<path d="M164838657 94160138
L151051348 91729063
" />
<path d="M148620273 105516372
L162407582 107947447
" />
<path d="M204163860 126068255
L194264365 116168760
" />
<path d="M194264365 135967750
L204163860 126068255
" />
<path d="M184364870 126068255
L194264365 135967750
" />
<path d="M194264365 116168760
L184364870 126068255
" />
<path d="M134578992 67706502
L133358812 81653228
" />
<path d="M148525718 68926682
L134578992 67706502
" />
<path d="M133358812 81653228
L147305538 82873408
" />
<path d="M147305538 82873408
L148525718 68926682
" />
<path d="M31773942 98709272
L45358082 102096178
" />
<path d="M45358082 102096178
L48744988 88512038
" />
<path d="M35160848 85125132
L31773942 98709272
" />
<path d="M48744988 88512038
L35160848 85125132
" />
<path d="M108963520 14861497
L94982707 15594200
" />
<path d="M94982707 15594200
L95715410 29575013
" />
<path d="M95715410 29575013
L109696223 28842310
" />
<path d="M109696223 28842310
L108963520 14861497
" />
<path d="M38589164 60797722
L52587032 61042056
" />
<path d="M52831366 47044188
L38833498 46799854
" />
<path d="M38833498 46799854
L38589164 60797722
" />
<path d="M52587032 61042056
L52831366 47044188
" />
<path d="M320429497 15466816
L306438026 14978223
" />
<path d="M306438026 14978223
L305949433 28969694
" />
<path d="M305949433 28969694
L319940904 29458287
" />
<path d="M319940904 29458287
L320429497 15466816
" />
<path d="M207804565 68619750
L217704060 58720255
" />
<path d="M207804565 48820760
L197905070 58720255
" />
<path d="M217704060 58720255
L207804565 48820760
" />
<path d="M197905070 58720255
L207804565 68619750
" />
<path d="M286569412 105870441
L273046451 109493908
" />
<path d="M273046451 109493908
L276669918 123016869
" />
<path d="M290192879 119393402
L286569412 105870441
" />
<path d="M276669918 123016869
L290192879 119393402
" />
<path d="M344131057 66642517
L345837227 80538163
" />
<path d="M345837227 80538163
L359732873 78831993
" />
<path d="M358026703 64936347
L344131057 66642517
" />
<path d="M359732873 78831993
L358026703 64936347
" />
<path d="M194294365 109057750
L204193860 99158255
" />
<path d="M184394870 99158255
L194294365 109057750
" />
<path d="M204193860 99158255
L194294365 89258760
" />
<path d="M194294365 89258760
L184394870 99158255
" />
<g >
</g>
<g >
</g>
<g >
</g>
<g >
</g>
<g >
</g>
<g >
</g>
<g >
</g>
<g >
</g>
<g >
</g>
<g >
</g>
<g >
</g>
<g >
</g>
<g >
</g>
<g >
</g>
<g >
</g>
<g >
</g>
<g >
</g>
<g >
</g>
<g >
</g>
<g >
</g>
<g >
</g>
<g >
</g>
<g >
</g>
<g >
</g>
<g >
</g>
<g >
</g>
<g >
</g>
<g >
</g>
<g >
</g>
<g >
</g>
<g >
</g>
<g >
</g>
<g >
</g>
<g >
</g>
<g >
</g>
<g >
</g>
<g >
</g>
<g >
</g>
<g >
</g>
<g >
</g>
<g >
</g>
<g >
</g>
<g >
</g>
<g >
</g>
<g >
</g>
<g >
</g>
<g >
</g>
<g >
</g>
<g >
</g>
<g >
</g>
<g >
</g>
<g >
</g>
<g >
</g>
<g >
</g>
<g >
</g>
<g >
</g>
<g >
</g>
<g >
</g>
<g >
</g>
<g >
</g>
<g >
</g>
<g >
</g>
<g >
</g>
<g >
</g>
<g >
</g>
<g >
</g>
<g >
</g>
<g >
</g>
<g >
</g>
<g >
</g>
<g >
</g>
<g >
</g>
<g >
</g>
<g >
</g>
<g >
</g>
<g >
</g>
<g >
</g>
<g >
</g>
<g >
</g>
</g> 
</svg>
